<svg xmlns="http://www.w3.org/2000/svg" viewBox="0 0 19.58 19.58"><defs><style>.cls-1{fill:#15171a;stroke:#15171a;stroke-miterlimit:10;stroke-width:0.25px;}</style></defs><title>IconHelpAsset 21</title><g id="Layer_2" data-name="Layer 2"><g id="Layer_3" data-name="Layer 3"><path id="path" class="cls-1" d="M9.79,19.46a9.67,9.67,0,1,1,9.67-9.67A9.67,9.67,0,0,1,9.79,19.46Zm0-1.76A7.91,7.91,0,1,0,1.88,9.79,7.91,7.91,0,0,0,9.79,17.7Zm0-11.42a.88.88,0,0,1,0-1.76.88.88,0,1,1,0,1.76ZM8.91,8.47a.88.88,0,0,1,1.76,0v5.72a.88.88,0,0,1-1.76,0Z"/></g></g></svg>