<svg id="Layer_3" data-name="Layer 3" xmlns="http://www.w3.org/2000/svg" xmlns:xlink="http://www.w3.org/1999/xlink" viewBox="0 0 750 1334"><defs><style>.cls-1{fill:url(#linear-gradient);}.cls-2{fill:#b3b8ff;}.cls-3{fill:#f4a086;}.cls-4{fill:#f1eefc;}.cls-5{fill:#a9a9ff;}.cls-6{fill:#8980ff;}.cls-24,.cls-7{fill:#7966ff;}.cls-8{fill:#fff;}.cls-9{fill:#f59d83;}.cls-10,.cls-20{fill:#1a1a1a;}.cls-11{fill:#f7b690;}.cls-12{fill:#31383e;}.cls-13{fill:#fee4aa;}.cls-14{fill:#333;}.cls-15{fill:#c3d4ff;}.cls-16{fill:#f2f2f2;}.cls-17{fill:#414a53;}.cls-18,.cls-21{fill:#15171a;}.cls-18,.cls-19,.cls-20{fill-rule:evenodd;}.cls-19{fill:#7368e3;}.cls-22,.cls-23{opacity:0.5;}.cls-22{fill:url(#linear-gradient-2);}.cls-23{fill:url(#linear-gradient-3);}.cls-24{font-size:36px;font-family:AvenirNext-Bold, Avenir Next;font-weight:700;letter-spacing:0.1em;}</style><linearGradient id="linear-gradient" x1="546.44" y1="-70.76" x2="111.6" y2="1351.54" gradientUnits="userSpaceOnUse"><stop offset="0" stop-color="#fff"/><stop offset="0.02" stop-color="#fefcff"/><stop offset="0.08" stop-color="#fdf5ff"/><stop offset="0.24" stop-color="#fdf3ff"/><stop offset="0.63" stop-color="#d8e4ff"/><stop offset="1" stop-color="#c3d4ff"/></linearGradient><linearGradient id="linear-gradient-2" x1="412.21" y1="445.1" x2="412.21" y2="466.94" gradientTransform="translate(187.95 -114.65) rotate(20.85)" gradientUnits="userSpaceOnUse"><stop offset="0" stop-color="#7966ff"/><stop offset="0.16" stop-color="#8476ff"/><stop offset="0.49" stop-color="#9892ff"/><stop offset="0.78" stop-color="#a5a3ff"/><stop offset="1" stop-color="#a9a9ff"/></linearGradient><linearGradient id="linear-gradient-3" x1="328.81" y1="477.86" x2="328.81" y2="499.71" gradientTransform="translate(81.83 -81.22) rotate(9.93)" xlink:href="#linear-gradient-2"/></defs><title>ErkebTuto3Artboard 33</title><rect class="cls-1" width="750" height="980"/><path class="cls-2" d="M298.73,513.34c0-6.33,1.56-12.84,5.44-17.85.95-1.23,2.29-2.45,3.83-2.28s2.46,1.49,3.21,2.75c4.94,8.24,6.49,18,7.67,27.54l-18.76,2.61A65.51,65.51,0,0,1,298.73,513.34Z"/><path class="cls-3" d="M301.36,532.11c-.43-2-.85-4-1.24-6l18.76-2.61.33,2.74q1.69,14.38,3.4,28.77c.42,3.6,1.75,7.68-.65,10.83a7.36,7.36,0,0,1-7.64,2.79,9.58,9.58,0,0,1-5.48-5,28.56,28.56,0,0,1-2.24-7.22Q304,544.28,301.36,532.11Z"/><path class="cls-3" d="M361.2,582.42c1.93,1.07,6.45,3.69,5.47,5.67-.76,1.54-5.33.9-7,.38-11.32-3.64-46.72-20.1-48.71-22-3.28-3.18-.73-14.23,5.7-13.59S343.61,572.69,361.2,582.42Z"/><path class="cls-3" d="M380.19,588.43c1.36,2.75.89,6.48-1.52,8.38a5.86,5.86,0,0,1-5.95.7c-1.42-.66-2.57-1.89-4.07-2.31-.76-.22-1.57-.22-2.34-.41a9.56,9.56,0,0,1-4.09-2.7c-1.85-1.74-3.53-3.69-3-6.41a3.31,3.31,0,0,1,2.67-2.8,20.44,20.44,0,0,1,5.3-.15c2.55.06,5.05,0,7.47,1A10.14,10.14,0,0,1,380.19,588.43Z"/><path class="cls-4" d="M0,1209V803H0a1039.81,1039.81,0,0,1,750,0h0v406Z"/><path class="cls-5" d="M0,1271V865H0a1039.81,1039.81,0,0,1,750,0h0v406Z"/><path class="cls-6" d="M0,1334V928H0a1039.81,1039.81,0,0,1,750,0h0v406Z"/><path class="cls-7" d="M0,1334V995H0a1039.81,1039.81,0,0,1,750,0h0v339Z"/><path class="cls-8" d="M195,555H140c-1,0-1-1-2-2,6-1,11-3,17-2,14,2,27-1,41,2,0,1-1,1-1,2Z"/><path class="cls-8" d="M195,569c-29,1-57-2-86,0a2,2,0,0,1,0-4c29,0,58,0,87,2,0,1-1,1-1,2Z"/><path class="cls-8" d="M195,583c-38,0-75,0-113-2,1-1,1-2,2-2,37-2,74,2,111,0,1,0,2,2,0,4Z"/><path class="cls-8" d="M137.5,668.5a25.73,25.73,0,0,1-15,1c-9-2-17,1-26-2a147.75,147.75,0,0,1,42,0l-1,1Z"/><path class="cls-8" d="M137.5,679.5c-21,0-43,0-64-2a352.83,352.83,0,0,1,65,0c0,1-1,1-1,2Z"/><path class="cls-8" d="M137.5,689.5c-27,1-54-3-81,0a3.49,3.49,0,0,1-1-2,574.83,574.83,0,0,1,83,0c0,1-1,1-1,2Z"/><path d="M362.52,701.78H273.85L262.5,657.27H375.75s-16.3,13.48-17.47,26.71C357.13,696.91,362.52,701.78,362.52,701.78Z"/><path class="cls-9" d="M397.61,477.56c-.7-.53-4.6,2.78-4.88,5s1.94,7.24-4.18,7.24-9.45-10.3-8.75-13.36,4.31-1.94,6.81-5,3.06-5.85,4.45-7.79S397.61,477.56,397.61,477.56Z"/><circle cx="451.64" cy="557.19" r="6.75"/><path d="M453.52,548.46a6.75,6.75,0,1,1-6.75-6.74A6.75,6.75,0,0,1,453.52,548.46Z"/><path class="cls-9" d="M445.73,536.22c-3-.49-12.24,4.17-16.83,10.43s3.19,7.6,5.35,6.51,6.62-11.38,11.48-11.66,5.29,1.67,6.54-.41S450.88,537.05,445.73,536.22Z"/><path class="cls-8" d="M355.13,539.08c3.89,40.61,58.14,38.4,76.21,22.7,2.84-2.48-2.43-15.51-2.43-15.51s-55.65,3.06-36.5-32.23C416.18,470.21,351.23,498.46,355.13,539.08Z"/><path class="cls-10" d="M375.75,657.38H240.58V632.51a4.11,4.11,0,0,1,3.82-4.35H370.75c8.34,0,14.44,5.31,12.39,10.78C381.41,643.55,375.75,657.38,375.75,657.38Z"/><circle cx="272.41" cy="723.83" r="41.94" transform="translate(-432.04 404.63) rotate(-45)"/><path d="M545.14,723.83a41.94,41.94,0,1,1-41.94-41.94A41.94,41.94,0,0,1,545.14,723.83Z"/><circle class="cls-8" cx="503.2" cy="723.83" r="28.33" transform="translate(-227.96 231.34) rotate(-21.23)"/><circle class="cls-8" cx="272.2" cy="723.83" r="28.33" transform="translate(-243.64 147.69) rotate(-21.23)"/><path class="cls-4" d="M511.31,723.83a8.11,8.11,0,1,1-8.11-8.11A8.11,8.11,0,0,1,511.31,723.83Z"/><path class="cls-4" d="M280.53,723.83a8.12,8.12,0,1,1-8.12-8.11A8.12,8.12,0,0,1,280.53,723.83Z"/><rect class="cls-10" x="291.47" y="701.78" width="130.2" height="24.83"/><path class="cls-11" d="M401.63,440.28c5.28.38,17.25,3.06,18.37,7.79s-7.12,29.63-12.69,31.86-13-4.62-13.26-6,.35-5,.07-5.82S383.28,466.89,383,463,399,440.09,401.63,440.28Z"/><path class="cls-8" d="M385.78,478.39c-2.23-1.39-.84-5.56-4.45-5.56s-17.53,6.39-22,12.52-19.2,41.17-23.37,45.9-28.93,51.46-27.54,56.19,10.29,5.29,14.19,4.73,15.85-8.9,22.53-9.46,19.27-.11,24.28,3,1.31-18,4.1-25.77,19.47-24.2,22.53-36.72,3.62-36.44-3.34-40.62Z"/><path class="cls-11" d="M450.6,544.88c-3-.49-12.24,4.17-16.83,10.43s3.18,7.6,5.34,6.51,6.62-11.38,11.49-11.66,5.28,1.67,6.53-.41S455.74,545.71,450.6,544.88Z"/><polygon class="cls-12" points="240.58 671.99 204.05 711.63 204.05 704.12 233.48 657.38 240.58 657.38 240.58 671.99"/><path class="cls-10" d="M454.11,536.18h11.51a0,0,0,0,1,0,0v49.73a0,0,0,0,1,0,0h-12.1a0,0,0,0,1,0,0V536.77A.59.59,0,0,1,454.11,536.18Z"/><path class="cls-10" d="M497.46,625.91l-31.84-40h-12.1s7.25,26.79,9.66,35.72A30.77,30.77,0,0,1,458.91,647l-37.25,54.78v24.83l78.28-75.56a11.3,11.3,0,0,0,2.91-11.58L500,630.71A15.18,15.18,0,0,0,497.46,625.91Z"/><path class="cls-13" d="M493.41,555.21a19,19,0,0,1-19,19c-10.5,0-10.5-38,0-38A19,19,0,0,1,493.41,555.21Z"/><polygon class="cls-10" points="461.24 511.42 465.34 511.42 465.34 536.83 457.9 536.83 461.24 511.42"/><polygon class="cls-14" points="461.26 519.64 453.32 522.98 453.32 499.25 461.26 502.59 461.26 519.64"/><path class="cls-14" d="M465.34,511.11c0,4.71-1.83,8.53-4.08,8.53s-2.26-17.05,0-17.05S465.34,506.4,465.34,511.11Z"/><path class="cls-15" d="M454.74,511.11c0,6.55-.64,11.86-1.42,11.86s-1.41-5.31-1.41-11.86.63-11.86,1.41-11.86S454.74,504.56,454.74,511.11Z"/><path class="cls-12" d="M506.44,721.7a3.36,3.36,0,0,1-1.12,4.59l-.35.22a3.36,3.36,0,0,1-4.59-1.11l-29.81-48.87a3.33,3.33,0,0,1,1.11-4.58l.36-.22a3.33,3.33,0,0,1,4.58,1.11Z"/><path class="cls-10" d="M317.76,710.27c0-4.38-27.82-46.88-75.25-23.09-3.34,1.53,6.1,13,10.43,11.68,26.29-8,49.8-1.9,60.09,13.08C314.74,714.43,317.75,711.52,317.76,710.27Z"/><polygon points="267.72 671.99 240.58 671.99 240.58 657.38 263.65 657.38 267.72 671.99"/><rect class="cls-14" x="465.62" y="536.19" width="8.76" height="38.05"/><circle class="cls-14" cx="354.41" cy="726.61" r="18.71"/><polygon class="cls-14" points="302.55 730.64 350.57 730.64 350.57 711.52 302.55 720.62 302.55 730.64"/><path class="cls-10" d="M364.28,726.39a10.63,10.63,0,1,1-10.63-10.62A10.62,10.62,0,0,1,364.28,726.39Z"/><path class="cls-16" d="M375.75,533.18C415.93,482,383,480.37,383,480.37"/><path class="cls-12" d="M379.24,685.79c.74-8,23.37-40.41,19-51s-9.6-3.76-49.87-3.76-29.63-28.58-25.46-37.14c0,0,58.44,2.09,87.51,31.16,12.5,12.5-19.87,53.75-25.19,61.78a14.87,14.87,0,0,1-1.81,2.22h0S379.07,687.58,379.24,685.79Z"/><path class="cls-8" d="M474.1,367.81c6.23-3.18,13.14-1.86,19.66-.15,7.25,1.89,15.16,4.09,21.66-.72,5.13-3.8,8.23-11.17,12.27-16.95s10.58-10.14,15.55-6c5.73,4.79,5.59,17.61,11.37,22.26,4,3.18,9,1.09,13-2,5.84-4.61,11.38-11.05,18.5-7.73,6.11,2.84,9.39,10.61,9.72,19.14,0,.6,0,1.17,0,1.73H465.81A19,19,0,0,1,474.1,367.81Z"/><path class="cls-8" d="M122,361.88l50.68-29.2c14.15-8.15,31.84-15.65,43.52-1.79,7.25,8.62,12,25,21.5,23.87C251,353.1,259.81,311,275.05,338.87c5.23,9.57,3.54,20.47-.78,29.58l-161.14.48A29.49,29.49,0,0,1,122,361.88Z"/><path class="cls-8" d="M335.24,262.75l30.53-15.95c8.52-4.46,19.18-8.56,26.21-1,4.37,4.71,7.24,13.68,12.95,13,8-.9,13.35-23.9,22.52-8.68,3.15,5.22,2.13,11.18-.48,16.16l-97.05.29A17.64,17.64,0,0,1,335.24,262.75Z"/><path class="cls-11" d="M386.67,669.24l10.57,8.26q-6.14,8.24-12.5,16.25c-1.43,1.8-3.23,3.76-5.18,3.49-2.48-.34-4.44-4.33-3-7C379.91,683.87,383.29,676.71,386.67,669.24Z"/><path class="cls-17" d="M354.19,580.27c-4.87-.69-9.78-1-14.32.89-6.45,2.67-14.33,7.28-17,12.68C318.73,602.4,308.09,631,348.36,631s45.49-6.88,49.87,3.76-19,43.06-19,51c0,2.19,6.05,4.86,9.6,2.57s48.82-51.54,40.68-73.86S372.41,587,370.41,586C368.61,585.1,359.41,581,354.19,580.27Z"/><path class="cls-18" d="M382.24,702h25.94c2.82,0,3.76-1.27,3.82-2,.15-1.89-.31-5.56-2-6a64.7,64.7,0,0,0-9-1c-4.95-.06-4-1-6-4a7.46,7.46,0,0,0-2-2c-2-1-2.3.37-3,1a16.7,16.7,0,0,1-4,3c-1.52.76-5.38,1-7,1-1.36,0-3.26-2.32-4.57-1.57-1.15.67-1.46,2.41-1.75,3.65-.5,2.14-1,4.3-1.44,6.45A10.1,10.1,0,0,0,371,702h11.24Z"/><path class="cls-19" d="M354.14,634.24c4.6,4.61,4.56,22.75-15.57,18.89C302.59,646.23,241,641.7,238,616c-5-43,12.9-33.94,27.91-30.76C303.73,593.26,341.87,622,354.14,634.24Z"/><path class="cls-19" d="M336.41,636.47c10.36-11.66,26.14-1.7,20.63,13.29-6.67,18.11-16,35.7-25.35,52.55Q328,709,324.1,715.56l-13.35-6.11C318.89,681.07,325.83,648.38,336.41,636.47Z"/><path class="cls-11" d="M310.75,709.45l13.35,6.11q-5,8.37-10.2,16.57C312.72,734,311.17,736,309,736c-2.8,0-5.8-3.35-4.83-6C306.48,723.76,308.65,716.74,310.75,709.45Z"/><path class="cls-18" d="M299.62,741.61a4.13,4.13,0,0,1-2.23-4.93c1.24-4.07,2.75-9.6,4.68-8.78,1.63.69,3.25,2.89,4.27,4.17.72.91,9.61-1.69,10.62-2a.31.31,0,0,1,.19,0c7.71,3.19,1.25,12.88,12.39,19.36a5,5,0,0,1,2.5,3.41,3.25,3.25,0,0,1-1.94,3.7.32.32,0,0,1-.14,0C313,756.57,306.65,745,299.62,741.61Z"/><path class="cls-4" d="M341.76,520.94c-2.47,5-4.57,8.94-5.78,10.31-4.17,4.73-28.93,51.46-27.54,56.19s10.29,5.29,14.19,4.73,15.85-8.9,22.53-9.46,19.27-.11,24.28,3,1.31-18,4.1-25.77c1.39-3.89,6.26-9.94,11.16-16.59l-5.24-1a67.66,67.66,0,0,1-37.7-21.37Z"/><path class="cls-5" d="M334.13,533.88c-7.06,11.12-26.94,49.31-25.69,53.56,1.39,4.73,10.29,5.29,14.19,4.73s15.85-8.9,22.53-9.46,19.27-.11,24.28,3,1.31-18,4.1-25.77c.8-2.26,2.78-5.24,5.25-8.64l-5.94-.7a73.7,73.7,0,0,1-38.72-16.68Z"/><path class="cls-6" d="M328,544.48c-3.67,6.66-7.93,14.83-11.54,22.27-4.87,10.06-9,18.34-8.44,20.25,1.39,4.73,6.37,6,15,6,3.93,0,16.5-5.38,23-7,8-2,18.43-3.4,23.44-.33s1.31-18,4.1-25.77l-4.18.31A52.38,52.38,0,0,1,328,544.48Z"/><path class="cls-19" d="M306.75,577c-3,37.62-20.83,40.07-28.66,39.85-7.17-.2-59.43,8.16-33.45-39.85Z"/><path class="cls-8" d="M266.79,554.13c9.92-15.32,6.16-36.24,16-51.57,6.72-10.46,23.61-19.55,31.78-10.06,6.53,7.58,11.16,22,10.55,31.77-.29,4.65-6.09,10.07-8.59,13.5-5.1,7-7.83,11.46-9.43,18.35-1.39,6,.9,20.88-1.1,27.88H241c1.1-.91,0-2,3-7C249.12,568.47,265,556.93,266.79,554.13Z"/><path class="cls-3" d="M317.08,476.25A32,32,0,0,0,314.65,490c.08,1.37.18,3-.94,4.15s-2.71,1.26-4.11,1.31a21.25,21.25,0,0,1-6.82-.51,5.36,5.36,0,0,1-4-4.35c-.18-1.8.69-3.76,1.53-5.61q2.43-5.34,4.85-10.67a8,8,0,0,1,1.9-2.93,4.57,4.57,0,0,1,5.15-.51,8.64,8.64,0,0,1,3,3.71Z"/><path class="cls-18" d="M249.55,480.54c.84-1.86,0-4.2,1-6s3.73-2.28,5.82-1.65,3.89,2,5.93,2.77,4.64.86,6.11-.76c1-1.12,1.2-2.74,1.64-4.19s1.44-3,2.95-3.07a8.53,8.53,0,0,1,2.78.82c2.39.69,4.95-.79,6.45-2.79s2.22-4.43,3.27-6.7a10.87,10.87,0,0,1,1.82-2.8,12.69,12.69,0,0,1,.25-3.41,11.73,11.73,0,0,1,8.39-8.67c2.7-.68,5.78-.43,8-2.1,1.7-1.27,2.52-3.37,3.76-5.09a11.73,11.73,0,0,1,20.38,2.5,11.67,11.67,0,0,1,.7,5.91,14.94,14.94,0,0,1-3.14,7.38c-2.25,2.58-4.06,5.07-4.41,8.6s-13.92,7.33-14.95,10.82c-2.05,7-2.34,10.14-5.52,14.86a13.54,13.54,0,0,1-5.55,4.9,8.89,8.89,0,0,1-8.84-.72,4.27,4.27,0,0,0-1.93-1.12c-1-.13-1.89.67-2.7,1.31a10.61,10.61,0,0,1-10.65,1.26,19.94,19.94,0,0,1-5.59-4.31,23.79,23.79,0,0,0-5.48-4.49,7.61,7.61,0,0,0-6.83-.4c-1,.53-1.9,1.38-3,1.82a4.47,4.47,0,0,1-5.77-3.08A3.73,3.73,0,0,0,249.55,480.54Z"/><path class="cls-11" d="M325.35,474.78a21.59,21.59,0,0,0,1.72-7.59,39,39,0,0,0,.09-10.73c-.61-3.54-2.3-7-5.26-9.06-3.58-2.45-8.39-2.36-12.5-1-3.56,1.21-7,3.52-8.39,7a18.58,18.58,0,0,0-1,6,22.28,22.28,0,0,0,.56,7.9,14.53,14.53,0,0,0,5.23,6.93,34.3,34.3,0,0,0,7.77,4.14,15.55,15.55,0,0,0,4.88,1.38C321.86,480,324,477.59,325.35,474.78Z"/><path class="cls-20" d="M310.79,452.77c-1.51,3.41-.93,7.7-3.3,10.57a6.5,6.5,0,0,1-8.21,1.31,7.43,7.43,0,0,1-3.23-5.84,10.83,10.83,0,0,1,2-6.51,20.51,20.51,0,0,1,4.86-4.89,24.69,24.69,0,0,1,9.51-4.61,16,16,0,0,1,6.72,0c1.66.37,4.88,1.28,5.33,3.25s-1.27,2.3-2.65,1.91a9,9,0,0,0-6.08.1A9.13,9.13,0,0,0,310.79,452.77Z"/><path class="cls-11" d="M302.5,462.59a5.49,5.49,0,0,0-2-.4,2.54,2.54,0,0,0-1.86.84,3,3,0,0,0-.37,2.69,4.39,4.39,0,0,0,5.06,3.47c1.84-.36,2.55-2,2.21-3.79C305.21,463.88,303.85,463.07,302.5,462.59Z"/><path class="cls-8" d="M286.83,513.34c0-6.33,1.56-12.84,5.44-17.85,1-1.23,2.29-2.45,3.83-2.28s2.46,1.49,3.22,2.75c4.93,8.24,6.48,18,7.66,27.54l-18.76,2.61A65.51,65.51,0,0,1,286.83,513.34Z"/><path class="cls-11" d="M289.46,532.11c-.43-2-.85-4-1.24-6L307,523.5l.33,2.74q1.69,14.38,3.4,28.77c.42,3.6,1.75,7.68-.65,10.83a7.36,7.36,0,0,1-7.64,2.79,9.58,9.58,0,0,1-5.48-5,28.56,28.56,0,0,1-2.24-7.22Q292.08,544.28,289.46,532.11Z"/><path class="cls-11" d="M349.3,582.42c1.93,1.07,6.45,3.69,5.47,5.67-.76,1.54-5.33.9-7,.38-11.32-3.64-46.72-20.1-48.71-22-3.28-3.18-.73-14.23,5.7-13.59S331.71,572.69,349.3,582.42Z"/><path class="cls-11" d="M368.29,588.43c1.36,2.75.89,6.48-1.52,8.38a5.86,5.86,0,0,1-5.95.7c-1.42-.66-2.56-1.89-4.07-2.31-.76-.22-1.57-.22-2.34-.41a9.56,9.56,0,0,1-4.09-2.7c-1.85-1.74-3.53-3.69-3-6.41a3.31,3.31,0,0,1,2.67-2.8,20.44,20.44,0,0,1,5.3-.15c2.55.06,5.05,0,7.47,1A10.14,10.14,0,0,1,368.29,588.43Z"/><path class="cls-16" d="M412,575c-40,5-78,4-65-44"/><path class="cls-8" d="M383,480.37c-8.63,0-41.18,27.51-37.28,68.13s75.68,33.5,93.75,17.8c2.85-2.47-6.11-12.8-6.11-12.8S358.68,567,383,523.46,383,480.37,383,480.37Z"/><path class="cls-4" d="M399,579c16.54-1.1,33.28-6.15,40.47-12.6,2.85-2.56-6.11-13.23-6.11-13.23a139.6,139.6,0,0,1-26.37,2h0a44.13,44.13,0,0,1-5.16,20.77A8.27,8.27,0,0,1,399,579Z"/><path class="cls-5" d="M410.5,577.77c12.43-2.1,23.32-6.3,29-11.37,2.85-2.56-6.11-13.23-6.11-13.23a143.05,143.05,0,0,1-19.85,2h0A25.16,25.16,0,0,1,412,574.93Z"/><path class="cls-6" d="M420.47,575.55c8.13-2.29,14.93-5.5,19-9.15,2.49-2.25-4.08-10.72-5.74-12.78a1,1,0,0,0-.94-.35c-1.65.28-6.73,1.1-13.19,1.58h0a20.35,20.35,0,0,1,1.88,18Z"/><path class="cls-21" d="M422.35,475.45l-18.77-12.28,4.83-15.06,15.17,4.73a1.56,1.56,0,0,1,1.08,1.71,6.55,6.55,0,0,1-.19.87,1.05,1.05,0,0,1-1.29.73l-7.33-2s-3.5-1.14-5.55-.37a.59.59,0,0,0-.38.48l-.34,2.69c0,.35-.07.7-.09,1.06l-.06,1.46v.27a8.46,8.46,0,0,0,.36,2.34h0l10.58,7.32,1.5,1.12a2.12,2.12,0,0,1,.82,1.91Z"/><path class="cls-8" d="M408.56,463.8a1.9,1.9,0,0,1-.62-.73c-.48-1-1.14-3.73.14-10.11h0s1.34-2.61,7.4-1.08l9.2,2.46s2.1-17.92-17.87-25.26a17.08,17.08,0,0,0-1.94-.51,26.13,26.13,0,0,0-30.53,18.5,33.6,33.6,0,0,0-1.1,12.81h0s30.25,14.89,42,27.58h0s6.64-5,9.4-12h0l-.59-.6a18.88,18.88,0,0,0-2.7-2.27Z"/><path class="cls-21" d="M415.21,487.47l-.85.47a1.69,1.69,0,0,1-1.72-.24l-11.43-8.29q-7.14-5.18-14.74-9.68l-12.91-7.65a1.48,1.48,0,0,1-.32-2.19l26.39,2.84Z"/><circle class="cls-21" cx="401.09" cy="447.24" r="3.63"/><circle class="cls-21" cx="400.5" cy="454.84" r="0.95"/><path class="cls-4" d="M423.56,474.43h0a12.66,12.66,0,0,0-1.59-1.32l-13.7-9.48-31.7-22a26.56,26.56,0,0,0-2.24,5.49,33.8,33.8,0,0,0-1.1,12.81h0s30.25,14.9,42,27.58h0s6.66-5,9.41-12Z"/><path class="cls-5" d="M375.41,444a25.9,25.9,0,0,0-1.08,3.07,33.8,33.8,0,0,0-1.1,12.81h0s30.25,14.9,42,27.58h0a34.2,34.2,0,0,0,8.13-9.32Z"/><path class="cls-6" d="M374.33,447.09a35.32,35.32,0,0,0-1.11,5.75,33.32,33.32,0,0,0,0,7.06h0s30.25,14.9,42,27.58h0a35.35,35.35,0,0,0,6.27-6.46Z"/><path class="cls-22" d="M423.51,473.28l.14-.37a9.9,9.9,0,0,0,.58-2.4c.47-4.06,1.95-16.83,2-17.17a2.35,2.35,0,0,0-.25-.82.88.88,0,0,0-.46-.43l-22.31-8.5a5.39,5.39,0,0,0-3.39-.16c-1.36.41-2.78,1.45-2.79,4.08a7.45,7.45,0,0,0,.07.95l.82,6.26a7.39,7.39,0,0,0,3.1,5.13l.18.12,21.11,14.19.16.12a.45.45,0,0,0,.69-.16Z"/><path class="cls-21" d="M335.92,471.7l-20.75-8.51,1.9-15.69,15.78,1.77a1.55,1.55,0,0,1,1.39,1.47,6.79,6.79,0,0,1,0,.89,1.06,1.06,0,0,1-1.13,1l-7.57-.57s-3.66-.45-5.53.7a.57.57,0,0,0-.27.53l.17,2.71A9.55,9.55,0,0,0,320,457l.21,1.45,0,.26a8,8,0,0,0,.8,2.23h0l11.77,5.18c.32.14,1,.49,1.68.82a2.1,2.1,0,0,1,1.17,1.72Z"/><path class="cls-8" d="M320.18,462.87a1.81,1.81,0,0,1-.74-.6c-.66-.91-1.83-3.45-1.78-9.95h0s.82-2.81,7.06-2.47l9.5.68s-1.34-18-22.33-21.42a16.89,16.89,0,0,0-2-.13,26.13,26.13,0,0,0-26.48,23.94,33.68,33.68,0,0,0,1.35,12.79h0s32.52,8.9,46.44,19.13h0s5.57-6.18,7-13.52h0l-.69-.48a19.31,19.31,0,0,0-3.08-1.71Z"/><path class="cls-21" d="M331.2,484.86l-.75.61a1.68,1.68,0,0,1-1.73.1l-12.8-6q-8-3.73-16.3-6.71l-14.13-5.07a1.48,1.48,0,0,1-.73-2.09l26.46-2.21Z"/><circle class="cls-21" cx="309.71" cy="448.02" r="3.63"/><circle class="cls-21" cx="310.57" cy="455.6" r="0.95"/><path class="cls-4" d="M336.92,470.47h0a12.09,12.09,0,0,0-1.8-1l-15.25-6.72-35.3-15.63a26.6,26.6,0,0,0-1.16,5.81,33.86,33.86,0,0,0,1.34,12.79h0s32.53,8.9,46.44,19.14h0s5.58-6.2,7-13.54Z"/><path class="cls-5" d="M283.88,449.73a26.12,26.12,0,0,0-.47,3.21,33.86,33.86,0,0,0,1.34,12.79h0s32.53,8.9,46.44,19.14h0a34.3,34.3,0,0,0,6.22-10.69Z"/><path class="cls-6" d="M283.41,452.94a33.87,33.87,0,0,0,1.34,12.79h0s32.53,8.9,46.44,19.14h0a35.39,35.39,0,0,0,4.93-7.54Z"/><path class="cls-23" d="M336.66,469.35l.06-.39a9.28,9.28,0,0,0,.12-2.47c-.31-4.07-1.27-16.9-1.33-17.23a2.24,2.24,0,0,0-.4-.76.88.88,0,0,0-.53-.33l-23.52-4.12a5.25,5.25,0,0,0-3.35.49c-1.26.65-2.47,1.94-2,4.53a7.32,7.32,0,0,0,.24.92l2,6a7.39,7.39,0,0,0,4,4.45l.2.09,23.42,9.92.18.1a.45.45,0,0,0,.64-.29Z"/><text class="cls-24" transform="translate(72.82 113.15)">DUURZAAM RIJDEN</text><path class="cls-7" d="M74.69,137.16h6a13.23,13.23,0,0,1,3.33.43,8.63,8.63,0,0,1,3,1.43,7.47,7.47,0,0,1,2.18,2.61,8.67,8.67,0,0,1,.84,4,8.18,8.18,0,0,1-.84,3.84,7.77,7.77,0,0,1-2.18,2.64,9.21,9.21,0,0,1-3,1.53,11.73,11.73,0,0,1-3.33.49h-6Zm5.55,14.35a10,10,0,0,0,2.35-.28,6,6,0,0,0,2.12-.93,5,5,0,0,0,1.55-1.79,6,6,0,0,0,.6-2.86,6.43,6.43,0,0,0-.6-3,4.82,4.82,0,0,0-1.55-1.8,5.8,5.8,0,0,0-2.12-.89,11.79,11.79,0,0,0-2.35-.24H77.72v11.76Z"/><path class="cls-7" d="M100.28,152.69h-.08A3.19,3.19,0,0,1,98.81,154a4.82,4.82,0,0,1-2.18.49,6.19,6.19,0,0,1-1.45-.18,4.36,4.36,0,0,1-1.4-.6,3.49,3.49,0,0,1-1-1.11,3.16,3.16,0,0,1-.42-1.69A2.85,2.85,0,0,1,93,148.8a4.79,4.79,0,0,1,1.88-1.18,10.83,10.83,0,0,1,2.56-.54c.94-.09,1.85-.13,2.75-.13v-.29a1.76,1.76,0,0,0-.78-1.59,3.25,3.25,0,0,0-1.86-.52,4.24,4.24,0,0,0-1.75.38,4.83,4.83,0,0,0-1.4.94L93,144.12a6.38,6.38,0,0,1,2.26-1.37,7.89,7.89,0,0,1,2.61-.46,6.34,6.34,0,0,1,2.53.44,4.06,4.06,0,0,1,1.57,1.12,4.16,4.16,0,0,1,.81,1.56,6.9,6.9,0,0,1,.22,1.73v7h-2.68Zm0-3.8h-.65c-.46,0-1,0-1.46.06a6.07,6.07,0,0,0-1.42.27,3.08,3.08,0,0,0-1.08.57,1.27,1.27,0,0,0-.43,1,1.24,1.24,0,0,0,.18.69,1.33,1.33,0,0,0,.47.44,2.12,2.12,0,0,0,.64.24,3.51,3.51,0,0,0,.72.07,2.72,2.72,0,0,0,3-2.95Z"/><path class="cls-7" d="M106.56,142.63h2.74v1.85h0a3.68,3.68,0,0,1,1.33-1.53,3.82,3.82,0,0,1,2.24-.66,4.41,4.41,0,0,1,1.94.4,3.89,3.89,0,0,1,1.32,1,4.36,4.36,0,0,1,.75,1.49,6.28,6.28,0,0,1,.24,1.73v7.2h-2.88v-6.38a7.86,7.86,0,0,0-.07-1.06,2.93,2.93,0,0,0-.31-1,2.1,2.1,0,0,0-.66-.73,2,2,0,0,0-1.12-.29,2.53,2.53,0,0,0-1.2.28,2.59,2.59,0,0,0-.83.71,3.27,3.27,0,0,0-.49,1,4.09,4.09,0,0,0-.17,1.14v6.34h-2.88Z"/><path class="cls-7" d="M120.82,136h2.88v11.47h.07l4.37-4.85h3.69l-5,5.21,5.31,6.31h-3.82l-4.56-5.9h-.07v5.9h-2.88Z"/><path class="cls-7" d="M133.13,151.61l6.22-6.68h-5.93v-2.3h9.36v2.54l-6.24,6.63h6.53v2.35h-9.94Z"/><path class="cls-7" d="M145.49,138.72a1.62,1.62,0,0,1,.52-1.21,1.75,1.75,0,0,1,1.31-.52,1.9,1.9,0,0,1,1.33.49,1.61,1.61,0,0,1,.54,1.24,1.59,1.59,0,0,1-.54,1.23,1.91,1.91,0,0,1-1.33.5,1.79,1.79,0,0,1-1.31-.52A1.64,1.64,0,0,1,145.49,138.72Zm.41,3.91h2.88v11.52H145.9Z"/><path class="cls-7" d="M155.45,142.63v12.22a11.06,11.06,0,0,1-.17,2,4.12,4.12,0,0,1-.63,1.61,3.38,3.38,0,0,1-1.27,1.09,4.72,4.72,0,0,1-2.11.41,5.94,5.94,0,0,1-.72,0l-.57-.09.24-2.45.41.07a2.62,2.62,0,0,0,.38,0,1.53,1.53,0,0,0,.82-.19,1.37,1.37,0,0,0,.48-.53,2.23,2.23,0,0,0,.21-.78,9.2,9.2,0,0,0,0-.94V142.63Zm-3.29-3.91a1.62,1.62,0,0,1,.52-1.21A1.75,1.75,0,0,1,154,137a1.9,1.9,0,0,1,1.33.49,1.61,1.61,0,0,1,.54,1.24,1.59,1.59,0,0,1-.54,1.23,1.91,1.91,0,0,1-1.33.5,1.79,1.79,0,0,1-1.31-.52A1.64,1.64,0,0,1,152.16,138.72Z"/><path class="cls-7" d="M165.58,137.16h11.25v2.64H168.6v4.32h7.8v2.54h-7.8v4.8h8.67v2.69H165.58Z"/><path class="cls-7" d="M180.31,142.63h2.76v1.92h.05a4.15,4.15,0,0,1,1.35-1.63,3.3,3.3,0,0,1,2-.63l.36,0a.9.9,0,0,1,.34.06V145a4.75,4.75,0,0,0-.49-.1,2.75,2.75,0,0,0-.4,0,3,3,0,0,0-1.58.36,2.8,2.8,0,0,0-.94.86,3.24,3.24,0,0,0-.46,1,4,4,0,0,0-.12.84v6.17h-2.88Z"/><path class="cls-7" d="M189.34,136h2.88v11.47h.07l4.37-4.85h3.69l-5,5.21,5.31,6.31h-3.82l-4.56-5.9h-.07v5.9h-2.88Z"/><path class="cls-7" d="M213.12,148.53v.39c0,.13,0,.25,0,.38h-8.76a2.84,2.84,0,0,0,.32,1.14,3,3,0,0,0,.73.89,3.79,3.79,0,0,0,1,.59,3.44,3.44,0,0,0,1.2.21,3.89,3.89,0,0,0,1.82-.39,3.46,3.46,0,0,0,1.22-1.09l1.92,1.53a5.75,5.75,0,0,1-4.94,2.31,7.23,7.23,0,0,1-2.47-.42,5.89,5.89,0,0,1-2-1.19,5.29,5.29,0,0,1-1.29-1.89,6.31,6.31,0,0,1-.47-2.53,6.44,6.44,0,0,1,.47-2.53,5.71,5.71,0,0,1,1.28-1.94,5.59,5.59,0,0,1,1.93-1.25,6.42,6.42,0,0,1,2.41-.45,6.17,6.17,0,0,1,2.22.4,4.83,4.83,0,0,1,1.77,1.18,5.48,5.48,0,0,1,1.16,1.94A8,8,0,0,1,213.12,148.53Zm-2.88-1.29a3.72,3.72,0,0,0-.15-1.06,2.53,2.53,0,0,0-.5-.89,2.35,2.35,0,0,0-.85-.61,3,3,0,0,0-1.21-.23,3.25,3.25,0,0,0-2.2.78,2.83,2.83,0,0,0-1,2Z"/><path class="cls-7" d="M219.07,136v8.08h.08a4.29,4.29,0,0,1,1.35-1.17,5,5,0,0,1,1.09-.45,5.15,5.15,0,0,1,1.42-.18,5.44,5.44,0,0,1,2.26.47,5.29,5.29,0,0,1,1.77,1.29,5.62,5.62,0,0,1,1.15,1.92,6.56,6.56,0,0,1,.41,2.37,7.17,7.17,0,0,1-.39,2.39,5.93,5.93,0,0,1-1.13,1.94A5.21,5.21,0,0,1,225.3,154a5.42,5.42,0,0,1-2.36.5,5.1,5.1,0,0,1-2.29-.53,3.89,3.89,0,0,1-1.67-1.54h0v1.73h-2.74V136Zm6.6,12.33a4.34,4.34,0,0,0-.2-1.33,3.83,3.83,0,0,0-.61-1.19,3.17,3.17,0,0,0-1-.85,3.12,3.12,0,0,0-1.47-.32A2.94,2.94,0,0,0,221,145a3.5,3.5,0,0,0-1.07.87,3.54,3.54,0,0,0-.67,1.2,3.9,3.9,0,0,0-.23,1.34,3.84,3.84,0,0,0,.23,1.33,3.59,3.59,0,0,0,.67,1.19,3.3,3.3,0,0,0,1.07.85,2.93,2.93,0,0,0,1.41.32,3.12,3.12,0,0,0,1.47-.33,3.2,3.2,0,0,0,1-.86,4,4,0,0,0,.61-1.2A4.51,4.51,0,0,0,225.67,148.34Z"/><path class="cls-7" d="M237,151.61l6.22-6.68h-5.93v-2.3h9.36v2.54l-6.24,6.63h6.53v2.35H237Z"/><path class="cls-7" d="M260.19,154.15h-2.74V152.3h-.05a3.68,3.68,0,0,1-1.33,1.53,3.82,3.82,0,0,1-2.24.66,4.41,4.41,0,0,1-1.94-.4,3.89,3.89,0,0,1-1.32-1,4.36,4.36,0,0,1-.75-1.49,6.28,6.28,0,0,1-.24-1.73v-7.2h2.88V149a7.86,7.86,0,0,0,.07,1.06,2.93,2.93,0,0,0,.31,1,2.1,2.1,0,0,0,.66.73,2,2,0,0,0,1.12.28,2.45,2.45,0,0,0,2-1,3.27,3.27,0,0,0,.49-1,4.09,4.09,0,0,0,.17-1.14v-6.34h2.88Z"/><path class="cls-7" d="M263.93,136h2.88v18.14h-2.88Z"/><path class="cls-7" d="M270.6,136h2.88v18.14H270.6Z"/><path class="cls-7" d="M288.22,148.53v.39a2.43,2.43,0,0,1,0,.38h-8.76a2.7,2.7,0,0,0,.33,1.14,2.86,2.86,0,0,0,.73.89,3.73,3.73,0,0,0,1,.59,3.48,3.48,0,0,0,1.2.21,3.86,3.86,0,0,0,1.82-.39,3.49,3.49,0,0,0,1.23-1.09l1.92,1.53a5.76,5.76,0,0,1-4.94,2.31,7.33,7.33,0,0,1-2.48-.42,5.84,5.84,0,0,1-1.95-1.19A5.32,5.32,0,0,1,277,151a6.48,6.48,0,0,1-.47-2.53,6.63,6.63,0,0,1,.47-2.53,5.59,5.59,0,0,1,1.29-1.94,5.5,5.5,0,0,1,1.93-1.25,6.38,6.38,0,0,1,2.41-.45,6.17,6.17,0,0,1,2.22.4,4.71,4.71,0,0,1,1.76,1.18,5.36,5.36,0,0,1,1.17,1.94A8,8,0,0,1,288.22,148.53Zm-2.88-1.29a3.4,3.4,0,0,0-.16-1.06,2.5,2.5,0,0,0-.49-.89,2.54,2.54,0,0,0-.85-.61,3.05,3.05,0,0,0-1.22-.23,3.23,3.23,0,0,0-2.19.78,2.88,2.88,0,0,0-1,2Z"/><path class="cls-7" d="M291.24,142.63H294v1.85h0a3.61,3.61,0,0,1,1.33-1.53,3.82,3.82,0,0,1,2.24-.66,4.37,4.37,0,0,1,1.93.4,3.7,3.7,0,0,1,1.32,1,4.21,4.21,0,0,1,.76,1.49,6.28,6.28,0,0,1,.24,1.73v7.2H299v-6.38a7.86,7.86,0,0,0-.07-1.06,2.73,2.73,0,0,0-.32-1,2,2,0,0,0-.66-.73,1.94,1.94,0,0,0-1.11-.29,2.45,2.45,0,0,0-2,1,3.06,3.06,0,0,0-.49,1,4.09,4.09,0,0,0-.17,1.14v6.34h-2.88Z"/><path class="cls-7" d="M318.84,152.69h-.07a3.24,3.24,0,0,1-1.39,1.26,4.83,4.83,0,0,1-2.19.49,6.32,6.32,0,0,1-1.45-.18,4.31,4.31,0,0,1-1.39-.6,3.42,3.42,0,0,1-1.06-1.11,3.16,3.16,0,0,1-.42-1.69,2.89,2.89,0,0,1,.73-2.06,4.76,4.76,0,0,1,1.89-1.18,10.85,10.85,0,0,1,2.55-.54c.94-.09,1.86-.13,2.75-.13v-.29a1.76,1.76,0,0,0-.78-1.59,3.25,3.25,0,0,0-1.86-.52,4.24,4.24,0,0,0-1.75.38,4.78,4.78,0,0,0-1.39.94l-1.49-1.75a6.42,6.42,0,0,1,2.27-1.37,7.79,7.79,0,0,1,2.6-.46,6.31,6.31,0,0,1,2.53.44,4.1,4.1,0,0,1,1.58,1.12,4.14,4.14,0,0,1,.8,1.56,6.92,6.92,0,0,1,.23,1.73v7h-2.69Zm0-3.8h-.65c-.46,0-.95,0-1.46.06a6.27,6.27,0,0,0-1.42.27,3.08,3.08,0,0,0-1.08.57,1.31,1.31,0,0,0-.43,1,1.24,1.24,0,0,0,.18.69,1.41,1.41,0,0,0,.47.44,2.19,2.19,0,0,0,.65.24,3.51,3.51,0,0,0,.72.07,3,3,0,0,0,2.25-.79,3,3,0,0,0,.77-2.16Z"/><path class="cls-7" d="M325.18,136h2.88v18.14h-2.88Z"/><path class="cls-7" d="M341,142.63v12.22a11.06,11.06,0,0,1-.17,2,4,4,0,0,1-.64,1.61,3.23,3.23,0,0,1-1.27,1.09,4.64,4.64,0,0,1-2.1.41,5.81,5.81,0,0,1-.72,0l-.57-.09.24-2.45.4.07a2.82,2.82,0,0,0,.39,0,1.5,1.5,0,0,0,.81-.19,1.23,1.23,0,0,0,.48-.53,2,2,0,0,0,.22-.78,9.2,9.2,0,0,0,0-.94V142.63Zm-3.29-3.91a1.62,1.62,0,0,1,.52-1.21,1.74,1.74,0,0,1,1.3-.52,1.91,1.91,0,0,1,1.34.49,1.61,1.61,0,0,1,.54,1.24,1.59,1.59,0,0,1-.54,1.23,1.92,1.92,0,0,1-1.34.5,1.78,1.78,0,0,1-1.3-.52A1.64,1.64,0,0,1,337.68,138.72Z"/><path class="cls-7" d="M355.7,148.53v.39a2.42,2.42,0,0,1,0,.38h-8.76a2.84,2.84,0,0,0,.32,1.14,2.89,2.89,0,0,0,.74.89,3.59,3.59,0,0,0,1,.59,3.44,3.44,0,0,0,1.2.21,3.86,3.86,0,0,0,1.82-.39,3.49,3.49,0,0,0,1.23-1.09l1.92,1.53a5.78,5.78,0,0,1-4.95,2.31,7.23,7.23,0,0,1-2.47-.42,6,6,0,0,1-2-1.19,5.29,5.29,0,0,1-1.29-1.89,6.48,6.48,0,0,1-.47-2.53,6.63,6.63,0,0,1,.47-2.53,5.71,5.71,0,0,1,1.28-1.94,5.59,5.59,0,0,1,1.93-1.25,6.43,6.43,0,0,1,2.42-.45,6.17,6.17,0,0,1,2.22.4,4.79,4.79,0,0,1,1.76,1.18,5.34,5.34,0,0,1,1.16,1.94A8,8,0,0,1,355.7,148.53Zm-2.88-1.29a3.72,3.72,0,0,0-.15-1.06,2.67,2.67,0,0,0-.49-.89,2.48,2.48,0,0,0-.86-.61,3,3,0,0,0-1.21-.23,3.23,3.23,0,0,0-2.19.78,2.84,2.84,0,0,0-1,2Z"/><path class="cls-7" d="M363.24,142.63h3.14l3,8.4h0l3-8.4h3.05L371,154.15H367.9Z"/><path class="cls-7" d="M388.51,148.53v.39c0,.13,0,.25,0,.38h-8.76a2.84,2.84,0,0,0,.32,1.14,3,3,0,0,0,.73.89,3.79,3.79,0,0,0,1,.59,3.44,3.44,0,0,0,1.2.21,3.89,3.89,0,0,0,1.82-.39,3.55,3.55,0,0,0,1.22-1.09l1.92,1.53a5.75,5.75,0,0,1-4.94,2.31,7.23,7.23,0,0,1-2.47-.42,5.89,5.89,0,0,1-2-1.19,5.29,5.29,0,0,1-1.29-1.89,6.31,6.31,0,0,1-.47-2.53,6.44,6.44,0,0,1,.47-2.53,5.64,5.64,0,0,1,3.21-3.19,6.42,6.42,0,0,1,2.41-.45,6.17,6.17,0,0,1,2.22.4,4.83,4.83,0,0,1,1.77,1.18,5.48,5.48,0,0,1,1.16,1.94A8,8,0,0,1,388.51,148.53Zm-2.88-1.29a3.72,3.72,0,0,0-.15-1.06,2.53,2.53,0,0,0-.5-.89,2.35,2.35,0,0,0-.85-.61,3,3,0,0,0-1.21-.23,3.25,3.25,0,0,0-2.2.78,2.83,2.83,0,0,0-1,2Z"/><path class="cls-7" d="M391.54,142.63h2.75v1.92h0a4.15,4.15,0,0,1,1.35-1.63,3.3,3.3,0,0,1,2-.63l.36,0a.9.9,0,0,1,.34.06V145a4.75,4.75,0,0,0-.49-.1,2.75,2.75,0,0,0-.4,0,3,3,0,0,0-1.58.36,2.8,2.8,0,0,0-.94.86,3.21,3.21,0,0,0-.45,1,4,4,0,0,0-.12.84v6.17h-2.88Z"/><path class="cls-7" d="M403.27,142.63v1.61h.07a4.24,4.24,0,0,1,.57-.69,3.52,3.52,0,0,1,.85-.62,5.42,5.42,0,0,1,1.14-.46,5.23,5.23,0,0,1,1.43-.18,5.43,5.43,0,0,1,2.25.47,5.32,5.32,0,0,1,1.78,1.29,5.78,5.78,0,0,1,1.15,1.92,6.78,6.78,0,0,1,.41,2.37,6.93,6.93,0,0,1-.4,2.39,5.76,5.76,0,0,1-1.13,1.94,5.08,5.08,0,0,1-1.77,1.32,5.49,5.49,0,0,1-2.37.5A5,5,0,0,1,405,154a3.76,3.76,0,0,1-1.57-1.37h-.05v7.3h-2.88V142.63Zm6.72,5.71a4.66,4.66,0,0,0-.2-1.33,3.65,3.65,0,0,0-.62-1.19,3,3,0,0,0-2.49-1.17,3,3,0,0,0-1.42.33,3.76,3.76,0,0,0-1.74,2.07,4.15,4.15,0,0,0-.23,1.34,4.09,4.09,0,0,0,.23,1.33,3.61,3.61,0,0,0,.68,1.19,3.37,3.37,0,0,0,1.06.85,3,3,0,0,0,1.42.32,3.06,3.06,0,0,0,1.46-.33,3.1,3.1,0,0,0,1-.86,3.81,3.81,0,0,0,.62-1.2A4.85,4.85,0,0,0,410,148.34Z"/><path class="cls-7" d="M416,136h2.88v18.14H416Z"/><path class="cls-7" d="M429.77,152.69h-.08A3.19,3.19,0,0,1,428.3,154a4.82,4.82,0,0,1-2.18.49,6.19,6.19,0,0,1-1.45-.18,4.36,4.36,0,0,1-1.4-.6,3.49,3.49,0,0,1-1-1.11,3.16,3.16,0,0,1-.42-1.69,2.85,2.85,0,0,1,.73-2.06,4.79,4.79,0,0,1,1.88-1.18,10.83,10.83,0,0,1,2.56-.54c.94-.09,1.85-.13,2.75-.13v-.29a1.76,1.76,0,0,0-.78-1.59,3.25,3.25,0,0,0-1.86-.52,4.24,4.24,0,0,0-1.75.38,4.83,4.83,0,0,0-1.4.94l-1.48-1.75a6.38,6.38,0,0,1,2.26-1.37,7.89,7.89,0,0,1,2.61-.46,6.34,6.34,0,0,1,2.53.44,4.06,4.06,0,0,1,1.57,1.12,4.16,4.16,0,0,1,.81,1.56,6.9,6.9,0,0,1,.22,1.73v7h-2.68Zm0-3.8h-.65c-.46,0-.95,0-1.46.06a6.07,6.07,0,0,0-1.42.27,3.08,3.08,0,0,0-1.08.57,1.27,1.27,0,0,0-.43,1,1.24,1.24,0,0,0,.18.69,1.33,1.33,0,0,0,.47.44,2.12,2.12,0,0,0,.64.24,3.51,3.51,0,0,0,.72.07,2.72,2.72,0,0,0,3-2.95Z"/><path class="cls-7" d="M443.21,152.69h-.08a3.19,3.19,0,0,1-1.39,1.26,4.82,4.82,0,0,1-2.18.49,6.19,6.19,0,0,1-1.45-.18,4.36,4.36,0,0,1-1.4-.6,3.49,3.49,0,0,1-1-1.11,3.16,3.16,0,0,1-.42-1.69,2.85,2.85,0,0,1,.73-2.06,4.79,4.79,0,0,1,1.88-1.18,10.83,10.83,0,0,1,2.56-.54c.94-.09,1.85-.13,2.75-.13v-.29a1.76,1.76,0,0,0-.78-1.59,3.25,3.25,0,0,0-1.86-.52,4.24,4.24,0,0,0-1.75.38,4.83,4.83,0,0,0-1.4.94l-1.48-1.75a6.38,6.38,0,0,1,2.26-1.37,7.89,7.89,0,0,1,2.61-.46,6.34,6.34,0,0,1,2.53.44,4.06,4.06,0,0,1,1.57,1.12,4.16,4.16,0,0,1,.81,1.56,6.9,6.9,0,0,1,.22,1.73v7h-2.68Zm0-3.8h-.65c-.46,0-.95,0-1.46.06a6.07,6.07,0,0,0-1.42.27,3.08,3.08,0,0,0-1.08.57,1.27,1.27,0,0,0-.43,1,1.24,1.24,0,0,0,.18.69,1.33,1.33,0,0,0,.47.44,2.12,2.12,0,0,0,.64.24,3.51,3.51,0,0,0,.72.07,2.72,2.72,0,0,0,3-2.95Z"/><path class="cls-7" d="M447.6,144.93v-2.3h2v-3.34h2.84v3.34h2.88v2.3h-2.88v5.36a2.68,2.68,0,0,0,.27,1.27c.19.33.6.5,1.24.5a3.5,3.5,0,0,0,.62-.06,2.36,2.36,0,0,0,.6-.18l.1,2.26a5.73,5.73,0,0,1-.91.23,7.33,7.33,0,0,1-1,.08,4.69,4.69,0,0,1-1.87-.32,2.93,2.93,0,0,1-1.14-.89,3.27,3.27,0,0,1-.58-1.3,7.8,7.8,0,0,1-.16-1.57v-5.38Z"/><path class="cls-7" d="M464,145.7a3.33,3.33,0,0,0-1.06-.87,3,3,0,0,0-1.46-.38,2.87,2.87,0,0,0-1.28.29,1,1,0,0,0-.57,1,1,1,0,0,0,.63,1,12.35,12.35,0,0,0,1.86.56,10.84,10.84,0,0,1,1.31.39,4.89,4.89,0,0,1,1.2.63,3.34,3.34,0,0,1,.88,1,2.88,2.88,0,0,1,.33,1.43,3.72,3.72,0,0,1-.39,1.78,3.39,3.39,0,0,1-1.06,1.19,4.23,4.23,0,0,1-1.53.66,7.81,7.81,0,0,1-1.82.21,7.16,7.16,0,0,1-2.61-.5,5.39,5.39,0,0,1-2.11-1.4l1.89-1.78a3.89,3.89,0,0,0,1.25,1,3.58,3.58,0,0,0,1.7.4,2.85,2.85,0,0,0,.64-.07,2,2,0,0,0,.6-.23,1.18,1.18,0,0,0,.44-.42,1.09,1.09,0,0,0,.17-.64,1.08,1.08,0,0,0-.66-1,11.52,11.52,0,0,0-2-.62,10.73,10.73,0,0,1-1.26-.37,4,4,0,0,1-1.09-.6,2.78,2.78,0,0,1-.77-.93,2.91,2.91,0,0,1-.29-1.36,3.34,3.34,0,0,1,.4-1.66,3.44,3.44,0,0,1,1-1.14,4.57,4.57,0,0,1,1.47-.66,6.67,6.67,0,0,1,1.68-.22,7,7,0,0,1,2.43.44,4,4,0,0,1,1.89,1.32Z"/><path class="cls-7" d="M468.19,138.72a1.62,1.62,0,0,1,.52-1.21A1.74,1.74,0,0,1,470,137a1.91,1.91,0,0,1,1.34.49,1.61,1.61,0,0,1,.54,1.24,1.59,1.59,0,0,1-.54,1.23,1.92,1.92,0,0,1-1.34.5,1.78,1.78,0,0,1-1.3-.52A1.64,1.64,0,0,1,468.19,138.72Zm.41,3.91h2.88v11.52H468.6Z"/><path class="cls-7" d="M475.22,142.63H478v1.85H478a3.68,3.68,0,0,1,1.33-1.53,3.82,3.82,0,0,1,2.24-.66,4.37,4.37,0,0,1,1.93.4,3.7,3.7,0,0,1,1.32,1,4.21,4.21,0,0,1,.76,1.49,6.28,6.28,0,0,1,.24,1.73v7.2H483v-6.38a7.86,7.86,0,0,0-.07-1.06,2.93,2.93,0,0,0-.31-1,2.1,2.1,0,0,0-.66-.73,2,2,0,0,0-1.12-.29,2.53,2.53,0,0,0-1.2.28,2.49,2.49,0,0,0-.83.71,3.06,3.06,0,0,0-.49,1,4.09,4.09,0,0,0-.17,1.14v6.34h-2.88Z"/><path class="cls-7" d="M501.14,142.63v10.49a9.87,9.87,0,0,1-.38,2.82,5.54,5.54,0,0,1-1.19,2.13,5.3,5.3,0,0,1-2,1.36,7.94,7.94,0,0,1-2.9.48,9.72,9.72,0,0,1-1.48-.12,10.41,10.41,0,0,1-1.54-.36,9.63,9.63,0,0,1-1.45-.6,6.92,6.92,0,0,1-1.25-.82l1.66-2.23a5.86,5.86,0,0,0,1.9,1.21,5.69,5.69,0,0,0,2.13.42,4.45,4.45,0,0,0,1.74-.3,2.85,2.85,0,0,0,1.13-.83,3.23,3.23,0,0,0,.6-1.25,6.55,6.55,0,0,0,.18-1.59v-.84h-.05a4.09,4.09,0,0,1-1.59,1.29,5.11,5.11,0,0,1-2.17.45,5.66,5.66,0,0,1-2.36-.48,5.44,5.44,0,0,1-1.79-1.29,6.08,6.08,0,0,1-1.13-1.91,6.4,6.4,0,0,1-.41-2.32,7,7,0,0,1,.39-2.35,5.74,5.74,0,0,1,1.13-1.92,5.43,5.43,0,0,1,1.78-1.3,5.5,5.5,0,0,1,2.34-.48,5.21,5.21,0,0,1,2.28.51,3.82,3.82,0,0,1,1.68,1.56h.05v-1.73Zm-6.14,2a3.32,3.32,0,0,0-1.41.28,3,3,0,0,0-1,.78,3.46,3.46,0,0,0-.65,1.16,4.53,4.53,0,0,0-.23,1.44,4,4,0,0,0,.23,1.33,3.66,3.66,0,0,0,.65,1.16,3.1,3.1,0,0,0,1,.83,3,3,0,0,0,1.38.31,3.28,3.28,0,0,0,2.51-1.1,3.65,3.65,0,0,0,.69-1.16,4.25,4.25,0,0,0,.24-1.37,4.45,4.45,0,0,0-.24-1.42,3.81,3.81,0,0,0-.69-1.17,3.24,3.24,0,0,0-1.07-.79A3.32,3.32,0,0,0,495,144.65Z"/><path class="cls-7" d="M515.83,148.53v.39a2.43,2.43,0,0,1,0,.38H507a2.9,2.9,0,0,0,1.06,2,3.73,3.73,0,0,0,1,.59,3.53,3.53,0,0,0,1.2.21,3.93,3.93,0,0,0,1.83-.39,3.55,3.55,0,0,0,1.22-1.09l1.92,1.53a5.76,5.76,0,0,1-4.94,2.31,7.33,7.33,0,0,1-2.48-.42,5.84,5.84,0,0,1-1.95-1.19,5.32,5.32,0,0,1-1.3-1.89,6.49,6.49,0,0,1-.46-2.53,6.63,6.63,0,0,1,.46-2.53,5.59,5.59,0,0,1,1.29-1.94,5.5,5.5,0,0,1,1.93-1.25,6.38,6.38,0,0,1,2.41-.45,6.17,6.17,0,0,1,2.22.4,4.83,4.83,0,0,1,1.77,1.18,5.48,5.48,0,0,1,1.16,1.94A8,8,0,0,1,515.83,148.53ZM513,147.24a3.4,3.4,0,0,0-.16-1.06,2.5,2.5,0,0,0-.49-.89,2.44,2.44,0,0,0-.85-.61,3,3,0,0,0-1.21-.23,3.24,3.24,0,0,0-2.2.78,2.88,2.88,0,0,0-1,2Z"/><path class="cls-7" d="M518.85,142.63h2.74v1.85h0A3.68,3.68,0,0,1,523,143a3.82,3.82,0,0,1,2.24-.66,4.37,4.37,0,0,1,1.93.4,3.7,3.7,0,0,1,1.32,1,4.21,4.21,0,0,1,.76,1.49,6.28,6.28,0,0,1,.24,1.73v7.2h-2.88v-6.38a7.86,7.86,0,0,0-.07-1.06,2.93,2.93,0,0,0-.31-1,2.1,2.1,0,0,0-.66-.73,2,2,0,0,0-1.12-.29,2.53,2.53,0,0,0-1.2.28,2.49,2.49,0,0,0-.83.71,3.27,3.27,0,0,0-.49,1,4.09,4.09,0,0,0-.17,1.14v6.34h-2.88Z"/><path class="cls-7" d="M73.88,177.14a6,6,0,0,1,.49-2.48,5.8,5.8,0,0,1,1.33-1.91,5.68,5.68,0,0,1,2-1.22,7,7,0,0,1,4.9,0,5.68,5.68,0,0,1,2,1.22,5.8,5.8,0,0,1,1.33,1.91,6,6,0,0,1,.49,2.48,6.16,6.16,0,0,1-.49,2.5,6,6,0,0,1-1.33,1.93,5.93,5.93,0,0,1-2,1.26,6.75,6.75,0,0,1-4.9,0,5.93,5.93,0,0,1-2-1.26,6,6,0,0,1-1.33-1.93A6.16,6.16,0,0,1,73.88,177.14Zm2.92,0a4.52,4.52,0,0,0,.21,1.35,3.78,3.78,0,0,0,.61,1.2,3.2,3.2,0,0,0,1,.86,3.53,3.53,0,0,0,3,0,3.2,3.2,0,0,0,1-.86,3.78,3.78,0,0,0,.61-1.2,4.52,4.52,0,0,0,.21-1.35,4.35,4.35,0,0,0-.21-1.33,3.63,3.63,0,0,0-.61-1.19,3.22,3.22,0,0,0-5,0,3.63,3.63,0,0,0-.61,1.19A4.35,4.35,0,0,0,76.8,177.14Z"/><path class="cls-7" d="M92.19,171.43V173h.07a3.7,3.7,0,0,1,1.42-1.31,5.42,5.42,0,0,1,1.14-.46,5.2,5.2,0,0,1,1.42-.18,5.44,5.44,0,0,1,2.26.47,5.32,5.32,0,0,1,1.78,1.29,5.78,5.78,0,0,1,1.15,1.92,6.78,6.78,0,0,1,.41,2.37,7.18,7.18,0,0,1-.4,2.39,5.76,5.76,0,0,1-1.13,1.94,5.27,5.27,0,0,1-1.77,1.32,5.49,5.49,0,0,1-2.37.5,5,5,0,0,1-2.24-.51,3.7,3.7,0,0,1-1.57-1.37h0v7.3H89.43V171.43Zm6.72,5.71a4.35,4.35,0,0,0-.21-1.33,3.63,3.63,0,0,0-.61-1.19,3,3,0,0,0-2.49-1.17,3,3,0,0,0-1.42.33,3.62,3.62,0,0,0-1.07.87,3.71,3.71,0,0,0-.67,1.2,4.15,4.15,0,0,0-.23,1.34,4.09,4.09,0,0,0,.23,1.33,3.77,3.77,0,0,0,.67,1.19,3.41,3.41,0,0,0,1.07.85,3,3,0,0,0,1.42.32,3,3,0,0,0,2.49-1.19,3.78,3.78,0,0,0,.61-1.2A4.52,4.52,0,0,0,98.91,177.14Z"/><path class="cls-7" d="M122.09,177.33v.39c0,.13,0,.25,0,.38h-8.76a2.84,2.84,0,0,0,.32,1.14,3,3,0,0,0,.73.89,3.79,3.79,0,0,0,1,.59,3.44,3.44,0,0,0,1.2.21,3.89,3.89,0,0,0,1.82-.39,3.46,3.46,0,0,0,1.22-1.09l1.92,1.53a5.75,5.75,0,0,1-4.94,2.31,7.23,7.23,0,0,1-2.47-.42,5.89,5.89,0,0,1-2-1.19,5.29,5.29,0,0,1-1.29-1.89,6.31,6.31,0,0,1-.47-2.53,6.44,6.44,0,0,1,.47-2.53,5.71,5.71,0,0,1,1.28-1.94,5.59,5.59,0,0,1,1.93-1.25,6.42,6.42,0,0,1,2.41-.45,6.17,6.17,0,0,1,2.22.4,4.83,4.83,0,0,1,1.77,1.18,5.48,5.48,0,0,1,1.16,1.94A8,8,0,0,1,122.09,177.33ZM119.21,176a3.72,3.72,0,0,0-.15-1.06,2.53,2.53,0,0,0-.5-.89,2.35,2.35,0,0,0-.85-.61,3,3,0,0,0-1.21-.23,3.25,3.25,0,0,0-2.2.78,2.83,2.83,0,0,0-1,2Z"/><path class="cls-7" d="M136.11,177.33v.39a2.43,2.43,0,0,1,0,.38h-8.76a2.9,2.9,0,0,0,1.06,2,3.73,3.73,0,0,0,1,.59,3.53,3.53,0,0,0,1.2.21,3.93,3.93,0,0,0,1.83-.39,3.55,3.55,0,0,0,1.22-1.09l1.92,1.53a5.76,5.76,0,0,1-4.94,2.31,7.33,7.33,0,0,1-2.48-.42,5.84,5.84,0,0,1-2-1.19,5.32,5.32,0,0,1-1.3-1.89,6.48,6.48,0,0,1-.47-2.53,6.63,6.63,0,0,1,.47-2.53,5.59,5.59,0,0,1,1.29-1.94,5.5,5.5,0,0,1,1.93-1.25,6.38,6.38,0,0,1,2.41-.45,6.17,6.17,0,0,1,2.22.4,4.71,4.71,0,0,1,1.76,1.18,5.36,5.36,0,0,1,1.17,1.94A8,8,0,0,1,136.11,177.33ZM133.23,176a3.4,3.4,0,0,0-.16-1.06,2.5,2.5,0,0,0-.49-.89,2.44,2.44,0,0,0-.85-.61,3,3,0,0,0-1.21-.23,3.24,3.24,0,0,0-2.2.78,2.88,2.88,0,0,0-1,2Z"/><path class="cls-7" d="M139.13,171.43h2.74v1.85h0a3.68,3.68,0,0,1,1.33-1.53,3.82,3.82,0,0,1,2.24-.66,4.37,4.37,0,0,1,1.93.4,3.7,3.7,0,0,1,1.32,1,4.13,4.13,0,0,1,.76,1.49,6.28,6.28,0,0,1,.24,1.73V183h-2.88v-6.38a9.92,9.92,0,0,0-.07-1.06,2.94,2.94,0,0,0-.32-1,2.07,2.07,0,0,0-.65-.73,2,2,0,0,0-1.12-.29,2.45,2.45,0,0,0-2,1,3.27,3.27,0,0,0-.49,1,4.09,4.09,0,0,0-.17,1.14V183h-2.88Z"/><path class="cls-7" d="M171.29,183h-2.74v-1.73h0a4,4,0,0,1-1.67,1.54,5.13,5.13,0,0,1-2.29.53,5.49,5.49,0,0,1-2.37-.5,5.17,5.17,0,0,1-1.77-1.32,5.76,5.76,0,0,1-1.13-1.94,6.93,6.93,0,0,1-.4-2.39,6.78,6.78,0,0,1,.41-2.37,5.78,5.78,0,0,1,1.15-1.92,5.32,5.32,0,0,1,1.78-1.29,5.43,5.43,0,0,1,2.25-.47,5.15,5.15,0,0,1,1.42.18,4.76,4.76,0,0,1,1.09.45,4.64,4.64,0,0,1,.81.57,4.85,4.85,0,0,1,.55.6h.07v-8.08h2.88Zm-9.48-5.81a4.85,4.85,0,0,0,.2,1.35,3.81,3.81,0,0,0,.62,1.2,3.1,3.1,0,0,0,1,.86,3.06,3.06,0,0,0,1.46.33,3,3,0,0,0,1.42-.32,3.41,3.41,0,0,0,1.07-.85,3.77,3.77,0,0,0,.67-1.19,4.09,4.09,0,0,0,.23-1.33,4.15,4.15,0,0,0-.23-1.34,3.71,3.71,0,0,0-.67-1.2,3.62,3.62,0,0,0-1.07-.87,3,3,0,0,0-1.42-.33,3,3,0,0,0-2.49,1.17,3.65,3.65,0,0,0-.62,1.19A4.66,4.66,0,0,0,161.81,177.14Z"/><path class="cls-7" d="M185.55,183h-2.74V181.1h-.05a3.6,3.6,0,0,1-1.33,1.52,3.76,3.76,0,0,1-2.24.67,4.41,4.41,0,0,1-1.94-.4,4,4,0,0,1-1.32-1,4.36,4.36,0,0,1-.75-1.49,6.28,6.28,0,0,1-.24-1.73v-7.2h2.88v6.38a7.86,7.86,0,0,0,.07,1.06,2.93,2.93,0,0,0,.31,1,2.1,2.1,0,0,0,.66.73,2,2,0,0,0,1.12.28,2.45,2.45,0,0,0,2-1,3.27,3.27,0,0,0,.49-1,4.09,4.09,0,0,0,.17-1.14v-6.34h2.88Z"/><path class="cls-7" d="M199.75,183H197V181.1H197a3.67,3.67,0,0,1-1.33,1.52,3.77,3.77,0,0,1-2.25.67,4.4,4.4,0,0,1-1.93-.4,4,4,0,0,1-1.32-1,4.36,4.36,0,0,1-.75-1.49,6.28,6.28,0,0,1-.24-1.73v-7.2H192v6.38a7.86,7.86,0,0,0,.07,1.06,2.93,2.93,0,0,0,.31,1,2.1,2.1,0,0,0,.66.73,2,2,0,0,0,1.12.28,2.5,2.5,0,0,0,1.18-.27,2.34,2.34,0,0,0,.84-.71,3.29,3.29,0,0,0,.5-1,4.08,4.08,0,0,0,.16-1.14v-6.34h2.88Z"/><path class="cls-7" d="M203.45,171.43h2.76v1.92h0a4.21,4.21,0,0,1,1.34-1.63,3.35,3.35,0,0,1,2-.63l.36,0a.81.81,0,0,1,.33.06v2.64a4.27,4.27,0,0,0-.49-.1,2.61,2.61,0,0,0-.39,0,3.18,3.18,0,0,0-1.59.35,2.9,2.9,0,0,0-.93.87,3,3,0,0,0-.46,1,4,4,0,0,0-.12.84V183h-2.88Z"/><path class="cls-7" d="M211.51,180.41l6.22-6.68H211.8v-2.3h9.36V174l-6.24,6.63h6.53V183h-9.94Z"/><path class="cls-7" d="M231.39,181.49h-.08a3.19,3.19,0,0,1-1.39,1.26,4.82,4.82,0,0,1-2.18.49,6.19,6.19,0,0,1-1.45-.18,4.36,4.36,0,0,1-1.4-.6,3.49,3.49,0,0,1-1-1.11,3.16,3.16,0,0,1-.42-1.69,2.85,2.85,0,0,1,.73-2.06,4.68,4.68,0,0,1,1.88-1.18,10.83,10.83,0,0,1,2.56-.54c.94-.09,1.85-.13,2.75-.13v-.29a1.76,1.76,0,0,0-.78-1.59,3.25,3.25,0,0,0-1.86-.52,4.24,4.24,0,0,0-1.75.38,4.83,4.83,0,0,0-1.4.94l-1.48-1.75a6.38,6.38,0,0,1,2.26-1.37,7.89,7.89,0,0,1,2.61-.46,6.34,6.34,0,0,1,2.53.44,4.06,4.06,0,0,1,1.57,1.12,4.16,4.16,0,0,1,.81,1.56,6.9,6.9,0,0,1,.22,1.73v7h-2.68Zm0-3.8h-.65c-.46,0-.95,0-1.46.06a6.07,6.07,0,0,0-1.42.27,3.08,3.08,0,0,0-1.08.57,1.27,1.27,0,0,0-.43,1,1.24,1.24,0,0,0,.18.69,1.33,1.33,0,0,0,.47.44,2.12,2.12,0,0,0,.64.24,3.51,3.51,0,0,0,.72.07,2.72,2.72,0,0,0,3-3Z"/><path class="cls-7" d="M244.83,181.49h-.08a3.19,3.19,0,0,1-1.39,1.26,4.82,4.82,0,0,1-2.18.49,6.19,6.19,0,0,1-1.45-.18,4.36,4.36,0,0,1-1.4-.6,3.49,3.49,0,0,1-1.05-1.11,3.16,3.16,0,0,1-.42-1.69,2.85,2.85,0,0,1,.73-2.06,4.68,4.68,0,0,1,1.88-1.18,10.83,10.83,0,0,1,2.56-.54c.94-.09,1.85-.13,2.75-.13v-.29a1.76,1.76,0,0,0-.78-1.59,3.25,3.25,0,0,0-1.86-.52,4.24,4.24,0,0,0-1.75.38,4.83,4.83,0,0,0-1.4.94l-1.48-1.75a6.38,6.38,0,0,1,2.26-1.37,7.89,7.89,0,0,1,2.61-.46,6.34,6.34,0,0,1,2.53.44,4.06,4.06,0,0,1,1.57,1.12,4.16,4.16,0,0,1,.81,1.56,6.9,6.9,0,0,1,.22,1.73v7h-2.68Zm-.05-3.8h-.65c-.46,0-.95,0-1.46.06a6.07,6.07,0,0,0-1.42.27,3.08,3.08,0,0,0-1.08.57,1.27,1.27,0,0,0-.43,1,1.24,1.24,0,0,0,.18.69,1.33,1.33,0,0,0,.47.44,2.12,2.12,0,0,0,.64.24,3.51,3.51,0,0,0,.72.07,2.72,2.72,0,0,0,3-3Z"/><path class="cls-7" d="M264.87,171.09a4.4,4.4,0,0,1,1.93.4,3.89,3.89,0,0,1,1.32,1,4.27,4.27,0,0,1,.75,1.49,6.28,6.28,0,0,1,.24,1.73V183h-2.88v-6.38a7.86,7.86,0,0,0-.07-1.06,2.93,2.93,0,0,0-.31-1,2.1,2.1,0,0,0-.66-.73,2,2,0,0,0-1.12-.29,2.21,2.21,0,0,0-1.15.29,2.46,2.46,0,0,0-.79.75,3.2,3.2,0,0,0-.46,1,4.84,4.84,0,0,0-.14,1.12V183h-2.88v-7a2.92,2.92,0,0,0-.52-1.79,1.87,1.87,0,0,0-1.62-.71,2.31,2.31,0,0,0-1.13.28,2.2,2.2,0,0,0-.77.71,3,3,0,0,0-.46,1,4.08,4.08,0,0,0-.16,1.14V183h-2.88V171.43h2.74v1.85h.05a3.39,3.39,0,0,1,.51-.82,4,4,0,0,1,.77-.69,3.73,3.73,0,0,1,1-.5,4.24,4.24,0,0,1,1.27-.18,3.72,3.72,0,0,1,3.6,2.19,4.08,4.08,0,0,1,1.54-1.62A4.34,4.34,0,0,1,264.87,171.09Z"/><path class="cls-7" d="M292.71,171.09a4.4,4.4,0,0,1,1.93.4,3.89,3.89,0,0,1,1.32,1,4.27,4.27,0,0,1,.75,1.49,6.28,6.28,0,0,1,.24,1.73V183h-2.88v-6.38a7.86,7.86,0,0,0-.07-1.06,2.93,2.93,0,0,0-.31-1,2.1,2.1,0,0,0-.66-.73,2,2,0,0,0-1.12-.29,2.21,2.21,0,0,0-1.15.29,2.46,2.46,0,0,0-.79.75,3.2,3.2,0,0,0-.46,1,4.84,4.84,0,0,0-.14,1.12V183h-2.88v-7a2.92,2.92,0,0,0-.52-1.79,1.87,1.87,0,0,0-1.62-.71,2.28,2.28,0,0,0-1.13.28,2.2,2.2,0,0,0-.77.71,3,3,0,0,0-.46,1,4.08,4.08,0,0,0-.16,1.14V183H279V171.43h2.74v1.85h.05a3.39,3.39,0,0,1,.51-.82,4,4,0,0,1,.77-.69,3.73,3.73,0,0,1,1-.5,4.24,4.24,0,0,1,1.27-.18,3.75,3.75,0,0,1,3.6,2.19,4.08,4.08,0,0,1,1.54-1.62A4.34,4.34,0,0,1,292.71,171.09Z"/><path class="cls-7" d="M307.71,181.49h-.08a3.24,3.24,0,0,1-1.39,1.26,4.82,4.82,0,0,1-2.18.49,6.33,6.33,0,0,1-1.46-.18,4.41,4.41,0,0,1-1.39-.6,3.49,3.49,0,0,1-1-1.11,3.16,3.16,0,0,1-.42-1.69,2.85,2.85,0,0,1,.73-2.06,4.62,4.62,0,0,1,1.88-1.18,10.83,10.83,0,0,1,2.56-.54c.93-.09,1.85-.13,2.75-.13v-.29a1.76,1.76,0,0,0-.78-1.59,3.25,3.25,0,0,0-1.86-.52,4.32,4.32,0,0,0-1.76.38,4.92,4.92,0,0,0-1.39.94l-1.49-1.75a6.51,6.51,0,0,1,2.27-1.37,7.89,7.89,0,0,1,2.61-.46,6.38,6.38,0,0,1,2.53.44,4.06,4.06,0,0,1,1.57,1.12,4.16,4.16,0,0,1,.81,1.56,6.9,6.9,0,0,1,.22,1.73v7h-2.68Zm0-3.8H307c-.47,0-.95,0-1.47.06a6.08,6.08,0,0,0-1.41.27,3.08,3.08,0,0,0-1.08.57,1.27,1.27,0,0,0-.43,1,1.24,1.24,0,0,0,.18.69,1.38,1.38,0,0,0,.46.44,2.29,2.29,0,0,0,.65.24,3.51,3.51,0,0,0,.72.07,2.72,2.72,0,0,0,3-3Z"/><path class="cls-7" d="M314,171.43h2.74v1.85h0a3.68,3.68,0,0,1,1.33-1.53,3.82,3.82,0,0,1,2.24-.66,4.44,4.44,0,0,1,1.94.4,3.76,3.76,0,0,1,1.31,1,4.13,4.13,0,0,1,.76,1.49,6.28,6.28,0,0,1,.24,1.73V183h-2.88v-6.38a7.86,7.86,0,0,0-.07-1.06,2.93,2.93,0,0,0-.31-1,2.1,2.1,0,0,0-.66-.73,2,2,0,0,0-1.12-.29,2.53,2.53,0,0,0-1.2.28,2.49,2.49,0,0,0-.83.71,3.27,3.27,0,0,0-.49,1,4.09,4.09,0,0,0-.17,1.14V183H314Z"/><path class="cls-7" d="M327.84,167.52a1.62,1.62,0,0,1,.52-1.21,1.74,1.74,0,0,1,1.3-.52,1.91,1.91,0,0,1,1.34.49,1.61,1.61,0,0,1,.54,1.24,1.59,1.59,0,0,1-.54,1.23,1.92,1.92,0,0,1-1.34.5,1.78,1.78,0,0,1-1.3-.52A1.64,1.64,0,0,1,327.84,167.52Zm.41,3.91h2.88V183h-2.88Z"/><path class="cls-7" d="M345.86,177.33v.39a2.42,2.42,0,0,1,0,.38h-8.76a2.84,2.84,0,0,0,.32,1.14,2.89,2.89,0,0,0,.74.89,3.59,3.59,0,0,0,1,.59,3.44,3.44,0,0,0,1.2.21,3.86,3.86,0,0,0,1.82-.39,3.49,3.49,0,0,0,1.23-1.09l1.92,1.53a5.78,5.78,0,0,1-4.95,2.31,7.27,7.27,0,0,1-2.47-.42,6,6,0,0,1-2-1.19,5.29,5.29,0,0,1-1.29-1.89,6.48,6.48,0,0,1-.47-2.53,6.63,6.63,0,0,1,.47-2.53,5.64,5.64,0,0,1,3.21-3.19,6.43,6.43,0,0,1,2.42-.45,6.17,6.17,0,0,1,2.22.4,4.79,4.79,0,0,1,1.76,1.18,5.34,5.34,0,0,1,1.16,1.94A8,8,0,0,1,345.86,177.33ZM343,176a3.72,3.72,0,0,0-.15-1.06,2.67,2.67,0,0,0-.49-.89,2.48,2.48,0,0,0-.86-.61,3,3,0,0,0-1.21-.23,3.23,3.23,0,0,0-2.19.78,2.84,2.84,0,0,0-1,2Z"/><path class="cls-7" d="M348.89,171.43h2.76v1.92h.05a4.12,4.12,0,0,1,1.34-1.63,3.35,3.35,0,0,1,2-.63l.36,0a.84.84,0,0,1,.33.06v2.64a4.27,4.27,0,0,0-.49-.1,2.75,2.75,0,0,0-.4,0,3.16,3.16,0,0,0-1.58.35,3,3,0,0,0-.94.87,3.21,3.21,0,0,0-.45,1,4,4,0,0,0-.12.84V183h-2.88Z"/><path class="cls-7" d="M375.82,171.43v10.49a9.52,9.52,0,0,1-.39,2.82,5.25,5.25,0,0,1-3.21,3.49,8,8,0,0,1-2.91.48,9.69,9.69,0,0,1-1.47-.12,10.13,10.13,0,0,1-1.54-.36,9.22,9.22,0,0,1-1.45-.6,6.59,6.59,0,0,1-1.25-.82l1.66-2.23a5.92,5.92,0,0,0,1.89,1.21,5.78,5.78,0,0,0,2.14.42,4.45,4.45,0,0,0,1.74-.3,2.85,2.85,0,0,0,1.13-.83,3.23,3.23,0,0,0,.6-1.25,6.55,6.55,0,0,0,.18-1.59v-.84h-.05a4.13,4.13,0,0,1-1.6,1.29,5.11,5.11,0,0,1-2.17.45,5.61,5.61,0,0,1-2.35-.48,5.34,5.34,0,0,1-1.79-1.29,5.92,5.92,0,0,1-1.14-1.91,6.62,6.62,0,0,1-.41-2.32,6.79,6.79,0,0,1,.4-2.35,5.58,5.58,0,0,1,1.13-1.92,5.39,5.39,0,0,1,1.77-1.3,5.56,5.56,0,0,1,2.34-.48,5.15,5.15,0,0,1,2.28.51,3.72,3.72,0,0,1,1.68,1.56h.05v-1.73Zm-6.15,2a3.27,3.27,0,0,0-1.4.28,3,3,0,0,0-1,.78,3.46,3.46,0,0,0-.65,1.16,4.53,4.53,0,0,0-.23,1.44,4,4,0,0,0,.23,1.33,3.66,3.66,0,0,0,.65,1.16,3.1,3.1,0,0,0,1,.83,3,3,0,0,0,1.38.31,3.28,3.28,0,0,0,2.51-1.1,3.62,3.62,0,0,0,.68-1.16,4,4,0,0,0,.24-1.37,4.19,4.19,0,0,0-.24-1.42,3.78,3.78,0,0,0-.68-1.17,3.35,3.35,0,0,0-1.07-.79A3.4,3.4,0,0,0,369.67,173.45Z"/><path class="cls-7" d="M390.5,177.33v.39a2.42,2.42,0,0,1,0,.38h-8.76a2.84,2.84,0,0,0,.32,1.14,2.89,2.89,0,0,0,.74.89,3.59,3.59,0,0,0,1,.59,3.44,3.44,0,0,0,1.2.21,3.89,3.89,0,0,0,1.82-.39,3.49,3.49,0,0,0,1.23-1.09L390,181a5.78,5.78,0,0,1-5,2.31,7.23,7.23,0,0,1-2.47-.42,6,6,0,0,1-2-1.19,5.29,5.29,0,0,1-1.29-1.89,6.48,6.48,0,0,1-.47-2.53,6.63,6.63,0,0,1,.47-2.53,5.71,5.71,0,0,1,1.28-1.94,5.59,5.59,0,0,1,1.93-1.25,6.43,6.43,0,0,1,2.42-.45,6.17,6.17,0,0,1,2.22.4,4.88,4.88,0,0,1,1.76,1.18,5.34,5.34,0,0,1,1.16,1.94A8,8,0,0,1,390.5,177.33ZM387.62,176a3.72,3.72,0,0,0-.15-1.06,2.67,2.67,0,0,0-.49-.89,2.48,2.48,0,0,0-.86-.61,3,3,0,0,0-1.21-.23,3.23,3.23,0,0,0-2.19.78,2.84,2.84,0,0,0-1,2Z"/><path class="cls-7" d="M396.46,164.81v8.08h.07a4.29,4.29,0,0,1,1.35-1.17,4.93,4.93,0,0,1,2.51-.63,5.44,5.44,0,0,1,2.26.47,5.29,5.29,0,0,1,1.77,1.29,5.8,5.8,0,0,1,1.16,1.92,6.78,6.78,0,0,1,.4,2.37,7.17,7.17,0,0,1-.39,2.39,5.93,5.93,0,0,1-1.13,1.94,5.21,5.21,0,0,1-1.78,1.32,5.42,5.42,0,0,1-2.36.5,5.1,5.1,0,0,1-2.29-.53,4,4,0,0,1-1.67-1.54h-.05V183h-2.73V164.81Zm6.59,12.33a4.34,4.34,0,0,0-.2-1.33,3.83,3.83,0,0,0-.61-1.19,3.17,3.17,0,0,0-1-.85,3.12,3.12,0,0,0-1.47-.32,2.94,2.94,0,0,0-1.41.33,3.5,3.5,0,0,0-1.07.87,3.54,3.54,0,0,0-.67,1.2,3.9,3.9,0,0,0-.23,1.34,3.84,3.84,0,0,0,.23,1.33,3.59,3.59,0,0,0,.67,1.19,3.3,3.3,0,0,0,1.07.85,2.93,2.93,0,0,0,1.41.32,3.12,3.12,0,0,0,1.47-.33,3.2,3.2,0,0,0,1-.86,4,4,0,0,0,.61-1.2A4.51,4.51,0,0,0,403.05,177.14Z"/><path class="cls-7" d="M420,177.33v.39a2.43,2.43,0,0,1,0,.38h-8.76a2.9,2.9,0,0,0,1.06,2,3.89,3.89,0,0,0,1,.59,3.53,3.53,0,0,0,1.2.21,3.93,3.93,0,0,0,1.83-.39,3.55,3.55,0,0,0,1.22-1.09l1.92,1.53a5.76,5.76,0,0,1-4.94,2.31,7.33,7.33,0,0,1-2.48-.42,5.84,5.84,0,0,1-1.95-1.19,5.45,5.45,0,0,1-1.3-1.89,6.48,6.48,0,0,1-.47-2.53,6.63,6.63,0,0,1,.47-2.53,5.73,5.73,0,0,1,1.29-1.94,5.59,5.59,0,0,1,1.93-1.25,6.38,6.38,0,0,1,2.41-.45,6.17,6.17,0,0,1,2.22.4,4.83,4.83,0,0,1,1.77,1.18,5.48,5.48,0,0,1,1.16,1.94A8,8,0,0,1,420,177.33ZM417.12,176A3.4,3.4,0,0,0,417,175a2.36,2.36,0,0,0-.49-.89,2.44,2.44,0,0,0-.85-.61,3,3,0,0,0-1.21-.23,3.24,3.24,0,0,0-2.2.78,2.88,2.88,0,0,0-1,2Z"/><path class="cls-7" d="M433.54,183H430.8V181.1h-.05a3.6,3.6,0,0,1-1.33,1.52,3.77,3.77,0,0,1-2.25.67,4.4,4.4,0,0,1-1.93-.4,4,4,0,0,1-1.32-1,4.36,4.36,0,0,1-.75-1.49,6.28,6.28,0,0,1-.24-1.73v-7.2h2.88v6.38a7.86,7.86,0,0,0,.07,1.06,2.93,2.93,0,0,0,.31,1,2.1,2.1,0,0,0,.66.73,2,2,0,0,0,1.12.28,2.45,2.45,0,0,0,2-1,3.27,3.27,0,0,0,.49-1,4.09,4.09,0,0,0,.17-1.14v-6.34h2.88Z"/><path class="cls-7" d="M437.23,171.43H440v1.92H440a4.21,4.21,0,0,1,1.34-1.63,3.35,3.35,0,0,1,2-.63l.36,0a.81.81,0,0,1,.33.06v2.64a4.27,4.27,0,0,0-.49-.1,2.61,2.61,0,0,0-.39,0,3.18,3.18,0,0,0-1.59.35,2.9,2.9,0,0,0-.93.87,3,3,0,0,0-.46,1,4,4,0,0,0-.12.84V183h-2.88Z"/><path class="cls-7" d="M456.77,177.33v.39a2.43,2.43,0,0,1,0,.38H448a2.9,2.9,0,0,0,1.06,2,3.73,3.73,0,0,0,1,.59,3.48,3.48,0,0,0,1.2.21,3.86,3.86,0,0,0,1.82-.39,3.49,3.49,0,0,0,1.23-1.09l1.92,1.53a5.77,5.77,0,0,1-4.95,2.31,7.27,7.27,0,0,1-2.47-.42,5.84,5.84,0,0,1-1.95-1.19,5.19,5.19,0,0,1-1.3-1.89,6.48,6.48,0,0,1-.47-2.53,6.63,6.63,0,0,1,.47-2.53,5.71,5.71,0,0,1,1.28-1.94,5.63,5.63,0,0,1,1.94-1.25,6.34,6.34,0,0,1,2.41-.45,6.17,6.17,0,0,1,2.22.4,4.71,4.71,0,0,1,1.76,1.18,5.36,5.36,0,0,1,1.17,1.94A8,8,0,0,1,456.77,177.33ZM453.89,176a3.73,3.73,0,0,0-.16-1.06,2.5,2.5,0,0,0-.49-.89,2.54,2.54,0,0,0-.85-.61,3.05,3.05,0,0,0-1.22-.23A3.23,3.23,0,0,0,449,174a2.88,2.88,0,0,0-1,2Z"/><path class="cls-7" d="M459.79,171.43h2.74v1.85h.05a3.61,3.61,0,0,1,1.33-1.53,3.82,3.82,0,0,1,2.24-.66,4.37,4.37,0,0,1,1.93.4,3.7,3.7,0,0,1,1.32,1,4.13,4.13,0,0,1,.76,1.49,6.28,6.28,0,0,1,.24,1.73V183h-2.88v-6.38a7.86,7.86,0,0,0-.07-1.06,2.94,2.94,0,0,0-.32-1,2.1,2.1,0,0,0-.66-.73,1.94,1.94,0,0,0-1.11-.29,2.45,2.45,0,0,0-2,1,3.06,3.06,0,0,0-.49,1,4.09,4.09,0,0,0-.17,1.14V183h-2.88Z"/><rect class="cls-4" x="400" y="1227" width="75" height="7" rx="3.5"/><rect class="cls-5" x="275" y="1227" width="50" height="7" rx="3.5"/><rect class="cls-5" x="337" y="1227" width="50" height="7" rx="3.5"/></svg>