<svg xmlns="http://www.w3.org/2000/svg" viewBox="0 0 585.25 101"><defs><style>.cls-1{fill:none;stroke:#7966ff;stroke-miterlimit:10;}.cls-2{fill:#fff;}</style></defs><title>HomeLogoAsset 25</title><g id="Layer_2" data-name="Layer 2"><g id="Layer_3" data-name="Layer 3"><path class="cls-1" d="M5,100.5,40.75.5h82.37l-8.24,22.62H83.62l-4,11.13H111l-8.12,22.63H71.5l-7.38,21H95.5L87.38,100.5Z"/><path class="cls-1" d="M160,100.5l12.12-34.12a10.72,10.72,0,0,0,.88-3.76c0-2.24-1.88-3.37-5.63-3.37h-5.62L147,100.5H96L131.75.5h82.62q11.13,0,16.88,1.88,9.63,3.24,9.62,12a29.89,29.89,0,0,1-2,9.87q-3.75,10.5-11,15.87Q221.26,45,209.62,47q14.25,2.74,14.25,14.12,0,5.51-2.87,13.63l-9.25,25.75Zm14.62-77.38L169.5,37.5h5.62q7.38,0,9.88-7.06a12.08,12.08,0,0,0,.87-3.91q0-3.41-5.62-3.41Z"/><path class="cls-1" d="M221.5,100.5,257.25.5h50l-14.5,40.38L323.62.5H375.5L339.25,46.88,341,100.5H289.62l-1.75-45.75L271.5,100.5Z"/><path class="cls-1" d="M348.75,100.5,384.5.5h82.37l-8.25,22.62H427.37l-4,11.13h31.38l-8.13,22.63H415.25l-7.38,21h31.38l-8.13,22.62Z"/><path class="cls-1" d="M439.75,100.5,475.5.5h82.62q11.25,0,17,1.88,9.63,3.24,9.63,12.12a29.91,29.91,0,0,1-2,9.75Q579,34.75,571.62,40.12,565,45,553.37,47q14.25,2.74,14.25,14.12,0,5.51-2.87,13.63-5.37,15-16.13,20.75-9.12,5-26.25,5Zm59.12-22.88h5.63c2.83,0,5-.54,6.37-1.62a12.38,12.38,0,0,0,3.63-5.62l1.37-4a10.72,10.72,0,0,0,.88-3.76c0-2.24-1.88-3.37-5.63-3.37H505.5Zm19.5-54.5L513.25,37.5h5.62q7.38,0,9.88-7.06c1-2.77,1.12-4.67.37-5.68s-2.45-1.64-5.12-1.64Z"/><path class="cls-2" d="M0,89.28l26.88-75.2h62l-6.2,17H59.13l-3,8.37H79.71l-6.11,17H50L44.46,72.26h23.6L62,89.28Z"/><path class="cls-2" d="M116.56,89.28l9.12-25.66a8.12,8.12,0,0,0,.66-2.82c0-1.7-1.41-2.54-4.23-2.54h-4.23l-11.1,31H68.43l26.89-75.2h62.13q8.37,0,12.69,1.41,7.25,2.45,7.24,9a22.47,22.47,0,0,1-1.51,7.43q-2.82,7.89-8.27,11.94-5,3.66-13.72,5.17,10.71,2.07,10.71,10.62a31.87,31.87,0,0,1-2.16,10.24l-7,19.37Zm11-58.19L123.7,41.9h4.23a7.27,7.27,0,0,0,7.43-5.31,9,9,0,0,0,.66-2.94c0-1.7-1.41-2.56-4.23-2.56Z"/><path class="cls-2" d="M162.81,89.28l26.88-75.2h37.6l-10.9,30.36,23.22-30.36h39L251.36,49l1.31,40.33H214l-1.32-34.41L200.41,89.28Z"/><path class="cls-2" d="M258.5,89.28l26.88-75.2h61.95l-6.2,17h-23.5l-3,8.37h23.59l-6.11,17H308.51L303,72.26h23.6l-6.11,17Z"/><path class="cls-2" d="M326.93,89.28l26.89-75.2H416q8.46,0,12.78,1.41Q436,17.94,436,24.61a22.51,22.51,0,0,1-1.5,7.33q-2.82,7.89-8.37,11.94-5,3.66-13.72,5.17,10.71,2.07,10.71,10.62a31.87,31.87,0,0,1-2.16,10.24q-4,11.28-12.12,15.61-6.87,3.77-19.74,3.76Zm44.46-17.2h4.23a7.82,7.82,0,0,0,4.8-1.23,9.3,9.3,0,0,0,2.72-4.23l1-3a8.12,8.12,0,0,0,.66-2.82c0-1.7-1.41-2.54-4.23-2.54h-4.23Zm14.67-41L382.2,41.9h4.23a7.27,7.27,0,0,0,7.43-5.31c.75-2.08.85-3.51.28-4.27s-1.85-1.23-3.85-1.23Z"/></g></g></svg>