<svg xmlns="http://www.w3.org/2000/svg" viewBox="0 0 26.25 27.29"><defs><style>.cls-1{fill:#15171a;stroke:#15171a;stroke-miterlimit:10;stroke-width:0.25px;}</style></defs><title>IconProfielAsset 7</title><g id="Layer_2" data-name="Layer 2"><g id="Layer_3" data-name="Layer 3"><path id="path" class="cls-1" d="M13.12,13.12a6.5,6.5,0,1,1,6.5-6.5A6.51,6.51,0,0,1,13.12,13.12Zm0-2.36A4.14,4.14,0,1,0,9,6.62H9A4.13,4.13,0,0,0,13.12,10.76Zm12.31,9.42a8.26,8.26,0,0,1,.48,2c.08.6.15,1.21.2,1.82v.25a3,3,0,0,1-2.95,3H3.08a3,3,0,0,1-3-3v-.08l0-.18c0-.61.12-1.21.2-1.82a7.63,7.63,0,0,1,.48-1.95c.91-2,7.59-4.83,12.3-4.83S24.52,18.2,25.43,20.18Zm-2.28.9a5.58,5.58,0,0,0-.69-.51A17.61,17.61,0,0,0,20,19.29a18.24,18.24,0,0,0-6.86-1.58,18.09,18.09,0,0,0-6.86,1.58,16.46,16.46,0,0,0-2.47,1.27,7.4,7.4,0,0,0-.7.51,1.85,1.85,0,0,0-.14.14,7.61,7.61,0,0,0-.26,1.26c-.06.4-.11.83-.15,1.26,0,.22,0,.4,0,.51a.6.6,0,0,0,.59.56H23.17a.59.59,0,0,0,.59-.56c0-.11,0-.29,0-.51,0-.42-.09-.84-.15-1.25a9,9,0,0,0-.27-1.27.93.93,0,0,0-.14-.14Z"/></g></g></svg>