<svg xmlns="http://www.w3.org/2000/svg" viewBox="0 0 18.06 18.75"><defs><style>.cls-1{fill:#15171a;stroke:#15171a;stroke-miterlimit:10;stroke-width:0.75px;}</style></defs><title>IconProfielAsset 17</title><g id="Layer_2" data-name="Layer 2"><g id="Layer_3" data-name="Layer 3"><path id="path" class="cls-1" d="M9,9A4.33,4.33,0,1,1,13.36,4.7,4.33,4.33,0,0,1,9,9ZM9,7.45A2.75,2.75,0,1,0,6.28,4.7h0A2.75,2.75,0,0,0,9,7.45Zm8.19,6.27A5.34,5.34,0,0,1,17.54,15c.06.4.1.8.13,1.21v.17a2,2,0,0,1-2,2H2.34a2,2,0,0,1-2-2v-.18c0-.4.08-.8.14-1.21a5.37,5.37,0,0,1,.32-1.3c.6-1.31,5.05-3.21,8.19-3.21S16.61,12.41,17.22,13.72Zm-1.52.6a3.83,3.83,0,0,0-.46-.33,10.75,10.75,0,0,0-1.65-.86A12.19,12.19,0,0,0,9,12.08a12.2,12.2,0,0,0-4.57,1.05A11.7,11.7,0,0,0,2.81,14a5,5,0,0,0-.46.34l-.09.09a4.06,4.06,0,0,0-.18.84c0,.27-.07.55-.1.84s0,.26,0,.34a.39.39,0,0,0,.39.37H15.72a.39.39,0,0,0,.39-.37c0-.08,0-.2,0-.34s-.06-.56-.1-.84a4.83,4.83,0,0,0-.18-.84l-.09-.09Z"/></g></g></svg>