<svg xmlns="http://www.w3.org/2000/svg" viewBox="0 0 20.78 14.85"><defs><style>.cls-1{fill:#15171a;stroke:#15171a;stroke-miterlimit:10;stroke-width:0.25px;}</style></defs><title>IconErkebFamAsset 19</title><g id="Layer_2" data-name="Layer 2"><g id="Layer_3" data-name="Layer 3"><path id="path" class="cls-1" d="M13.57,14.19a2.93,2.93,0,0,1-1.69.54H2A1.84,1.84,0,0,1,.12,12.9v-.46c0-.27.1-.45.1-.73a10.2,10.2,0,0,1,.27-1.09C1,9.43,4.78,8,7.43,8a13.71,13.71,0,0,1,4.1.82,9.06,9.06,0,0,1,3.65-.91c2,0,4.75,1.19,5.2,2.1a2.22,2.22,0,0,1,.19.91c0,.19.09.37.09.55v.37a1.63,1.63,0,0,1-1.55,1.64H15.57a3,3,0,0,0-1.7.53ZM13.63,10a1.52,1.52,0,0,1,.64.73,5,5,0,0,1,.27.91h4.29a.56.56,0,0,0-.09-.36c0-.09,0-.28-.09-.28a.31.31,0,0,0-.18-.09,7.83,7.83,0,0,0-.92-.45,6.13,6.13,0,0,0-2.46-.55A2,2,0,0,0,13.63,10Zm1.55-3a2.69,2.69,0,0,1-2.74-2.64v-.1a2.74,2.74,0,0,1,5.48,0A2.68,2.68,0,0,1,15.28,7Zm0-1.54a1.14,1.14,0,0,0,1.2-1.06V4.23a1.2,1.2,0,1,0-2.4,0,1.15,1.15,0,0,0,1.07,1.2ZM7.43,6.88A3.43,3.43,0,0,1,4.05,3.5,3.42,3.42,0,0,1,7.43.13,3.42,3.42,0,0,1,10.8,3.5,3.43,3.43,0,0,1,7.43,6.88Zm0-1.83A1.6,1.6,0,0,0,9,3.5a1.56,1.56,0,0,0-3.11,0h0A1.6,1.6,0,0,0,7.43,5.05Zm5.29,6.48a1.41,1.41,0,0,0-.37-.27c-.36-.18-.82-.46-1.27-.64A10.47,10.47,0,0,0,7.43,9.8a9.57,9.57,0,0,0-3.65.82c-.46.18-.92.46-1.28.64a1.41,1.41,0,0,0-.37.27h0a4.85,4.85,0,0,0-.09.55c0,.18-.09.46-.09.64v.18H12.81v-.18c0-.18-.09-.46-.09-.64Z"/></g></g></svg>