<svg xmlns="http://www.w3.org/2000/svg" viewBox="0 0 750 1334"><defs><style>.cls-1{fill:#7966ff;}.cls-2{fill:#8980ff;}.cls-3{fill:#a9a9ff;}.cls-4{fill:#cbcbff;}</style></defs><title>LaunchScreenBGAsset 31</title><g id="Layer_2" data-name="Layer 2"><g id="Layer_3" data-name="Layer 3"><path class="cls-1" d="M749.53,155.12l.47.46V0H380c11.91.33,26.05,1,37.36,1.86C542.79,11.75,659.84,66.9,749.53,155.12Z"/><path class="cls-1" d="M332.62,1.86C343.93,1,358.07.33,370,0H0V155.58l.47-.46C90.16,66.9,207.21,11.75,332.62,1.86Z"/><path class="cls-1" d="M384.67,1332.13A25.8,25.8,0,0,1,375,1334H750V1069C654.44,1185,523.45,1275.79,384.67,1332.13Z"/><path class="cls-1" d="M0,1069v265H375a25.8,25.8,0,0,1-9.67-1.87C226.55,1275.79,95.56,1185,0,1069Z"/><path class="cls-2" d="M342.15,151.44c8.76-.69,19.73-1.19,29-1.44h7.78c9.23.25,20.2.75,29,1.44,97.21,7.67,187.93,50.42,257.45,118.79,36.05,35.46,63.77,72.17,84.7,109.3V155.58l-.47-.46C659.84,66.9,542.79,11.75,417.38,1.86,406.07,1,391.93.33,380,0H370c-11.91.33-26.05,1-37.36,1.86C207.21,11.75,90.16,66.9.47,155.12l-.47.46V379.52c20.93-37.12,48.65-73.83,84.7-109.29C154.22,201.86,244.94,159.11,342.15,151.44Z"/><path class="cls-2" d="M750,1069V841.25c-24.31,54.63-47.34,88.1-47.34,88.1l-13.73,19c-75.21,104.39-187.12,185.71-306.43,234.15A20.06,20.06,0,0,1,375,1184h0a20.06,20.06,0,0,1-7.5-1.45C248.19,1134.11,136.28,1052.79,61.07,948.4l-13.73-19s-23-33.47-47.34-88.1V1069c95.56,116,226.55,206.84,365.33,263.18A25.8,25.8,0,0,0,375,1334h0a25.8,25.8,0,0,0,9.67-1.87C523.45,1275.79,654.44,1185,750,1069Z"/><path class="cls-3" d="M61.07,948.4c75.21,104.39,187.12,185.71,306.43,234.15A20.06,20.06,0,0,0,375,1184h0a20.06,20.06,0,0,0,7.5-1.45c119.31-48.44,231.22-129.76,306.43-234.15l13.73-19s23-33.47,47.34-88.1V379.53c-20.93-37.13-48.65-73.84-84.7-109.3-69.52-68.37-160.24-111.12-257.45-118.79-8.76-.69-19.73-1.19-29-1.44h-7.78c-9.23.25-20.2.75-29,1.44-97.21,7.67-187.93,50.42-257.45,118.79C48.65,305.69,20.93,342.4,0,379.52V841.25c24.31,54.63,47.34,88.1,47.34,88.1Zm107.85-563c49.35-48.54,113.76-78.89,182.76-84.33,6.22-.49,14-.84,20.56-1h5.52c6.56.18,14.34.53,20.56,1,69,5.44,133.41,35.79,182.76,84.33,207.85,204.43,26.51,467.89,26.51,467.89l-9.74,13.52C544.46,940.86,465,998.59,380.32,1033a14.25,14.25,0,0,1-10.64,0C285,998.59,205.54,940.86,152.15,866.76l-9.74-13.52S-38.93,589.78,168.92,385.35Z"/><path class="cls-4" d="M152.15,866.76C205.54,940.86,285,998.59,369.68,1033a14.25,14.25,0,0,0,10.64,0c84.7-34.38,164.14-92.11,217.53-166.21l9.74-13.52s181.34-263.46-26.51-467.89C531.73,336.81,467.32,306.46,398.32,301c-6.22-.49-14-.84-20.56-1h-5.52c-6.56.18-14.34.53-20.56,1-69,5.44-133.41,35.79-182.76,84.33-207.85,204.43-26.51,467.89-26.51,467.89Z"/></g></g></svg>