<svg xmlns="http://www.w3.org/2000/svg" viewBox="0 0 100 100"><defs><style>.cls-1{fill:#7966ff;}.cls-2{fill:#f1eefc;}</style></defs><title>ProfileAvatarAsset 2</title><g id="Layer_2" data-name="Layer 2"><g id="Layer_1-2" data-name="Layer 1"><rect class="cls-1" width="100" height="100"/><path class="cls-2" d="M100,98.89A24.8,24.8,0,0,0,96.6,92c-2.9-3.84-17.31-9.07-24.8-11.81-2.55-.94-3.9-1.44-4.49-1.76A58.62,58.62,0,0,1,62.83,73H62V69a32.51,32.51,0,0,0,5.14-7.54c.72-1.49,1.43-6.59,1.43-6.59,4.49-2,5-9.27,5.22-13.31.1-2-.91-2.16-2-1.71,0-.38.06-.74.1-1.11a38.37,38.37,0,0,0,2.83-12.85c.15-6.77-2.56-13.95-8.25-17.55-5.3-3.34-12-3-18.23-2.66-3.5.22-7.1.47-10.26,2a9.26,9.26,0,0,0-5.2,8.47c-1.51-1.83-4.61-1.44-6.3.23s-2.28,4.13-2.6,6.49a27.81,27.81,0,0,0,.66,11.7,18.3,18.3,0,0,0,2.56,5.23c-1.05-.39-2-.22-1.89,1.75.18,4,.73,11.25,5.21,13.3a27,27,0,0,0,1.4,6.6A32.36,32.36,0,0,0,37,69v4h.17a58.62,58.62,0,0,1-4.48,5.4,8.81,8.81,0,0,1-1.35.6l-3.21,1.19C20.63,82.93,6.29,88.14,3.4,92A24.8,24.8,0,0,0,0,98.89V100H100Z"/></g></g></svg>