<svg xmlns="http://www.w3.org/2000/svg" xmlns:xlink="http://www.w3.org/1999/xlink" viewBox="0 0 691.03 369.5"><defs><style>.cls-1,.cls-3,.cls-6,.cls-7,.cls-8,.cls-9{fill:none;}.cls-2{fill:url(#linear-gradient);}.cls-3,.cls-7{stroke:#a9a9ff;}.cls-3,.cls-6,.cls-7,.cls-8,.cls-9{stroke-miterlimit:10;}.cls-4{fill:#f1eefc;}.cls-5{clip-path:url(#clip-path);}.cls-6{stroke:#f1eefc;}.cls-6,.cls-7,.cls-8,.cls-9{stroke-width:20px;}.cls-8{stroke:#8980ff;}.cls-9{stroke:#7966ff;}</style><linearGradient id="linear-gradient" x1="-1142.59" y1="-3311.41" x2="-1166.25" y2="-3764.19" gradientTransform="translate(1498 3696)" gradientUnits="userSpaceOnUse"><stop offset="0" stop-color="#7966ff"/><stop offset="0.59" stop-color="#7a68ff"/><stop offset="0.8" stop-color="#7e6fff"/><stop offset="0.95" stop-color="#867aff"/><stop offset="1" stop-color="#8980ff"/></linearGradient><clipPath id="clip-path"><rect class="cls-1" x="19.97" width="650" height="369.5" rx="5"/></clipPath></defs><title>BetalingenKaartAsset 38</title><g id="Layer_2" data-name="Layer 2"><g id="Layer_3" data-name="Layer 3"><rect class="cls-2" x="19.97" width="650" height="369.5" rx="5" transform="translate(689.94 369.5) rotate(180)"/><path class="cls-3" d="M442.53,77l11.15-31.21h25.7l-2.57,7.06h-9.75l-1.25,3.47h9.79l-2.53,7.06h-9.79L461,69.94h9.79L468.23,77Z"/><path class="cls-3" d="M490.89,77l3.78-10.65a3.47,3.47,0,0,0,.28-1.17c0-.7-.59-1.06-1.76-1.06h-1.75L486.83,77H470.92l11.16-31.21h25.78a18,18,0,0,1,5.26.59c2,.68,3,1.92,3,3.74a9.23,9.23,0,0,1-.62,3.08,10.29,10.29,0,0,1-3.43,5,13.39,13.39,0,0,1-5.7,2.14q4.45.86,4.45,4.41a13.22,13.22,0,0,1-.9,4.25L507,77Zm4.56-24.15-1.6,4.49h1.76a3,3,0,0,0,3.08-2.2,3.82,3.82,0,0,0,.27-1.22c0-.71-.58-1.07-1.75-1.07Z"/><path class="cls-3" d="M510.08,77l11.15-31.21h15.6l-4.52,12.6,9.63-12.6h16.19L546.82,60.26,547.36,77h-16l-.54-14.28L525.68,77Z"/><path class="cls-3" d="M549.78,77l11.16-31.21h25.7l-2.58,7.06h-9.75l-1.24,3.47h9.79l-2.54,7.06h-9.79l-2.3,6.56H578L575.48,77Z"/><path class="cls-3" d="M578.18,77l11.15-31.21h25.78a18.07,18.07,0,0,1,5.3.59q3,1,3,3.78a9.21,9.21,0,0,1-.63,3,10.08,10.08,0,0,1-3.47,5,13.34,13.34,0,0,1-5.69,2.14q4.44.86,4.44,4.41a13.44,13.44,0,0,1-.89,4.25q-1.68,4.68-5,6.47Q609.3,77,604,77Zm18.44-7.14h1.76a3.26,3.26,0,0,0,2-.51,3.87,3.87,0,0,0,1.13-1.75l.43-1.25a3.42,3.42,0,0,0,.27-1.17c0-.7-.58-1.06-1.75-1.06h-1.76Zm6.09-17-1.6,4.49h1.75a3,3,0,0,0,3.08-2.2c.32-.87.36-1.46.12-1.78s-.77-.51-1.6-.51Z"/><path class="cls-4" d="M441,73.49,449.36,50h19.32l-1.93,5.31h-7.33L458.48,58h7.36l-1.91,5.31h-7.36l-1.73,4.93h7.36l-1.9,5.3Z"/><path class="cls-4" d="M477.34,73.49l2.84-8a2.55,2.55,0,0,0,.21-.88c0-.53-.44-.79-1.32-.79h-1.32l-3.46,9.67h-12L470.71,50h19.38a13.65,13.65,0,0,1,4,.44,2.85,2.85,0,0,1,2.26,2.82,6.86,6.86,0,0,1-.47,2.31,7.59,7.59,0,0,1-2.58,3.73A10,10,0,0,1,489,60.94q3.34.64,3.34,3.32a9.89,9.89,0,0,1-.67,3.19l-2.17,6Zm3.43-18.15-1.2,3.37h1.32a2.26,2.26,0,0,0,2.31-1.65,2.84,2.84,0,0,0,.21-.92c0-.53-.44-.8-1.32-.8Z"/><path class="cls-4" d="M491.77,73.49,500.15,50h11.74l-3.41,9.47L515.73,50H527.9l-8.51,10.88.41,12.58h-12l-.41-10.73L503.5,73.49Z"/><path class="cls-4" d="M521.62,73.49,530,50h19.33l-1.94,5.31h-7.33L539.13,58h7.36l-1.9,5.31h-7.36l-1.73,4.93h7.36L541,73.49Z"/><path class="cls-4" d="M543,73.49,551.36,50h19.39a13.78,13.78,0,0,1,4,.44A2.88,2.88,0,0,1,577,53.32a7.06,7.06,0,0,1-.47,2.28,7.63,7.63,0,0,1-2.61,3.73,10.11,10.11,0,0,1-4.28,1.61c2.22.43,3.34,1.54,3.34,3.32a9.94,9.94,0,0,1-.68,3.19,8.41,8.41,0,0,1-3.78,4.87,13.08,13.08,0,0,1-6.16,1.17Zm13.87-5.36h1.32a2.39,2.39,0,0,0,1.49-.39,2.78,2.78,0,0,0,.85-1.31l.33-.94a2.74,2.74,0,0,0,.2-.88c0-.53-.44-.79-1.32-.79H558.4Zm4.57-12.79-1.2,3.37h1.32a2.27,2.27,0,0,0,2.32-1.65c.23-.66.26-1.1.09-1.34s-.58-.38-1.21-.38Z"/><g class="cls-5"><path class="cls-6" d="M688,258.26l-82.26-26.48q-3.76-1.22-7.55-2.39c-164.36-51.29-340.59-50.26-505,.84L3,258.26"/><path class="cls-7" d="M688,238.35l-82.26-26.48q-3.76-1.22-7.55-2.4c-164.36-51.29-340.59-50.26-505,.84L3,238.35"/><path class="cls-8" d="M688,218.43,605.71,192q-3.76-1.22-7.55-2.39c-164.36-51.29-340.59-50.26-505,.84L3,218.43"/><path class="cls-9" d="M688,198.51,605.71,172c-2.51-.81-5-1.6-7.55-2.39-164.36-51.29-340.59-50.26-505,.84L3,198.51"/></g></g></g></svg>