<svg xmlns="http://www.w3.org/2000/svg" viewBox="0 0 415.35 317.51"><defs><style>.cls-1{fill:#f7b690;}.cls-14,.cls-2{fill:#8980ff;}.cls-10,.cls-11,.cls-2,.cls-3,.cls-4{fill-rule:evenodd;}.cls-3{fill:#414a53;}.cls-5{fill:#f4a086;}.cls-6{fill:#f1eefc;}.cls-7{fill:#b5b3bd;}.cls-8{fill:#a9a9ff;}.cls-9{fill:#f7f6f0;}.cls-10{fill:#6a60d1;}.cls-11{fill:#7368e3;}.cls-12{fill:#2d3436;}.cls-13{fill:#7966ff;}</style></defs><title>ErkebFamGiftAsset 36</title><g id="Layer_2" data-name="Layer 2"><g id="Layer_3" data-name="Layer 3"><path class="cls-1" d="M257.73,118.85c-.34,3.17-.52,6.54.92,9.38s5.1,4.76,7.87,3.22c1.56-.87,2.45-2.57,3.26-4.17l13.63-27c3.75-7.41,7.59-15.28,7.12-23.58A19.76,19.76,0,0,0,286.82,66c-2-2.68-6.37-6.94-9.37-3.81s-5,8.56-6.93,12.41a133,133,0,0,0-12.79,44.24Z"/><path class="cls-2" d="M290.49,78.5a22,22,0,0,0-4.13-11.94c-2.23-3-3.53-10.46-6.87-7s-9.16,12.26-11.26,16.56A148,148,0,0,0,261,93.58l21.78,10.66C286.91,96.14,291,87.56,290.49,78.5Z"/><path class="cls-1" d="M258.42,118.23c2.21-2.72,6-3.67,9.47-3.28s6.69,1.92,9.83,3.42L295,126.69l17.85,8.6a3.81,3.81,0,0,1,2.25,2,2.57,2.57,0,0,1-1.34,2.78,7.06,7.06,0,0,1-3.19.7A92.73,92.73,0,0,1,284,138.27a93.82,93.82,0,0,1-12.89-4.12c-3.61-1.45-8.72-3-11.63-5.72S256,121.25,258.42,118.23Z"/><path class="cls-3" d="M295.77,138.49c6.63-1,38.1-1,44.73,0,8.24,1.22,7,11.58,6,17.78-1.13,6.76-2.52,14-7.44,18.75s-37,4.62-41.77,0-6.31-12-7.44-18.75C288.77,150.07,287.53,139.71,295.77,138.49Z"/><path class="cls-3" d="M411.24,166.9c3.46,3.86,5.72,10.18,2.72,14.18-2.55,3.39-73.59-3.28-84.1-3.28-7.46-9.61-7.17-24.2,12-34,4.1-2.1,8.59.11,13,1C367.73,147.56,402.64,157.33,411.24,166.9Z"/><path class="cls-3" d="M257.62,98.43c-5.13-.45-10.8,1.57-13.3,6.12-2,3.72-1.6,8.42.12,12.3s4.57,7.12,7.38,10.29C292.45,173,293.1,175,299.9,176.88c11.57,3.13,25.54,0,15.28-26.89C313.53,145.67,270.37,99.55,257.62,98.43Z"/><path class="cls-1" d="M293.77,192.14c-2.71-1.59-8.07-8.63-14.35-17.9L291.24,170C295.1,183.87,296.6,193.81,293.77,192.14Z"/><path class="cls-3" d="M247.33,99.2c7.21-3.51,14.31-2.6,20.07,6.82,7.76,12.69,18.16,43.68,23.84,64l-13.55,6.21c-8.58-19.77-25.5-45.42-32.05-57.06C242,112.64,241.65,102,247.33,99.2Z"/><path class="cls-1" d="M329.6,179.21l5.87,11.07c-8.76.59-15.81.69-18.79-.56S319.66,184.06,329.6,179.21Z"/><path class="cls-3" d="M399,166.71c11,0,16.37,5.69,16.37,9.7,0,6.81-4.17,14.1-14.55,14.1-13.19,0-46.25-.46-66.53.94l-4.66-12.24C344.57,171.91,382.94,166.71,399,166.71Z"/><path class="cls-4" d="M312.34,188.17c.4-.25,3.42-4.75,5.39-5.54,1.14-.46,2.69-1.2,3.91-.59,1.39.69,1.46,2.64,2.28,3.81a6.59,6.59,0,0,0,2.43,2.08l1.92-2.6c6.78,3.17,1.39,11.13,8.2,14.41a22.44,22.44,0,0,1,4.84,2.51c1.41,1.16,2.3,3.29,1.37,4.86a3.07,3.07,0,0,1-1.56,1.26L319.2,197.63s-.13-4.48.5-5a13.94,13.94,0,0,1-3.29,1.13Z"/><path class="cls-4" d="M278.94,192.73c-.07-1.84.69-3.35,1.46-3.78s2-3.5,3.61-8c.74-2.05,4.85-2.63,6.9.91.66,1.15,1.28,1.89,2,1.87s1.33-1.12,1.93-.4.67,2.33.81,3.54c.23,2.07.44,4.16.66,6.24.05.46.1.95.11,1.42H279.32A5.43,5.43,0,0,1,278.94,192.73Z"/><path class="cls-1" d="M378.54,118.85c.34,3.17.53,6.54-.92,9.38s-5.1,4.76-7.87,3.22c-1.55-.87-2.45-2.57-3.26-4.17l-13.63-27c-3.75-7.41-7.59-15.28-7.12-23.58A19.84,19.84,0,0,1,349.45,66c2-2.68,6.37-6.94,9.37-3.81s5,8.56,6.93,12.41a132.87,132.87,0,0,1,10,28A129.49,129.49,0,0,1,378.54,118.85Z"/><path class="cls-2" d="M345.75,78.5a22,22,0,0,1,4.13-11.94c2.23-3,3.54-10.46,6.87-7S365.91,71.84,368,76.14a148,148,0,0,1,7.19,17.44l-21.78,10.66C349.33,96.14,345.23,87.56,345.75,78.5Z"/><path class="cls-1" d="M377.28,119.8c-2.21-2.72-6-3.67-9.48-3.28s-6.68,1.92-9.83,3.42l-17.29,8.32-17.85,8.6a3.79,3.79,0,0,0-2.24,2,2.58,2.58,0,0,0,1.33,2.78,7.06,7.06,0,0,0,3.19.7,92.73,92.73,0,0,0,26.61-2.49,94.39,94.39,0,0,0,12.9-4.12c3.6-1.45,8.71-3,11.63-5.72S379.73,122.82,377.28,119.8Z"/><path class="cls-2" d="M278.6,60.57c2.12-2.59,5.32-4,8.45-5.17,9.19-3.4,30.29-12.31,31.09-12.3S340,52,349.23,55.4c3.13,1.16,6.32,2.58,8.44,5.17,2.84,3.46,3.2,8.44,2.19,12.81s-3.24,8.34-5.18,12.38a102.54,102.54,0,0,0-6,15.66,105.26,105.26,0,0,0-4.23,29.94c0,3.1,1.65,8.35.7,11.28-1.18,3.68-7.46,4.51-10.63,4.92a95.53,95.53,0,0,1-16.39.71,95.6,95.6,0,0,1-16.4-.71c-3.17-.41-9.45-1.24-10.63-4.92-.94-2.93.69-8.18.7-11.28a105.25,105.25,0,0,0-4.22-29.94,103.64,103.64,0,0,0-6-15.66c-1.93-4-4.16-8-5.17-12.38S275.77,64,278.6,60.57Z"/><path class="cls-5" d="M311.2,42c.86-2.79,1.32-8,3-9.85,1-1.11,6.37-1.11,7.39,0,1.71,1.85,2.17,7.06,3,9.85,1,3.12,1.8,6.87.8,9.95a5.73,5.73,0,0,1-3.7,3.9,27.16,27.16,0,0,1-7.64,0,5.73,5.73,0,0,1-3.69-3.9C309.4,48.89,310.24,45.14,311.2,42Z"/><path class="cls-1" d="M306.6,18.55c1.72-5.06,20.92-5.06,22.64,0A25.87,25.87,0,0,1,330,31.37,25.39,25.39,0,0,1,325.44,42c-1.53,2-3.52,5.08-5.75,6.1h-3.53c-2.23-1-4.23-4.05-5.76-6.1a25.38,25.38,0,0,1-4.58-10.63A25.87,25.87,0,0,1,306.6,18.55Z"/><path class="cls-4" d="M307.18,32c-.24-1.2-.76-2.32-1-3.52s-.66-2.58.21-3.44c.78,3.68,2.32,7.3,3.52,10.86A5.38,5.38,0,0,0,311,38a4.85,4.85,0,0,0,2.67,1.17c1.07.19,3.9-1,4.22-1s3.15,1.2,4.22,1A4.85,4.85,0,0,0,324.82,38a5.38,5.38,0,0,0,1.11-2.15,99,99,0,0,0,3-10.86,3.82,3.82,0,0,1,.76,3.44c-.23,1.2-.76,2.32-1,3.52a2.74,2.74,0,0,0-.05.28,4.35,4.35,0,0,0,.23,2.37,2.42,2.42,0,0,1,.36.92,6.17,6.17,0,0,1-.2,1.11,28.2,28.2,0,0,1-1.39,4.76,28.65,28.65,0,0,1-2.2,4.44c-.43.7-.89,1.39-1.38,2-.21.28-1.17,1.86-1.49,1.86l-3.75,1.08h-1.75l-3.75-1.08c-.32,0-1.29-1.58-1.49-1.86-.49-.66-.95-1.35-1.38-2a28.65,28.65,0,0,1-2.2-4.44,27.31,27.31,0,0,1-1.39-4.76,6.17,6.17,0,0,1-.2-1.11,2.27,2.27,0,0,1,.36-.92,4.35,4.35,0,0,0,.23-2.37A2.74,2.74,0,0,0,307.18,32Z"/><path class="cls-4" d="M299.12,8.07a8.58,8.58,0,0,1,10.1-2.85c1.45.63,2.75,1.7,4.29,2,1.8.38,3.63-.3,5.34-1s3.51-1.43,5.32-1.15,3.58,2,3.35,3.94a6.32,6.32,0,0,1,7.12,2,7.65,7.65,0,0,1,.84,7.88c-.74,1.5-2,2.7-2.51,4.29-.62,1.82.09,6.2-2.06,7-1.66.65-2.59-12.68-7.25-13a8,8,0,0,1-9.69,1.6c-1.16-.65-2.39-1.64-3.64-1.21A4.82,4.82,0,0,0,307.92,19c-1.3,1.81-.92,10.07-2.71,11.43a24.13,24.13,0,0,1-1.12-9.14,5.92,5.92,0,0,1-2.39-.42c-2.2-.91-3.84.1-4.3-2.4S297.64,10.05,299.12,8.07Z"/><path class="cls-1" d="M332.2,31a4.86,4.86,0,0,0,.71-2.84c-.12-1-.94-1.93-1.86-1.81a1.91,1.91,0,0,0-1.34,1,6.81,6.81,0,0,0-.56,1.74c-.22,1-.45,2.09-.68,3.14-.19.88-.31,2,.39,2.51C330.12,35.76,331.69,32,332.2,31Z"/><path class="cls-1" d="M303.8,31a4.8,4.8,0,0,1-.72-2.84c.13-1,.94-1.93,1.86-1.81a1.89,1.89,0,0,1,1.34,1,6.44,6.44,0,0,1,.56,1.74c.23,1,.46,2.09.68,3.14.2.88.31,2-.38,2.51C305.87,35.76,304.3,32,303.8,31Z"/><path class="cls-6" d="M289.58,143.78h58.23a5.27,5.27,0,0,0,5.22-4.85l3-36.33a5.27,5.27,0,0,0-5.22-5.74H286.55a5.28,5.28,0,0,0-5.22,5.74l3,36.33A5.25,5.25,0,0,0,289.58,143.78Z"/><path class="cls-7" d="M355.93,104.15a5.26,5.26,0,0,0-5.1-4H286.55a5.26,5.26,0,0,0-5.09,4l-.13-1.55a5.28,5.28,0,0,1,5.22-5.74h64.28a5.27,5.27,0,0,1,5.22,5.74Z"/><path class="cls-8" d="M275.09,0h-56a5.3,5.3,0,0,0-5.3,5.3V30.44a5.3,5.3,0,0,0,5.3,5.3H252l13.63,13.62V35.74h9.43a5.3,5.3,0,0,0,5.3-5.3V5.3A5.3,5.3,0,0,0,275.09,0Z"/><path class="cls-9" d="M231.57,11.63h31.08a1.53,1.53,0,1,0,0-3.06H231.57a1.53,1.53,0,0,0,0,3.06Zm31.08,2.12H231.57a1.53,1.53,0,0,0,0,3.06h31.08a1.53,1.53,0,1,0,0-3.06Zm0,5.18H231.57A1.52,1.52,0,0,0,230,20.46h0A1.53,1.53,0,0,0,231.57,22h31.08a1.53,1.53,0,0,0,1.53-1.53h0A1.52,1.52,0,0,0,262.65,18.93Zm-14.28,5.18h-16.8a1.53,1.53,0,0,0,0,3.06h16.8a1.53,1.53,0,0,0,0-3.06Z"/><path class="cls-10" d="M81.21,227.66l-4-22.71c-1.43-8.13-2.87-16.4-2.14-24.85s1.68-19.48,7.82-24.77c7.84-6.76,20.29-9.28,22.8,2.11,8.81,40.05-12.53,104.21-16.86,118.68q-1.8,6-3.79,12H74C75.71,265.64,75.59,239.73,81.21,227.66Z"/><path class="cls-5" d="M74,288.09h11q-2.33,7-4.88,13.9c-.59,1.61-1.44,3.45-3.09,3.93-2.11.62-4.92-1.24-4.61-3.39C73.13,298,73.61,293.14,74,288.09Z"/><path class="cls-11" d="M73.52,237.29c-1.35,3.66-3.53,7.78-7,7.9-2.11.08-4.06-1.48-5.26-3.46a23.74,23.74,0,0,1-2.37-6.67L51.42,205c-2-8.13-4.05-16.4-3.93-24.85s2.7-17.25,8.45-22.54c7.36-6.76,20.73-5.95,23.36,5.57,3.47,15.27,3.3,32.24,1,47.69A134.73,134.73,0,0,1,73.52,237.29Z"/><path class="cls-11" d="M58.88,227.54c10.24-6.28,19.65,4.6,12.23,14.41-9,11.85-19.81,22.73-30.45,33.06-2.81,2.74-5.67,5.42-8.56,8.07l-8.47-7.49C36,256.49,48.42,234,58.88,227.54Z"/><path class="cls-1" d="M23.63,275.59l8.47,7.49q-5.52,5.07-11.22,9.93c-1.29,1.09-2.89,2.25-4.51,1.77-2.06-.61-3.52-3.77-2.22-5.48C17.28,285.18,20.45,280.5,23.63,275.59Z"/><path class="cls-4" d="M6,291.66c2.34-2.07,7-5.39,10-4.76a4.17,4.17,0,0,0-.08,3.6c.46.66,4.51,2.46,4.75,3.22.9,2.88-11.74,5.39-4.81,13.49.65.76,3,1.16,3.33,2.12a2.88,2.88,0,0,1-.51,2.83,1.73,1.73,0,0,1-.21.17c-8.73,0-10.86-4.78-13.92-9.5.35-1.1.85-2.08,4-9a29.67,29.67,0,0,0-7.35,4.65L0,296.93Z"/><path class="cls-11" d="M81.77,181.25c-5.66-.15-47.4,3.48-24.29-33.17,3.22-5.1,11.39-5.66,17.38-6.42,8.11-1,23.91-.94,27.81,6.42C114.84,171.06,88,181.43,81.77,181.25Z"/><path class="cls-12" d="M88.36,100.15c-1.71-6-3-12.79-1-18.87.61-1.9.73-2.21,2.43-1.26a17.47,17.47,0,0,1,3.62,3.2,39.59,39.59,0,0,1,5.55,7.44,71.66,71.66,0,0,1,4.25,8.72L90.25,106Q89.22,103.12,88.36,100.15Z"/><path class="cls-5" d="M103.17,99.38c.83,2,1.61,4,2.39,6l12.84,33a5.14,5.14,0,0,1,.51,3.24c-.5,1.7-2.68,2.41-4.38,1.91a9.57,9.57,0,0,1-4.16-3.18A104.16,104.16,0,0,1,90.25,106Z"/><path class="cls-5" d="M137.76,167.34c1.09.5,2.54.9,3.35,0s.35-2.17-.13-3.2c-4.09-8.71-22.66-29.65-27-29.75-4-.09-5.83,2.09-4.4,5.82C112.53,147.84,133.4,165.35,137.76,167.34Z"/><path class="cls-1" d="M139.64,169.59a8.8,8.8,0,0,0,7,2.48,9,9,0,0,0,5.17-3.13c.58-.67,1.12-1.68.59-2.4s-1.41-.57-2.19-.75c-1.77-.4-2.78-2.19-4.11-3.42a7.5,7.5,0,0,0-5.51-2c-1.59.1-5.06,1.14-5.17,3.14S138.38,168.44,139.64,169.59Z"/><path class="cls-6" d="M68.94,130.33c3.7-14.15-9.65-26-6-40.17C65.39,80.5,76.12,72.88,85.81,73s14.47,6.65,16.53,15.72c1,4.3,3.83,9.54,2.53,14.1-.91,3.19-2.34,6.28-3.38,9.45a48.77,48.77,0,0,0-1.93,19.48c.47,5.55,2.52,10.84,3.11,16.32H57.48C59.15,145.8,67.88,134.42,68.94,130.33Z"/><path class="cls-8" d="M99.74,110.55h9.48a1.44,1.44,0,0,0,1.3-1l5.79-20.13a.74.74,0,0,0-.73-1H106.1a1.44,1.44,0,0,0-1.3,1L99,109.53A.75.75,0,0,0,99.74,110.55Z"/><path class="cls-13" d="M99,109.53,104.8,89.4a1.44,1.44,0,0,1,1.3-1h1a1.44,1.44,0,0,0-1.3,1L100,109.53a.75.75,0,0,0,.73,1h-1A.75.75,0,0,1,99,109.53Z"/><path class="cls-4" d="M70.18,309.59a18.49,18.49,0,0,1,.21-5.85,9.33,9.33,0,0,1,2.59-5c.38.94,1.34,2.21,2.35,2.25.8,0,4.75-1.64,5.5-1.37.54.2,1.41,7.87,3.79,9.49s5.17,2.53,7.78,3.74a7.32,7.32,0,0,1,2.5,1.65,2.89,2.89,0,0,1,.72,2.78,1.79,1.79,0,0,1-.12.24H78.18a21.53,21.53,0,0,1-1.09-1.86l-3.63-6.8a29.38,29.38,0,0,0-.79,8.66H70.73C70.55,314.87,70.36,312.23,70.18,309.59Z"/><path class="cls-6" d="M57.49,91.46c1.44-4.66,4-9.12,8-11.94,1-.7,2.24-1.3,3.34-.83a3.78,3.78,0,0,1,1.76,2.74c1.8,7.18.78,14.69-.49,22l-14.41-2.26A50.89,50.89,0,0,1,57.49,91.46Z"/><path class="cls-1" d="M55.25,105.89c.13-1.56.26-3.13.43-4.7l14.41,2.26c-.13.7-.25,1.4-.37,2.09q-1.95,11-3.91,22c-.48,2.75-.42,6-2.89,7.84a5.67,5.67,0,0,1-6.25.35,7.35,7.35,0,0,1-2.94-4.87,21.8,21.8,0,0,1,0-5.82Z"/><path class="cls-1" d="M91.83,110.17c1.49-.83,5-2.7,5.94-1.25.69,1.12-1.59,3.85-2.6,4.7-7,5.9-32.22,22.29-34.29,22.8-3.42.83-9.59-5.35-6.55-9.28S78.29,117.68,91.83,110.17Z"/><path class="cls-1" d="M94.85,106l6.18-5.13c.58,0,.86.78.6,1.31s-.79.84-1.16,1.29-.53,1.21,0,1.55,1.11,0,1.57-.42l6.25-5.14c1.87,1,2.56,3.5,2,5.55a10.47,10.47,0,0,1-3.69,5.08,25.42,25.42,0,0,1-7.67,4.37,7.05,7.05,0,0,1-5,.3C89.89,113.07,92.67,107.82,94.85,106Z"/><path class="cls-4" d="M109.16,40.65a9,9,0,0,0-14-7.44c-1.37.89-2.54,2.17-4.11,2.61-2.08.58-4.22-.45-6.35-.71A9,9,0,0,0,76.32,39c-3.64,5.52-.39,13.56-3.87,19.17-1.59,2.56-4.32,4.16-7,5.47s-5.56,2.49-7.75,4.56-3.59,5.31-2.53,8.13c.75,2,2.57,3.41,4.37,4.6A32.19,32.19,0,0,0,66,84.07c5.17,2,11-2.56,13.9-9A56.86,56.86,0,0,0,95,62.24C96.72,60,96.92,57,98.18,54.49s3.22-3.73,5.55-5A11.63,11.63,0,0,0,108,45.09,8.93,8.93,0,0,0,109.16,40.65Z"/><path class="cls-5" d="M93.56,62.54c-3.41,4.89-2.44,14-2.49,14-1.19,1.35-8,.88-11.22-1.48,3.2-3.52,4.43-16.27,5.52-17.25a3.3,3.3,0,0,1,3.9,0C91.12,59.1,92.42,58.65,93.56,62.54Z"/><path class="cls-1" d="M97.37,65.3a16.75,16.75,0,0,0,3.34-5,30.59,30.59,0,0,0,3-7.69,10.5,10.5,0,0,0-1.28-8c-1.89-2.75-5.37-4-8.71-4.16-2.89-.13-6,.59-8,2.71a14.1,14.1,0,0,0-2.37,4.06,17.2,17.2,0,0,0-1.79,5.84,11.13,11.13,0,0,0,1.85,6.43,27,27,0,0,0,4.43,5.13A12.09,12.09,0,0,0,91,67C93.4,68.1,95.58,66.93,97.37,65.3Z"/><path class="cls-4" d="M93,45.44c-2,2-2.8,5.28-5.3,6.69a5,5,0,0,1-6.26-1.34,5.7,5.7,0,0,1-.7-5.09A8.3,8.3,0,0,1,84,41.56a15.51,15.51,0,0,1,4.84-2.16,19,19,0,0,1,8.12-.68,12.17,12.17,0,0,1,4.83,1.85c1.1.73,3.16,2.27,2.94,3.81s-1.56,1.3-2.44.64a6.92,6.92,0,0,0-4.4-1.62A7.09,7.09,0,0,0,93,45.44Z"/><path class="cls-1" d="M84.33,50.2A4.43,4.43,0,0,0,83,49.35a2,2,0,0,0-1.56.08,2.37,2.37,0,0,0-1,1.84,3.4,3.4,0,0,0,2.68,3.9,2.28,2.28,0,0,0,2.64-2.12A3.17,3.17,0,0,0,84.33,50.2Z"/><path class="cls-14" d="M128.64,36.23h36.72a3.47,3.47,0,0,1,3.47,3.48v16.5a3.47,3.47,0,0,1-3.47,3.47H143.77l-8.94,8.94V59.68h-6.19a3.47,3.47,0,0,1-3.48-3.47V39.71A3.48,3.48,0,0,1,128.64,36.23Z"/><path class="cls-9" d="M158.2,42.86a1,1,0,0,0-1-1H136.8a1,1,0,0,0,0,2h20.4A1,1,0,0,0,158.2,42.86Zm-22.4,3.4a1,1,0,0,0,1,1h20.4a1,1,0,0,0,0-2H136.8A1,1,0,0,0,135.8,46.26Zm0,3.4h0a1,1,0,0,0,1,1h20.4a1,1,0,0,0,1-1h0a1,1,0,0,0-1-1H136.8A1,1,0,0,0,135.8,49.66Zm9.37,3.39a1,1,0,0,0,1,1h11a1,1,0,0,0,0-2h-11A1,1,0,0,0,145.17,53.05Z"/></g></g></svg>