<svg xmlns="http://www.w3.org/2000/svg" viewBox="0 0 750 555.97"><defs><style>.cls-1{fill:#f1eefc;}.cls-2{fill:#a9a9ff;}.cls-3{fill:#8980ff;}.cls-4,.cls-8{fill:#7966ff;}.cls-5{fill:#f4a086;}.cls-6{fill:#414a53;}.cls-10,.cls-6,.cls-8,.cls-9{fill-rule:evenodd;}.cls-7{fill:#f7b690;}.cls-10{fill:#0a3c5f;}</style></defs><title>ErkebFamBGAsset 34</title><g id="Layer_2" data-name="Layer 2"><g id="Layer_3" data-name="Layer 3"><path class="cls-1" d="M750,556H0V32l81.67,28.8a879.91,879.91,0,0,0,586.66,0L750,32Z"/><path class="cls-2" d="M750,556H0V94l81.67,28.8a879.91,879.91,0,0,0,586.66,0L750,94Z"/><path class="cls-3" d="M750,556H0V157l81.67,28.8a879.91,879.91,0,0,0,586.66,0L750,157Z"/><path class="cls-4" d="M750,556H0V223l81.67,28.8a879.91,879.91,0,0,0,586.66,0L750,223Z"/><path class="cls-5" d="M137.93,119.75c-.65.66-1.49,1.37-2.39,1.16-1.56-.35-1.22-2.6-.53-4l2.24-4.61,4.62,2.42A20.83,20.83,0,0,1,137.93,119.75Z"/><path class="cls-6" d="M159.71,75.35c4.82-3.57,30.59-4,42.91-5.26,9.2-.91,18.41-.61,17.39,11.36a13.93,13.93,0,0,1-8.92,11.62c-5.29,2-11.16.49-16.6-1l-27.12-7.33c-3.77,13.56-16.46,16.14-24.75,30.34l-7.55-3.19C141.28,105.69,157.24,77.47,159.71,75.35Z"/><path class="cls-7" d="M193.3,123.46c.24.9.43,2-.2,2.66-1.08,1.17-2.86-.24-3.75-1.56l-2.86-4.24,5.39-1.91Q192.62,120.93,193.3,123.46Z"/><path class="cls-6" d="M219.39,94.74c-5.3,1.94-11.16.48-16.61-1L170.54,85c-1.72-.46-3.62-1.07-4.43-2.65-1-1.85.16-4.22,1.89-5.36A12.79,12.79,0,0,1,174,75.43l37-3.67c9.2-.92,18.42-.62,17.39,11.35A13.94,13.94,0,0,1,219.39,94.74Z"/><path class="cls-6" d="M166,79.73c3.89-7,15.91,10.72,17.73,15.19a241.6,241.6,0,0,1,8.18,23.49l-6.8,3.61c-2.29-8.49-8.62-16.54-13.64-24a25.44,25.44,0,0,1-4.05-7.82C166.66,87.35,165.27,81,166,79.73Z"/><path class="cls-8" d="M213.86,43.79c1.66-3.22,3.19-7,2.76-10.66-.13-1.16-.17-1.35-1.24-1a10.26,10.26,0,0,0-2.44,1.41,22.67,22.67,0,0,0-4,3.62,42.71,42.71,0,0,0-3.44,4.49l6.63,5.29C212.72,45.91,213.31,44.86,213.86,43.79Z"/><path class="cls-5" d="M205.48,41.65c-.7,1-1.37,2.09-2,3.15L192.31,62.17a3.06,3.06,0,0,0-.66,1.8,2.05,2.05,0,0,0,2.28,1.59,5.64,5.64,0,0,0,2.75-1.34,60.85,60.85,0,0,0,15.43-17.28Z"/><path class="cls-7" d="M192.31,41.28c.27-.64.74-1.38,1.43-1.32s1,.8,1.2,1.43c1.67,5.35,1.9,21.67.08,23.41s-3.33,1.39-4.18-.78C189.11,59.6,191.21,43.85,192.31,41.28Z"/><path class="cls-3" d="M201.79,43.46l-5.42-1.09a.84.84,0,0,1-.63-.72l-1-12.17a.43.43,0,0,1,.53-.5l5.42,1.09a.83.83,0,0,1,.63.73l1,12.17A.43.43,0,0,1,201.79,43.46Z"/><path class="cls-4" d="M202.32,43l-1-12.17a.83.83,0,0,0-.63-.73l-.57-.12a.83.83,0,0,1,.62.73l1,12.17a.44.44,0,0,1-.54.5l.58.11A.43.43,0,0,0,202.32,43Z"/><path class="cls-7" d="M192.23,39.58a4.59,4.59,0,0,1,5.5-4.5c.52.05,1.14.28,1.2.79s-.39.81-.65,1.19c-.61.86-.34,2-.43,3.08a4.34,4.34,0,0,1-1.6,3c-.73.58-2.63,1.5-3.47.68S192.14,40.57,192.23,39.58Z"/><path class="cls-8" d="M229,45.49c-1.48,4.31-4.05,8.27-4.87,12.76a17.3,17.3,0,0,0,2.89,13c1.63,2.29,4,5,2.71,7.51-1.13,2.27-4.27,2.38-6.8,2.16-5.5-.46-11.71-1.32-14.93-5.81-2-2.75-2.34-6.3-2.47-9.68a91,91,0,0,1,1.11-17.91c.82-5,2.22-10.29,5.91-13.81s7.44-5.57,11.83-3.19C228.68,36.83,230.49,41.21,229,45.49Z"/><path class="cls-9" d="M140.84,116.79c-.41.47-1.87.44-2.46.35s-2.37-1.45-2.85-1.39-2.45,4.19-4.15,4.81a36.26,36.26,0,0,1-5.23,1.18,5.12,5.12,0,0,0-1.77.62,2,2,0,0,0-1,1.46.77.77,0,0,0,0,.15l9.9,2c.35-.28.68-.59,1-.9l3.49-3.35c0,1.48-.08,3.19-.18,5.12l1.1.22C139.39,125.6,141.8,118.62,140.84,116.79Z"/><path class="cls-9" d="M196.06,129.13a11.08,11.08,0,0,0-.72-3.34,5.5,5.5,0,0,0-2-2.61c-.12.58-.55,1.41-1.12,1.53s-2.9-.45-3.3-.22,0,4.08-1,5.56c0,0-2.57,1.24-3.89,1.82a4.45,4.45,0,0,0-1.47.94,1.67,1.67,0,0,0-.44,1.62.84.84,0,0,0,.06.14l8.83.15,1.25-.23a11.84,11.84,0,0,0,.43-1.18c.47-1.42.93-2.85,1.39-4.27a16.91,16.91,0,0,1,1.34,4.89l1.11-.2C196.39,132.19,196.22,130.66,196.06,129.13Z"/><path class="cls-5" d="M225.54,20.16c-.25-.87-5.27.57-5.65,1.07s-1.95,6.8-3.71,10.57c-.39.82,8.62-.1,8.22-1.26C223.77,28.67,224.05,22.06,225.54,20.16Z"/><path class="cls-7" d="M213.59,11.81c2.87-6.2,11.51-3,13.5-2s1.44,4.08,1.2,6.33a5.66,5.66,0,0,1-1.94,3.55c-1,.89-4.69,1.77-4.89,1.77-1.69,1.92-4.23,4-6.31,3.54a3.14,3.14,0,0,1-2.06-1.84,9.14,9.14,0,0,1-.63-2.78A15.69,15.69,0,0,1,213.59,11.81Z"/><path class="cls-9" d="M228.25,18.69a6.75,6.75,0,0,0,2.19-3,6.2,6.2,0,0,0-.28-4.3C229.15,9,226,5.51,223,4.85c-3.19-.7-9.32,1.38-9.6,5.44-.08,1.22.57,1.36,1.63,2,1.39.8,3.32,1.55,4.37,2.77,1.25,1.46,0,4.13,2.87,5.65.92.49,1.58,2.42,2,3.9C225.2,23.84,227.32,19.44,228.25,18.69Z"/><path class="cls-9" d="M231.11,27.75c0,1.28-.65,2.46-.83,3.73-.42,2.94,1.88,5.59,2.23,8.54a4.46,4.46,0,0,1-.75,3.26,2.72,2.72,0,0,1-3,1,3.84,3.84,0,0,1-1.95-3.05,9.89,9.89,0,0,0-.94-3.64c-1-1.65-3.3-2.23-4.28-3.92S220.46,28,221,25.21c1.09-5.44,3.83-10,6.28-8.74,1.47.77,1.35,3.7,1.51,5C229.1,23.76,231,25.5,231.11,27.75Z"/><path class="cls-7" d="M224.12,18.38a1.16,1.16,0,0,1,.18.63,2.66,2.66,0,0,1-.73,1.89,2.62,2.62,0,0,1-1.86.8,1.14,1.14,0,0,1-.77-.23c-.7-.65,0-2.25.55-2.83S223.57,17.61,224.12,18.38Z"/><path class="cls-8" d="M225.83,43.44a13.16,13.16,0,0,0-3.2-7.74,2.1,2.1,0,0,0-1.81-.86c-.64.14-1,.78-1.32,1.37-1.85,3.89-2.13,8.31-2.24,12.64l8.49.36A29.28,29.28,0,0,0,225.83,43.44Z"/><path class="cls-7" d="M225.46,52c.1-.91.21-1.82.29-2.74l-8.49-.36,0,1.24q-.15,6.51-.29,13c0,1.62-.45,3.51.76,4.81a3.29,3.29,0,0,0,3.53.92,4.33,4.33,0,0,0,2.24-2.45,12.82,12.82,0,0,0,.69-3.32Q224.81,57.51,225.46,52Z"/><path class="cls-7" d="M198.57,74.36c-.89.43-3,1.49-2.6,2.41.31.71,2.37.54,3.12.34,5.16-1.34,21.45-7.83,22.39-8.64,1.55-1.35.69-6.37-2.21-6.24S206.7,70.44,198.57,74.36Z"/><path class="cls-7" d="M195.57,74.4l-4.52,1.22c-.22.25.08.67.42.72a4.27,4.27,0,0,0,1-.12c.34,0,.76.16.76.5s-.4.51-.73.6L188,78.57a2.87,2.87,0,0,0,2,2.83,6.1,6.1,0,0,0,3.66-.05,14.94,14.94,0,0,0,4.66-2.18,4.12,4.12,0,0,0,1.82-2.28C200.6,74.42,197.17,74,195.57,74.4Z"/><path class="cls-5" d="M551.76,28.25a36.91,36.91,0,0,0-20.93-.32c-1.22.35-2.63,1-2.83,2.23a2.34,2.34,0,0,0,.67,1.9,6.56,6.56,0,0,0,1.67,1.23c7,4,14.58,7.06,22.1,10.06a29.48,29.48,0,0,0,7.13,2.16,9.8,9.8,0,0,0,7.11-1.58c1-.78,2.33-2.33,2.18-3.74-.11-1.14-1.55-2.23-2.29-3a37.21,37.21,0,0,0-9-6.54A36.72,36.72,0,0,0,551.76,28.25Z"/><path class="cls-8" d="M526.88,31.38c-1.06-.75-2.21-1.77-2.07-3.06s2.32-2.69,3.62-3.1c7.9-2.49,16-1.56,23.68,1.41l-7.73,13.94A76.14,76.14,0,0,1,526.88,31.38Z"/><path class="cls-5" d="M587.67,26a2.74,2.74,0,0,1,1.72,3c-.17,1.26-20.69,14.54-24.95,15.85-1.29.4-2.81.76-3.91,0a3.93,3.93,0,0,1-1.21-3.28,12.63,12.63,0,0,1,1.49-6.21c.75-1.21,2.09-1.17,3.33-1.57C568.69,32.36,586.89,25.8,587.67,26Z"/><path class="cls-5" d="M589,23.49c.42-.44,1.18-.88,1.55-.39a.93.93,0,0,1-.09,1,2.44,2.44,0,0,0-.51.95c-.09.62.53,1.16,1.16,1.22a3.6,3.6,0,0,0,1.79-.47l4.62-2.16c.64-.3,1.48-.57,2-.07a1.61,1.61,0,0,1,.22,1.47,8,8,0,0,1-9.33,6.17,5.8,5.8,0,0,1-3.25-1.72C584.83,26.91,587.21,25.35,589,23.49Z"/><path class="cls-10" d="M534.14,94.21c.66,2,5.56-.67,7.56-1.2,16.46-4.33,24.57-12.18,20.31-19.14-4.38-7.16-18.78-2-25.82,2.5-1.51,1-3.79,2.13-4.52,4C530.62,83,531.76,86.93,534.14,94.21Z"/><path class="cls-6" d="M545.26,76c2.32-8.8,6.47-17.7,11-25.84a137.92,137.92,0,0,1,9-14.15c1.33-1.83,3-3.83,5.06-3.91.89,0,2.55,1.41,6.76,3.54L564.55,84.3C563.62,87.89,541.8,89.1,545.26,76Z"/><path class="cls-8" d="M533.27,25.14c-12-4.27-18,10.18-14.68,22.72,2.94,11.2,6,11.33,9.71,39.74l21.86-5.75,6.54-7.77C549.4,57.2,552.17,31.85,533.27,25.14Z"/><path class="cls-6" d="M534.13,77.8c8.81-2.25,18.61-3,27.91-3a137.94,137.94,0,0,1,16.74,1c2.25.27,4.84.8,5.88,2.52.46.76,0,2.91.21,7.62L535.64,96.67C532.05,97.61,521,81.15,534.13,77.8Z"/><path class="cls-9" d="M540.12,13c-.38.74-.94.58-1-.24-.09-2.64,0-3.05-1.36-5.33-.74-1.26-1-1.35-.39-1.83C539.3,4,543.25,6.84,540.12,13Z"/><path class="cls-5" d="M532,14.71c-1.83-3.52-4.89-3.65-6.3-2.32.79,7.28.53,10.67-1.21,15.21,4,1.29,10.09,2.85,10.88.74C535.27,27.76,533,16.53,532,14.71Z"/><path class="cls-7" d="M528.56,7.07a6,6,0,0,1,10.13.72c2,3.62.59,11.64-.86,13.39-2.52,3.05-8.49.13-9.43-2C527,16.13,526.5,10,528.56,7.07Z"/><path class="cls-9" d="M529.92,17.47a1.62,1.62,0,0,0,.46,1.16,1.08,1.08,0,0,0,1,.09,4.6,4.6,0,0,0,.91-.53,8.21,8.21,0,0,1,4.26-1.37,2.73,2.73,0,0,1,1.94.52,2.6,2.6,0,0,1,.73,1.48,4.85,4.85,0,0,1,0,2.11,3.14,3.14,0,0,1-1.11,1.77,4.41,4.41,0,0,1-2.84.64,10.25,10.25,0,0,1-5-1.4,6.58,6.58,0,0,1-3-4.16,5.62,5.62,0,0,1,.11-2.61,3.44,3.44,0,0,1,1.22-1.87c1-.67,1,.29,1,.95Z"/><path class="cls-9" d="M530,8.06c.2.59-.7,8.68-.93,8.6-.8-.28-2-2.45-3.42-2.27-.47,0-1.1.4-1.18-.54-.51-6-.73-5.68.31-6.3C527.1,6.19,529.67,7,530,8.06Z"/><path class="cls-9" d="M523.23,4.74C527.9,1,535.85-.84,538.27.37c3.59,1.82,1.42,7.79.14,8.2-.58.18-1.16-.25-1.68-.56-2.51-1.48-4.57-.09-6.35.36C527.23,9.16,519.24,7.94,523.23,4.74Z"/><path class="cls-7" d="M524.33,13.55a3.84,3.84,0,0,0,1,2.68c1.9,2,3.47-1,2.95-2.79C527.65,11.31,524.4,10.9,524.33,13.55Z"/><path class="cls-5" d="M596.28,80a13.08,13.08,0,0,0,5.12-3l-4.17-5.83a2,2,0,0,0-.64-.64,1.87,1.87,0,0,0-1.34,0c-1.62.48-3.9,1.49-2.85,3.25C593.66,75.78,595,77.86,596.28,80Z"/><path class="cls-6" d="M576.9,33.59c-3.91-2.54-12.12-2.77-10.59,5.21,2.46,12.87,16.6,25.94,26.1,36.89l5.9-3.47C598,70.93,579.07,35,576.9,33.59Z"/><path class="cls-9" d="M614.16,77.2a2.14,2.14,0,0,0-2.25-1.5,13.68,13.68,0,0,0-2.86.68,7.92,7.92,0,0,1-7.66-2.33,2,2,0,0,0-.9-.71,1.32,1.32,0,0,0-1.31.62,13.49,13.49,0,0,0-.71,1.36,3.5,3.5,0,0,1-2.16,1.6c-.75.19-1.73-.16-2.35.4s-.48,1.42-.48,2.08c0,1.15,0,2.29.06,3.44a6.65,6.65,0,0,0,.06.77l5.17-1.36a7.81,7.81,0,0,0,.09-1.88,4.09,4.09,0,0,0,.9,1.62L614,78.25A1.62,1.62,0,0,0,614.16,77.2Z"/><path class="cls-5" d="M592.48,130.55a13,13,0,0,0,5.62-2q-1.47-3.25-3-6.53a1.84,1.84,0,0,0-.5-.76,1.86,1.86,0,0,0-1.31-.27c-1.68.15-4.12.7-3.43,2.63C590.73,126,591.63,128.25,592.48,130.55Z"/><path class="cls-6" d="M585.75,79.25c-3.07-3.5-10.92-6-11.61,2.16-1.12,13,9,29.46,15.14,42.57l6.62-1.74C595.91,120.9,587.45,81.2,585.75,79.25Z"/><path class="cls-9" d="M588.76,130.54c.57-.67,1.11-5.86,2.57-5.65.82.12,1.21,1.43,1.83,1.89a5.33,5.33,0,0,0,2.08.48l.57-1.64c4,.5,2.53,5.44,6.56,6a12.29,12.29,0,0,1,2.91.48,2.14,2.14,0,0,1,1.49,2.25,1.66,1.66,0,0,1-.59.9l-13-1.86s-.8-2.26-.56-2.62c-.33.28-1,2.12-1.43,2.25Z"/><path class="cls-7" d="M535.46,53.15a36.72,36.72,0,0,1-12.84-16.51c-.47-1.19-.81-2.69.07-3.61a2.39,2.39,0,0,1,1.92-.61,6.64,6.64,0,0,1,2,.6c7.45,3.18,14.41,7.4,21.33,11.6a29,29,0,0,1,6,4.39,9.79,9.79,0,0,1,3,6.63c0,1.3-.45,3.26-1.67,4-1,.59-2.72.1-3.75,0a37,37,0,0,1-10.63-3.23A36.4,36.4,0,0,1,535.46,53.15Z"/><path class="cls-8" d="M523.67,31.43c-4.1-1.32-5.32,2.45-4,6.21,2.77,7.8,7.68,12.4,14.7,16.77l6.48-14.56A71.61,71.61,0,0,0,523.67,31.43Z"/><path class="cls-7" d="M574.6,34.6A2.73,2.73,0,0,1,577,37.08c.16,1.26-16.27,19.37-20,21.73-1.15.71-2.53,1.45-3.79,1a3.9,3.9,0,0,1-2-2.85,12.44,12.44,0,0,1-.15-6.38c.41-1.37,1.72-1.68,2.81-2.38C557.88,45.6,573.78,34.59,574.6,34.6Z"/><path class="cls-3" d="M577.86,40.41l6.5-1.71a1,1,0,0,0,.7-.93l.35-14.83a.53.53,0,0,0-.69-.56l-6.49,1.71a1,1,0,0,0-.71.93l-.34,14.82A.53.53,0,0,0,577.86,40.41Z"/><path class="cls-4" d="M577.18,39.84,577.52,25a1,1,0,0,1,.71-.93l.69-.18a1,1,0,0,0-.71.93l-.34,14.82a.53.53,0,0,0,.69.56l-.7.19A.53.53,0,0,1,577.18,39.84Z"/><path class="cls-7" d="M576.66,31.45c.42-.45,1.17-.9,1.55-.42a.93.93,0,0,1-.07,1,2.51,2.51,0,0,0-.49,1c-.08.63.56,1.15,1.18,1.2a3.59,3.59,0,0,0,1.79-.51l4.57-2.26c.63-.31,1.47-.6,2-.11a1.59,1.59,0,0,1,.25,1.46,8,8,0,0,1-9.2,6.37,5.82,5.82,0,0,1-3.29-1.65C572.56,35,574.91,33.35,576.66,31.45Z"/></g></g></svg>