<svg xmlns="http://www.w3.org/2000/svg" viewBox="0 0 32.77 22.5"><defs><style>.cls-1{fill:#15171a;stroke:#fff;stroke-miterlimit:10;stroke-width:0.5px;}</style></defs><title>IconBetalingenAsset 8</title><g id="Layer_2" data-name="Layer 2"><g id="Layer_3" data-name="Layer 3"><path id="path" class="cls-1" d="M29.58,13.6V8.9a7.34,7.34,0,0,1-5.72-5.72H8.9A7.34,7.34,0,0,1,3.18,8.9v4.7A7.34,7.34,0,0,1,8.9,19.32h15A7.34,7.34,0,0,1,29.58,13.6Zm0,3a4.41,4.41,0,0,0-2.68,2.69h1.94a.74.74,0,0,0,.74-.74h0Zm-26.4,0v1.95a.74.74,0,0,0,.74.74H5.86a4.41,4.41,0,0,0-2.68-2.69ZM26.9,3.18a4.41,4.41,0,0,0,2.68,2.69V3.92a.75.75,0,0,0-.73-.74h-2Zm-21,0H3.92a.74.74,0,0,0-.74.74h0v2A4.44,4.44,0,0,0,5.87,3.19ZM.25,3.92A3.67,3.67,0,0,1,3.92.25H28.84a3.67,3.67,0,0,1,3.68,3.67h0V18.58a3.67,3.67,0,0,1-3.67,3.67H3.92A3.67,3.67,0,0,1,.25,18.58h0Zm16.13,13.2a5.87,5.87,0,1,1,5.87-5.87,5.86,5.86,0,0,1-5.87,5.87Zm0-2.94a2.94,2.94,0,1,0-2.93-2.93h0A2.93,2.93,0,0,0,16.38,14.18Z"/></g></g></svg>