<svg xmlns="http://www.w3.org/2000/svg" viewBox="0 0 17.65 17.65"><defs><style>.cls-1{fill:#15171a;stroke:#15171a;stroke-miterlimit:10;stroke-width:0.25px;}</style></defs><title>IconInloggenAsset 22</title><g id="Layer_2" data-name="Layer 2"><g id="Layer_3" data-name="Layer 3"><path id="path" class="cls-1" d="M.92,8a.81.81,0,0,0-.8.79.79.79,0,0,0,.8.79H9.69l-3,3a.79.79,0,0,0,0,1.12.78.78,0,0,0,1.11,0l4.35-4.35h0a.79.79,0,0,0,0-1.12L7.8,3.92h0A.78.78,0,1,0,6.69,5l3,3ZM15.55,1.71h0a.39.39,0,0,1,.39.39V15.54h0a.4.4,0,0,1-.39.4H8a.79.79,0,1,0,0,1.58h7.51a2,2,0,0,0,2-2V2.1h0a2,2,0,0,0-2-2H8A.79.79,0,0,0,8,1.71Z"/></g></g></svg>