<svg xmlns="http://www.w3.org/2000/svg" viewBox="0 0 301.47 52"><defs><style>.cls-1{fill:#7966ff;}</style></defs><title>ErkebLogoAsset 39</title><g id="Layer_2" data-name="Layer 2"><g id="Layer_3" data-name="Layer 3"><path class="cls-1" d="M0,52,18.59,0H61.42L57.13,11.76H40.89l-2.08,5.79H55.12L50.9,29.32H34.58L30.75,40.24H47.06L42.84,52Z"/><path class="cls-1" d="M80.6,52l6.31-17.75a5.58,5.58,0,0,0,.45-2c0-1.16-1-1.75-2.92-1.75H81.51L73.84,52H47.32L65.91,0h43a30,30,0,0,1,8.78,1q5,1.68,5,6.24a15.5,15.5,0,0,1-1,5.13,17.11,17.11,0,0,1-5.71,8.26,22.28,22.28,0,0,1-9.49,3.57q7.41,1.42,7.41,7.35a22,22,0,0,1-1.5,7.08L107.51,52Zm7.61-40.24-2.67,7.48h2.93a5,5,0,0,0,5.13-3.67,6.31,6.31,0,0,0,.45-2c0-1.18-1-1.78-2.92-1.78Z"/><path class="cls-1" d="M112.58,52,131.17,0h26l-7.54,21L165.69,0h27L173.81,24.12,174.72,52H148l-.92-23.79L138.58,52Z"/><path class="cls-1" d="M178.75,52,197.34,0h42.83l-4.29,11.76H219.63l-2.08,5.79h16.32l-4.23,11.77H213.33l-3.84,10.92h16.32L221.58,52Z"/><path class="cls-1" d="M226.07,52,244.66,0h43a30.35,30.35,0,0,1,8.85,1q5,1.68,5,6.3a15.6,15.6,0,0,1-1,5.07,16.9,16.9,0,0,1-5.79,8.26,22.18,22.18,0,0,1-9.48,3.57q7.39,1.42,7.4,7.35a22,22,0,0,1-1.49,7.08q-2.79,7.8-8.39,10.79Q277.94,52,269,52Zm30.75-11.89h2.92a5.41,5.41,0,0,0,3.31-.85,6.41,6.41,0,0,0,1.89-2.93l.72-2.08a5.58,5.58,0,0,0,.45-2c0-1.16-1-1.75-2.93-1.75h-2.92ZM267,11.76l-2.67,7.48h2.92a5,5,0,0,0,5.14-3.67c.52-1.44.59-2.43.19-3s-1.27-.86-2.66-.86Z"/></g></g></svg>