<svg xmlns="http://www.w3.org/2000/svg" viewBox="0 0 31.25 22.29"><defs><style>.cls-1{fill:#15171a;stroke:#fff;stroke-miterlimit:10;stroke-width:0.25px;}</style></defs><title>IconErkebFamAsset 10</title><g id="Layer_2" data-name="Layer 2"><g id="Layer_3" data-name="Layer 3"><path id="path" class="cls-1" d="M20.43,21.36a4.45,4.45,0,0,1-2.56.81h-15A2.78,2.78,0,0,1,.12,19.41v-.69c0-.41.14-.68.14-1.1A15.33,15.33,0,0,1,.68,16c.82-1.79,6.47-4,10.47-4a20.84,20.84,0,0,1,6.2,1.24,13.5,13.5,0,0,1,5.51-1.37c3,0,7.16,1.79,7.85,3.16A3.48,3.48,0,0,1,31,16.38c0,.28.13.55.13.83v.55a2.43,2.43,0,0,1-2.34,2.48H23.44a4.42,4.42,0,0,0-2.56.81ZM20.52,15a2.31,2.31,0,0,1,1,1.11,8,8,0,0,1,.41,1.37h6.48a.84.84,0,0,0-.14-.55c0-.13,0-.41-.14-.41a.54.54,0,0,0-.27-.14q-.67-.37-1.38-.69a9.54,9.54,0,0,0-3.72-.82A3.09,3.09,0,0,0,20.52,15Zm2.34-4.54a4.07,4.07,0,0,1-4.14-4V6.32a4.14,4.14,0,0,1,8.27,0,4.06,4.06,0,0,1-4,4.14Zm0-2.33a1.7,1.7,0,0,0,1.8-1.6.74.74,0,0,0,0-.21,1.81,1.81,0,0,0-3.61,0,1.7,1.7,0,0,0,1.6,1.81ZM11.15,10.32a5.17,5.17,0,0,1-5.1-5.1A5.17,5.17,0,0,1,11.15.13a5.16,5.16,0,0,1,5.09,5.09A5.17,5.17,0,0,1,11.15,10.32Zm0-2.76a2.41,2.41,0,0,0,2.34-2.34,2.35,2.35,0,0,0-4.69,0h0A2.41,2.41,0,0,0,11.15,7.56Zm8,9.79a2.23,2.23,0,0,0-.55-.42c-.55-.27-1.24-.69-1.93-1a15.89,15.89,0,0,0-5.51-1.24A14.15,14.15,0,0,0,5.64,16c-.69.27-1.38.69-1.93,1a1.91,1.91,0,0,0-.55.42h0a4.54,4.54,0,0,0-.14.82c0,.28-.14.69-.14,1v.27h16.4v-.27c0-.28-.14-.69-.14-1Z"/></g></g></svg>