<svg id="Layer_3" data-name="Layer 3" xmlns="http://www.w3.org/2000/svg" xmlns:xlink="http://www.w3.org/1999/xlink" viewBox="0 0 750 1334"><defs><style>.cls-1{fill:none;}.cls-2{fill:url(#linear-gradient);}.cls-3{clip-path:url(#clip-path);}.cls-4,.cls-8{fill:#a9a9ff;}.cls-11,.cls-4{opacity:0.8;}.cls-5{fill:#d5e5fd;}.cls-6{fill:#9d80ff;}.cls-16,.cls-7{fill:#7368e3;}.cls-11,.cls-9{fill:#8980ff;}.cls-10,.cls-21{fill:#7966ff;}.cls-12,.cls-19{fill:#fff;}.cls-13{fill:#f1eefc;}.cls-14{fill:#6a60d1;}.cls-14,.cls-16,.cls-18,.cls-19,.cls-20{fill-rule:evenodd;}.cls-15{fill:#f4a086;}.cls-17{fill:#f7b690;}.cls-18{fill:#15171a;}.cls-20{fill:#1a1a1a;}.cls-21{font-size:36px;font-family:AvenirNext-Bold, Avenir Next;font-weight:700;letter-spacing:0.1em;}.cls-22{letter-spacing:0.09em;}.cls-23{letter-spacing:0.08em;}.cls-24{letter-spacing:0.1em;}</style><linearGradient id="linear-gradient" x1="647.52" y1="-94.41" x2="32.93" y2="1223.58" gradientTransform="matrix(1, 0, 0, -1, 0, 980)" gradientUnits="userSpaceOnUse"><stop offset="0" stop-color="#fff"/><stop offset="0.01" stop-color="#fefcff"/><stop offset="0.05" stop-color="#fdf5ff"/><stop offset="0.14" stop-color="#fdf3ff"/><stop offset="0.3" stop-color="#fdf3ff"/><stop offset="0.68" stop-color="#d8e4ff"/><stop offset="1" stop-color="#c3d4ff"/></linearGradient><clipPath id="clip-path"><rect class="cls-1" y="421" width="750" height="582"/></clipPath></defs><title>ErkebTuto1Artboard 31</title><rect class="cls-2" width="750" height="980" transform="translate(750 980) rotate(-180)"/><g class="cls-3"><path class="cls-4" d="M680,560.13c-1.58-6.21-8.27-9-11.35-14.54-3.54-6.34-1.33-14.94,3.3-20.19.3-.33,23.52-38.52,43.34-19.59,5.74,5.49,7.19,24.16,7.33,32.47l.6,38.12c.26,16.66-14.22,28.12-29.16,23.1-6.2-2.08-15.87-8-17.78-15.26C674,575.66,682.18,568.61,680,560.13Z"/><rect class="cls-5" x="620.06" y="618.28" width="152.92" height="1.12" transform="translate(44.4 1284.29) rotate(-87.2)"/><polygon class="cls-5" points="699.48 555.28 684.96 538.87 685.79 538.13 699.74 553.9 714.21 546.57 714.72 547.57 699.48 555.28"/><polygon class="cls-5" points="698.41 576.88 681.22 570.79 681.6 569.74 698.45 575.71 713.86 571.13 714.17 572.2 698.41 576.88"/><rect class="cls-5" x="689.41" y="562.99" width="1.11" height="11.11" transform="translate(-135.18 224.41) rotate(-16.85)"/><rect class="cls-5" x="704.19" y="544.63" width="9.72" height="1.11" transform="translate(103.99 1203.88) rotate(-84.99)"/><path class="cls-6" d="M701.8,583.86c-.33-6.22-.49-13,3.29-18a13.88,13.88,0,0,1,14.4-4.74,14.54,14.54,0,0,1,10.14,11.39c.8,4.75-.79,9.54-1.4,14.32-1.41,11.06,2.34,22.89-2,33.14-2.4,5.61-8.55,10.46-14.31,8.45-6.17-2.16-8.3-10.26-8.66-16.07C702.63,602.9,702.3,593.37,701.8,583.86Z"/><rect class="cls-5" x="660.89" y="640.56" width="108.22" height="1.12" transform="translate(52.2 1336.07) rotate(-88.24)"/><polygon class="cls-5" points="716.2 601.13 706.92 590.74 707.75 590 716.31 599.59 723.78 593.42 724.49 594.28 716.2 601.13"/><rect class="cls-5" x="715.54" y="612.56" width="7.86" height="1.11" transform="translate(-175.2 307.97) rotate(-21.6)"/><path class="cls-7" d="M646.8,593.19c.71-1.55,1.78-2.91,2.52-4.45a5.86,5.86,0,0,0,.39-4.94c-1-2.19-3.85-2.95-5.28-4.91-1.69-2.34-.95-5.64.42-8.18s3.31-4.82,4-7.62c.92-3.81-.67-7.83,0-11.69a9,9,0,0,1,5.61-7,7.28,7.28,0,0,1,8.31,2.58c2.45,3.71.55,8.75,1.65,13.05s5.13,7.6,5.28,12c.11,3-1.65,5.76-2.52,8.66-1,3.29-.78,6.81-.44,10.23s.81,6.87.39,10.28c-.82,6.49-7.55,13.73-14.37,9.07C648,607,644.3,598.63,646.8,593.19Z"/><rect class="cls-5" x="657" y="562" width="1" height="133"/><path class="cls-8" d="M167.79,560.13c1.58-6.21,8.26-9,11.34-14.54,3.55-6.34,1.33-14.94-3.29-20.19-.3-.33-23.52-38.52-43.34-19.59-5.74,5.49-7.2,24.16-7.33,32.47l-.6,38.12c-.26,16.66,14.22,28.12,29.16,23.1,6.2-2.08,15.87-8,17.77-15.26C173.76,575.66,165.63,568.61,167.79,560.13Z"/><rect class="cls-5" x="150.72" y="542.37" width="1.12" height="152.92" transform="translate(-30.09 8.14) rotate(-2.8)"/><polygon class="cls-5" points="148.33 555.28 133.09 547.57 133.59 546.57 148.07 553.9 162.02 538.13 162.85 538.87 148.33 555.28"/><polygon class="cls-5" points="149.39 576.88 133.63 572.2 133.95 571.13 149.36 575.71 166.21 569.74 166.58 570.79 149.39 576.88"/><rect class="cls-5" x="152.29" y="567.99" width="11.11" height="1.11" transform="translate(-432.05 554.69) rotate(-73.14)"/><rect class="cls-5" x="138.2" y="540.32" width="1.11" height="9.72" transform="translate(-47.04 14.19) rotate(-5.01)"/><path class="cls-9" d="M146,583.86c.33-6.22.49-13-3.3-18a13.87,13.87,0,0,0-14.4-4.74,14.53,14.53,0,0,0-10.13,11.39c-.8,4.75.78,9.54,1.39,14.32,1.41,11.06-2.34,22.89,2.05,33.14,2.4,5.61,8.54,10.46,14.31,8.45,6.17-2.16,8.3-10.26,8.66-16.07C145.18,602.9,145.51,593.37,146,583.86Z"/><rect class="cls-5" x="132.25" y="587.01" width="1.12" height="108.22" transform="translate(-19.69 4.4) rotate(-1.77)"/><polygon class="cls-5" points="131.61 601.13 123.31 594.28 124.03 593.42 131.49 599.59 140.06 590 140.89 590.74 131.61 601.13"/><rect class="cls-5" x="127.78" y="609.19" width="1.11" height="7.86" transform="translate(-488.99 506.87) rotate(-68.41)"/><path class="cls-10" d="M201,593.19c-.71-1.55-1.78-2.91-2.52-4.45a5.9,5.9,0,0,1-.4-4.94c1-2.19,3.86-2.95,5.28-4.91,1.7-2.34.95-5.64-.42-8.18s-3.31-4.82-4-7.62c-.92-3.81.66-7.83,0-11.69a9,9,0,0,0-5.61-7,7.27,7.27,0,0,0-8.3,2.58c-2.45,3.71-.55,8.75-1.66,13.05s-5.12,7.6-5.28,12c-.1,3,1.66,5.76,2.52,8.66,1,3.29.79,6.81.45,10.23s-.82,6.87-.39,10.28c.82,6.49,7.55,13.73,14.37,9.07C199.86,607,203.51,598.63,201,593.19Z"/><rect class="cls-5" x="189" y="562" width="2" height="133"/><path class="cls-8" d="M750,691c-54.45-11-132.24-10.62-185.3-23.7-21-5.19-39.44-13.58-60.68-18.49-88.74-20.52-196.24,33.5-284,11.61-60.46-15.08-82.31-44.14-163.38-1.17-28,14.86-53.6,21.1-81.63,36L26,912l724-19"/><path class="cls-8" d="M61.49,616.67c-3.69-6.09-3.61-15.28,1.18-22.38,1.53-2.28,3.58-4.51,3.59-7.25,0-2.49-1.66-4.61-2.79-6.83A16.48,16.48,0,0,1,74,556.86c8.29-2.15,17.83,3.21,15.82,14.13-1.49,8.11-7.91,12-6.58,17.18.86,3.35,4.61,4.87,7.47,6.81a18.49,18.49,0,0,1,7.14,20.08C92.34,633.41,69.15,629.33,61.49,616.67Z"/><rect class="cls-5" x="76" y="568" width="1" height="94"/><rect class="cls-5" x="75.71" y="597.24" width="6.8" height="1.11" transform="translate(-414.58 251.54) rotate(-47.42)"/><polygon class="cls-5" points="76.77 621.84 70.64 615.59 71.43 614.81 76.84 620.32 90.58 608.59 91.31 609.44 76.77 621.84"/><rect class="cls-5" x="72.42" y="569.23" width="1.11" height="11" transform="translate(-379.42 212.82) rotate(-44.1)"/><path class="cls-8" d="M603.21,575.32c1.27-5,6.66-7.27,9.14-11.7,2.85-5.11,1.07-12-2.66-16.26-.24-.27-18.93-31-34.89-15.77C570.18,536,569,551,568.91,557.73q-.25,15.35-.49,30.69c-.21,13.41,11.45,22.63,23.48,18.59,5-1.67,12.77-6.45,14.3-12.28C608,587.82,601.48,582.15,603.21,575.32Z"/><rect class="cls-5" x="589.37" y="561.02" width="1.12" height="123.11" transform="matrix(1, -0.05, 0.05, 1, -29.75, 29.61)"/><polygon class="cls-5" points="587.58 571.55 575.23 565.3 575.73 564.31 587.31 570.16 598.49 557.54 599.32 558.28 587.58 571.55"/><polygon class="cls-5" points="588.41 588.92 575.69 585.14 576 584.07 588.38 587.75 601.91 582.95 602.28 584 588.41 588.92"/><rect class="cls-5" x="590.74" y="581.54" width="8.94" height="1.11" transform="translate(-134.45 982.98) rotate(-73.15)"/><rect class="cls-5" x="579.28" y="559.38" width="1.11" height="7.82" transform="translate(-46.94 52.74) rotate(-5.01)"/><path class="cls-6" d="M585.68,594.42c.27-5,.39-10.48-2.65-14.46a11.17,11.17,0,0,0-11.59-3.81,11.73,11.73,0,0,0-8.17,9.16c-.64,3.83.64,7.68,1.13,11.53,1.13,8.91-1.88,18.43,1.64,26.68,1.94,4.52,6.88,8.43,11.52,6.8,5-1.74,6.68-8.26,7-12.93C585,609.75,585.28,602.07,585.68,594.42Z"/><rect class="cls-5" x="574.5" y="596.96" width="1.12" height="87.12" transform="translate(-19.46 18.02) rotate(-1.77)"/><polygon class="cls-5" points="574.1 608.48 567.34 602.89 568.05 602.03 573.98 606.93 580.81 599.29 581.64 600.04 574.1 608.48"/><rect class="cls-5" x="570.9" y="614.81" width="1.11" height="6.32" transform="translate(-213.44 921.93) rotate(-68.41)"/><path class="cls-8" d="M624.94,634.27c-.57-1.25-1.43-2.35-2-3.59a4.75,4.75,0,0,1-.32-4c.84-1.77,3.1-2.38,4.25-4,1.37-1.88.77-4.54-.33-6.58s-2.67-3.89-3.21-6.14c-.74-3.06.53-6.31,0-9.41a7.26,7.26,0,0,0-4.51-5.6,5.87,5.87,0,0,0-6.69,2.07c-2,3-.44,7-1.33,10.51s-4.13,6.12-4.25,9.67c-.09,2.44,1.33,4.64,2,7a21.73,21.73,0,0,1,.36,8.24,37.08,37.08,0,0,0-.32,8.28c.66,5.22,6.08,11,11.57,7.3C624,645.41,627,638.64,624.94,634.27Z"/><rect class="cls-5" x="616" y="610" width="1" height="79"/><path class="cls-11" d="M517.64,620.84c-3-4.91-2.91-12.3,1-18,1.24-1.83,2.88-3.63,2.89-5.84,0-2-1.34-3.71-2.24-5.5a13.27,13.27,0,0,1,8.48-18.8c6.67-1.72,14.35,2.59,12.74,11.38-1.21,6.53-6.37,9.65-5.3,13.83.69,2.7,3.71,3.92,6,5.48a14.91,14.91,0,0,1,5.75,16.17C542.47,634.31,523.81,631,517.64,620.84Z"/><rect class="cls-5" x="529" y="582" width="1" height="84"/><rect class="cls-5" x="529.09" y="605.09" width="5.47" height="1.11" transform="translate(-273.97 587.34) rotate(-47.41)"/><polygon class="cls-5" points="529.94 625.14 524.93 620.04 525.72 619.26 530 623.62 540.99 614.25 541.71 615.09 529.94 625.14"/><rect class="cls-5" x="526.33" y="582.64" width="1.11" height="8.86" transform="translate(-260.04 532.26) rotate(-44.11)"/><path class="cls-9" d="M546.34,688.88a3.72,3.72,0,0,1-.23-.87h0a3.24,3.24,0,0,1,0-.88c.3-2.91,3.7-4.15,6.46-4.06s5.78.74,8.09-.86c2.88-2,3.06-6.28,4.59-9.54,2.67-5.68,10.5-7.69,15.33-3.95,0-4.93,3.67-9.57,8.25-10.45A10.29,10.29,0,0,1,600,665c-.32-4.2,4.41-5.6,7.36-4.31,3.91,1.72,5,6.41,6.34,10.19,2.38-3.13,8-4.43,7.33.83a15.91,15.91,0,0,1-2.06,5.62,4.88,4.88,0,0,1,4.18,2.43,4.61,4.61,0,0,1,8.74-.23,3.62,3.62,0,0,1,4.16-4.54c6.59,1.61,4.57,6.4.31,11.88,3.64-3.29,11,.79,11.68,5.17H547.16Z"/><path class="cls-9" d="M55.45,709.1a4.48,4.48,0,0,1-.28-1.09h0a4.49,4.49,0,0,1,0-1.1c.37-3.64,4.57-5.18,8-5.08s7.14.93,10-1.07c3.54-2.48,3.77-7.85,5.66-11.92,3.29-7.1,13-9.62,18.93-4.94,0-6.16,4.53-12,10.18-13.07s11.79,2.62,13.82,8.39c-.41-5.26,5.44-7,9.08-5.39,4.83,2.14,6.22,8,7.82,12.73,2.95-3.91,9.93-5.53,9,1a20.18,20.18,0,0,1-2.54,7,6,6,0,0,1,5.16,3,5.67,5.67,0,0,1,10.79-.28c-.82-3.36,2-6.44,5.13-5.68,8.14,2,5.65,8,.38,14.85,4.5-4.11,13.64,1,14.42,6.46H56.46Z"/></g><path class="cls-12" d="M121.42,367.45c6.23-3.18,13.14-1.86,19.67-.15,7.24,1.89,15.15,4.09,21.65-.72,5.13-3.8,8.23-11.17,12.27-16.95s10.58-10.15,15.56-6c5.72,4.79,5.58,17.6,11.36,22.25,4,3.19,9,1.1,13-2,5.84-4.61,11.38-11.05,18.5-7.74,6.11,2.85,9.4,10.62,9.73,19.14,0,.6,0,1.18,0,1.74H113.13A19,19,0,0,1,121.42,367.45Z"/><path class="cls-12" d="M439.55,361.43l50.68-29.2c14.15-8.15,31.84-15.65,43.52-1.79,7.25,8.62,12,25,21.5,23.87,13.36-1.66,22.15-43.77,37.39-15.89,5.23,9.57,3.54,20.47-.78,29.58l-161.14.48A29.49,29.49,0,0,1,439.55,361.43Z"/><path class="cls-12" d="M284.93,262.44l30.53-16c8.53-4.45,19.19-8.55,26.22-1,4.36,4.7,7.24,13.67,12.94,13,8.05-.91,13.35-23.91,22.53-8.69,3.15,5.23,2.13,11.19-.48,16.16l-97.06.29A17.73,17.73,0,0,1,284.93,262.44Z"/><path class="cls-13" d="M0,1209V803H0a1039.81,1039.81,0,0,1,750,0h0v406Z"/><path class="cls-8" d="M0,1271V865H0a1039.81,1039.81,0,0,1,750,0h0v406Z"/><path class="cls-9" d="M0,1334V928H0a1039.81,1039.81,0,0,1,750,0h0v406Z"/><path class="cls-10" d="M0,1334V995H0a1039.81,1039.81,0,0,1,750,0h0v339Z"/><path class="cls-14" d="M279.58,670.3l-4.47-25.45c-1.6-9.11-3.21-18.37-2.4-27.84s1.89-21.83,8.76-27.75c8.79-7.58,22.74-10.4,25.55,2.36,9.87,44.87-14,116.76-18.89,133q-2,6.74-4.25,13.41H271.5C273.42,712.85,273.28,683.82,279.58,670.3Z"/><path class="cls-15" d="M271.5,738h12.38q-2.6,7.83-5.46,15.58c-.67,1.8-1.62,3.87-3.47,4.41-2.36.69-5.51-1.39-5.16-3.8C270.53,749.14,271.07,743.67,271.5,738Z"/><path class="cls-16" d="M271,680.72c-1.52,4.1-4,8.72-7.85,8.85-2.36.09-4.54-1.66-5.89-3.88a26.47,26.47,0,0,1-2.66-7.47l-8.37-33.74c-2.26-9.11-4.53-18.37-4.4-27.84s3-19.33,9.47-25.25c8.24-7.58,23.23-6.67,26.17,6.24,3.89,17.1,3.7,36.12,1.1,53.43A151.13,151.13,0,0,1,271,680.72Z"/><path class="cls-16" d="M252.74,666.77c7.71-11,22.24-4.09,19,9.31-3.89,16.19-10.16,32.21-16.45,47.6-1.66,4.07-3.39,8.1-5.17,12.12l-12.06-3.89C242.21,706.75,244.87,678,252.74,666.77Z"/><path class="cls-17" d="M238.08,731.91l12.06,3.89q-3.4,7.68-7.08,15.23c-.83,1.69-1.95,3.6-3.83,3.84-2.39.3-5.31-2.29-4.74-4.64C235.86,744.6,237,738.37,238.08,731.91Z"/><path class="cls-18" d="M230.87,757.64a21,21,0,0,1,1.3-6.43c.85-2,1.44-4,3.27-5.15a4.67,4.67,0,0,0,2.7,3c.88.18,5.57-1.44,6.35-1,.56.32.09,9.45,2.43,11.68s5.25,3.74,7.92,5.55a8.41,8.41,0,0,1,2.46,2.29,3.25,3.25,0,0,1,.28,3.21,2.15,2.15,0,0,1-.18.24l-19.14-3.17a20.58,20.58,0,0,1-.86-2.26q-1.4-4.1-2.77-8.19a33.47,33.47,0,0,0-2.47,9.44L230,766.5Z"/><path class="cls-16" d="M280.21,617.94c-6.34-.18-53.11,3.89-27.21-37.17,3.61-5.72,12.75-6.35,19.46-7.19,9.09-1.15,26.8-1.06,31.17,7.19C317.26,606.51,287.22,618.13,280.21,617.94Z"/><path class="cls-19" d="M287.81,527.06c-1.92-6.7-3.39-14.33-1.18-21.14.7-2.13.83-2.47,2.73-1.41a19.41,19.41,0,0,1,4.05,3.58,44,44,0,0,1,6.22,8.34,80.19,80.19,0,0,1,4.77,9.77l-14.48,7.46C289.15,531.48,288.44,529.28,287.81,527.06Z"/><path class="cls-15" d="M304.19,526.2c.93,2.22,1.8,4.46,2.68,6.7l14.38,36.94a5.74,5.74,0,0,1,.57,3.63c-.56,1.91-3,2.7-4.91,2.14s-3.34-2.08-4.66-3.56a116.67,116.67,0,0,1-22.54-38.39Z"/><path class="cls-17" d="M329.15,530.48c-.27-1.32-.86-2.89-2.2-3s-2.19,1.13-2.8,2.25c-5.16,9.46-11.77,40.11-9,44.08,2.6,3.7,5.75,3.88,8.18.11C328.26,566.2,330.24,535.74,329.15,530.48Z"/><path class="cls-9" d="M310.41,531H321.1a1.62,1.62,0,0,0,1.47-1.15l6.53-22.7a.84.84,0,0,0-.82-1.15h-10.7a1.63,1.63,0,0,0-1.47,1.15l-6.53,22.7A.84.84,0,0,0,310.41,531Z"/><path class="cls-10" d="M309.62,529.85l6.53-22.7a1.62,1.62,0,0,1,1.47-1.15h1.14a1.63,1.63,0,0,0-1.47,1.15l-6.53,22.7a.84.84,0,0,0,.82,1.15h-1.14A.84.84,0,0,1,309.62,529.85Z"/><path class="cls-17" d="M329.94,527.3a9.83,9.83,0,0,0-2.4-8,10,10,0,0,0-6.25-2.59c-1-.09-2.26.09-2.57,1s.43,1.67.78,2.48c.82,1.86-.14,4-.37,6a8.42,8.42,0,0,0,1.9,6.28c1.15,1.36,4.38,3.8,6.26,2.58S329.74,529.2,329.94,527.3Z"/><path class="cls-19" d="M262.75,561.11c1.67-15.85-15.36-29.15-13.76-45,1.09-10.82,11.79-19.36,22.66-19.21s20.87,8,24.76,18.2a31.54,31.54,0,0,1,1.8,15.21c-.46,3.57-1.53,7-2.14,10.59a54.1,54.1,0,0,0,1.22,21.82c1.5,6.22,4.72,12.15,6.34,18.29H253C254.47,578.44,262.26,565.69,262.75,561.11Z"/><path class="cls-18" d="M267.63,754.88a9.76,9.76,0,0,1,2.73-4.92c.42,1,1.51,2.47,2.64,2.52.89,0,5.31-1.84,6.15-1.54.61.22,1.58,8.82,4.25,10.64s5.79,2.83,8.72,4.18a8.19,8.19,0,0,1,2.8,1.85,3.17,3.17,0,0,1,.71,3.37l0,0h-19.4a19,19,0,0,1-1.22-2.09l-4.08-7.62A33.38,33.38,0,0,0,270,771h-2.17c-.25-3.57-.5-7.15-.74-10.72A16.13,16.13,0,0,1,267.63,754.88Z"/><path class="cls-19" d="M240.63,521.88c1.62-5.22,4.5-10.22,9-13.38,1.09-.78,2.5-1.46,3.74-.93s1.66,1.85,2,3.07c2,8,.88,16.46-.54,24.67l-16.15-2.53A57.39,57.39,0,0,1,240.63,521.88Z"/><path class="cls-17" d="M237.91,538.05c.14-1.76.29-3.52.48-5.27l16.14,2.53c-.13.78-.27,1.57-.41,2.35q-2.19,12.3-4.37,24.62c-.55,3.08-.48,6.78-3.25,8.78a6.34,6.34,0,0,1-7,.4,8.22,8.22,0,0,1-3.29-5.46,24.12,24.12,0,0,1-.05-6.52Q237,548.76,237.91,538.05Z"/><path class="cls-17" d="M246.57,611.58c.06,1.9.1,6.41-1.8,6.56-1.48.11-3-3.56-3.35-5-2.28-10-5.67-43.53-5.11-45.86.92-3.83,10.24-6.81,12.6-1.75S246,594.24,246.57,611.58Z"/><path class="cls-17" d="M249.16,616.73c.65,2.93,1.29,5.85,1.94,8.78-.24.61-1.22.46-1.61-.06a8.74,8.74,0,0,1-.69-1.83c-.25-.6-.94-1.15-1.52-.85s-.52,1.14-.38,1.78c.63,3,1.27,5.91,1.91,8.87-2,1.35-4.8.75-6.56-.85a11.64,11.64,0,0,1-3.16-6.28,28.3,28.3,0,0,1-.42-9.88c.26-1.9.79-3.91,2.26-5.13C244.68,608.16,248.47,613.62,249.16,616.73Z"/><path class="cls-18" d="M285.77,452.38a10.12,10.12,0,0,0-17.59-2.16c-1.07,1.49-1.78,3.3-3.25,4.39-1.93,1.44-4.58,1.23-6.92,1.82a10.11,10.11,0,0,0-7.24,7.48c-1.58,7.24,5.07,14.33,3.69,21.61-.63,3.31-2.85,6.08-5.15,8.55s-4.81,4.84-6.26,7.88-1.61,7,.63,9.53c1.6,1.8,4.07,2.52,6.42,3a36.82,36.82,0,0,0,8,.67c6.21,0,6.21-12.8,6.53-22.69.18-5.73,13.44-6.35,15.06-11.85.88-3-.13-6.25.18-9.37s1.86-5.21,3.8-7.43a13,13,0,0,0,2.72-6.37A10.18,10.18,0,0,0,285.77,452.38Z"/><path class="cls-15" d="M277.45,484.25a27.37,27.37,0,0,0,.74,12.07c.35,1.21.76,2.61,0,3.64s-2.08,1.11-3.28,1.15a19.08,19.08,0,0,1-6-.45,6.41,6.41,0,0,1-4.39-3.81,9.47,9.47,0,0,1,.17-4.92l2-9.36a5.56,5.56,0,0,1,1-2.57,3.7,3.7,0,0,1,4.35-.45,10.78,10.78,0,0,1,3.33,3.26Z"/><path class="cls-17" d="M283.37,482.89a18.63,18.63,0,0,0,1.49-6.54,34.27,34.27,0,0,0,.08-9.27,11.82,11.82,0,0,0-4.55-7.82c-3.08-2.11-7.24-2-10.78-.84-3.08,1-6,3-7.25,6.05a16,16,0,0,0-.84,5.21,19.27,19.27,0,0,0,.49,6.82,12.48,12.48,0,0,0,4.52,6,29.71,29.71,0,0,0,6.7,3.57,13.32,13.32,0,0,0,4.21,1.19C280.36,487.42,282.16,485.32,283.37,482.89Z"/><path class="cls-20" d="M270.8,463.9c-1.3,2.94-.8,6.65-2.85,9.13a5.61,5.61,0,0,1-7.08,1.12,6.43,6.43,0,0,1-2.79-5,9.42,9.42,0,0,1,1.69-5.63,17.67,17.67,0,0,1,4.2-4.21,21.13,21.13,0,0,1,8.21-4,13.67,13.67,0,0,1,5.8,0c1.43.32,4.21,1.1,4.6,2.8s-1.1,2-2.29,1.66a7.64,7.64,0,0,0-5.25.08A7.91,7.91,0,0,0,270.8,463.9Z"/><path class="cls-17" d="M263.65,472.38a4.48,4.48,0,0,0-1.76-.34,2.19,2.19,0,0,0-1.61.71,2.65,2.65,0,0,0-.32,2.33,3.81,3.81,0,0,0,4.37,3,2.56,2.56,0,0,0,1.91-3.28A3.5,3.5,0,0,0,263.65,472.38Z"/><text class="cls-21" transform="translate(72.82 113.15)">BE<tspan class="cls-22" x="52.99" y="0">S</tspan><tspan x="77.4" y="0">TUURDER</tspan><tspan class="cls-23" x="274.1" y="0"> </tspan><tspan class="cls-24" x="286.05" y="0">AANVR</tspan><tspan class="cls-23" x="433.4" y="0">A</tspan><tspan x="462.6" y="0">GEN</tspan></text><path class="cls-10" d="M74.69,137.16h6.63a7.52,7.52,0,0,1,1.89.23,4.87,4.87,0,0,1,1.67.74,3.81,3.81,0,0,1,1.64,3.3,3.52,3.52,0,0,1-.81,2.38,4.59,4.59,0,0,1-2.14,1.34v0a4.43,4.43,0,0,1,2.64,1.25,3.7,3.7,0,0,1,1,2.76,4.6,4.6,0,0,1-.55,2.34,4.4,4.4,0,0,1-1.45,1.52,6.41,6.41,0,0,1-2.06.83,11.09,11.09,0,0,1-2.37.25H74.69Zm3,6.91H80.4a3.79,3.79,0,0,0,2.31-.6,2,2,0,0,0,.79-1.7,1.74,1.74,0,0,0-.82-1.64,5.16,5.16,0,0,0-2.54-.48H77.72Zm0,7.54h2.71a9.54,9.54,0,0,0,1.25-.09,3.81,3.81,0,0,0,1.23-.35,2.4,2.4,0,0,0,.94-.76,2.23,2.23,0,0,0,.37-1.35,2,2,0,0,0-.91-1.87,5.69,5.69,0,0,0-2.76-.53H77.72Z"/><path class="cls-10" d="M89.64,148.34a6,6,0,0,1,.5-2.48,5.69,5.69,0,0,1,3.32-3.13,7,7,0,0,1,4.9,0,5.69,5.69,0,0,1,3.32,3.13,6,6,0,0,1,.49,2.48,6.16,6.16,0,0,1-.49,2.5A5.87,5.87,0,0,1,98.36,154a6.75,6.75,0,0,1-4.9,0,5.93,5.93,0,0,1-2-1.26,5.84,5.84,0,0,1-1.33-1.93A6.17,6.17,0,0,1,89.64,148.34Zm2.93,0a4.52,4.52,0,0,0,.21,1.35,3.78,3.78,0,0,0,.61,1.2,3.1,3.1,0,0,0,1,.86,3.53,3.53,0,0,0,3,0,3.2,3.2,0,0,0,1-.86,4,4,0,0,0,.61-1.2,4.51,4.51,0,0,0,.2-1.35A4.34,4.34,0,0,0,99,147a3.83,3.83,0,0,0-.61-1.19,3.4,3.4,0,0,0-4-.85,3.07,3.07,0,0,0-1,.85,3.63,3.63,0,0,0-.61,1.19A4.35,4.35,0,0,0,92.57,148.34Z"/><path class="cls-10" d="M116.19,148.53v.39a2.43,2.43,0,0,1,0,.38H107.4a2.9,2.9,0,0,0,1.06,2,3.73,3.73,0,0,0,1,.59,3.48,3.48,0,0,0,1.2.21,3.93,3.93,0,0,0,1.83-.39,3.55,3.55,0,0,0,1.22-1.09l1.92,1.53a5.76,5.76,0,0,1-4.94,2.31,7.33,7.33,0,0,1-2.48-.42,5.84,5.84,0,0,1-1.95-1.19A5.32,5.32,0,0,1,105,151a6.48,6.48,0,0,1-.47-2.53,6.63,6.63,0,0,1,.47-2.53,5.59,5.59,0,0,1,1.29-1.94,5.5,5.5,0,0,1,1.93-1.25,6.38,6.38,0,0,1,2.41-.45,6.17,6.17,0,0,1,2.22.4,4.71,4.71,0,0,1,1.76,1.18,5.36,5.36,0,0,1,1.17,1.94A8,8,0,0,1,116.19,148.53Zm-2.88-1.29a3.4,3.4,0,0,0-.16-1.06,2.5,2.5,0,0,0-.49-.89,2.44,2.44,0,0,0-.85-.61,3,3,0,0,0-1.21-.23,3.24,3.24,0,0,0-2.2.78,2.88,2.88,0,0,0-1,2Z"/><path class="cls-10" d="M119.26,136h2.88v11.47h.07l4.37-4.85h3.69l-5,5.21,5.31,6.31h-3.82l-4.56-5.9h-.07v5.9h-2.88Z"/><path class="cls-10" d="M149.72,148.53v.39a2.43,2.43,0,0,1,0,.38h-8.76a2.84,2.84,0,0,0,.32,1.14,2.89,2.89,0,0,0,.74.89,3.73,3.73,0,0,0,1,.59,3.44,3.44,0,0,0,1.2.21,3.86,3.86,0,0,0,1.82-.39,3.49,3.49,0,0,0,1.23-1.09l1.92,1.53a5.78,5.78,0,0,1-4.95,2.31,7.27,7.27,0,0,1-2.47-.42,6,6,0,0,1-2-1.19,5.29,5.29,0,0,1-1.29-1.89,6.48,6.48,0,0,1-.47-2.53,6.63,6.63,0,0,1,.47-2.53A5.71,5.71,0,0,1,139.8,144a5.63,5.63,0,0,1,1.94-1.25,6.34,6.34,0,0,1,2.41-.45,6.17,6.17,0,0,1,2.22.4,4.79,4.79,0,0,1,1.76,1.18,5.2,5.2,0,0,1,1.16,1.94A8,8,0,0,1,149.72,148.53Zm-2.89-1.29a3.72,3.72,0,0,0-.15-1.06,2.67,2.67,0,0,0-.49-.89,2.48,2.48,0,0,0-.86-.61,3,3,0,0,0-1.21-.23,3.23,3.23,0,0,0-2.19.78,2.84,2.84,0,0,0-1,2Z"/><path class="cls-10" d="M163.73,148.53v.39c0,.13,0,.25,0,.38H155a2.85,2.85,0,0,0,1.05,2,3.89,3.89,0,0,0,1,.59,3.53,3.53,0,0,0,1.2.21,3.93,3.93,0,0,0,1.83-.39,3.55,3.55,0,0,0,1.22-1.09l1.92,1.53a5.75,5.75,0,0,1-4.94,2.31,7.23,7.23,0,0,1-2.47-.42,5.79,5.79,0,0,1-2-1.19,5.45,5.45,0,0,1-1.3-1.89,6.49,6.49,0,0,1-.46-2.53,6.63,6.63,0,0,1,.46-2.53,5.73,5.73,0,0,1,1.29-1.94,5.59,5.59,0,0,1,1.93-1.25,6.38,6.38,0,0,1,2.41-.45,6.17,6.17,0,0,1,2.22.4,4.83,4.83,0,0,1,1.77,1.18,5.48,5.48,0,0,1,1.16,1.94A8,8,0,0,1,163.73,148.53Zm-2.88-1.29a3.4,3.4,0,0,0-.16-1.06,2.36,2.36,0,0,0-.49-.89,2.44,2.44,0,0,0-.85-.61,3,3,0,0,0-1.21-.23,3.24,3.24,0,0,0-2.2.78,2.83,2.83,0,0,0-1,2Z"/><path class="cls-10" d="M166.75,142.63h2.74v1.85h0a3.68,3.68,0,0,1,1.33-1.53,3.82,3.82,0,0,1,2.24-.66,4.41,4.41,0,0,1,1.94.4,3.89,3.89,0,0,1,1.32,1,4.36,4.36,0,0,1,.75,1.49,6.28,6.28,0,0,1,.24,1.73v7.2h-2.88v-6.38a7.86,7.86,0,0,0-.07-1.06,2.93,2.93,0,0,0-.31-1,2.1,2.1,0,0,0-.66-.73,2,2,0,0,0-1.12-.29,2.53,2.53,0,0,0-1.2.28,2.59,2.59,0,0,0-.83.71,3.27,3.27,0,0,0-.49,1,4.09,4.09,0,0,0-.17,1.14v6.34h-2.88Z"/><path class="cls-10" d="M187.2,142.63H190v1.92h0a4.21,4.21,0,0,1,1.34-1.63,3.35,3.35,0,0,1,2-.63l.36,0a.9.9,0,0,1,.34.06V145l-.5-.1a2.55,2.55,0,0,0-.39,0,3.07,3.07,0,0,0-1.59.36,2.77,2.77,0,0,0-.93.86,3,3,0,0,0-.46,1,4,4,0,0,0-.12.84v6.17H187.2Z"/><path class="cls-10" d="M195.82,138.72a1.65,1.65,0,0,1,.51-1.21,1.76,1.76,0,0,1,1.31-.52,1.89,1.89,0,0,1,1.33.49,1.61,1.61,0,0,1,.54,1.24A1.59,1.59,0,0,1,199,140a1.89,1.89,0,0,1-1.33.5,1.8,1.8,0,0,1-1.31-.52A1.66,1.66,0,0,1,195.82,138.72Zm.41,3.91h2.88v11.52h-2.88Z"/><path class="cls-10" d="M201.19,144.93v-2.3h2v-3.34H206v3.34h2.88v2.3H206v5.36a2.57,2.57,0,0,0,.28,1.27c.18.33.59.5,1.23.5a3.61,3.61,0,0,0,.63-.06,2.63,2.63,0,0,0,.6-.18l.09,2.26a5.46,5.46,0,0,1-.91.23,7.21,7.21,0,0,1-1,.08,4.73,4.73,0,0,1-1.87-.32,2.93,2.93,0,0,1-1.14-.89,3.25,3.25,0,0,1-.57-1.3,7.14,7.14,0,0,1-.16-1.57v-5.38Z"/><path class="cls-10" d="M216.58,151.61l6.21-6.68h-5.92v-2.3h9.36v2.54L220,151.8h6.52v2.35h-9.93Z"/><path class="cls-10" d="M228.63,148.34a6,6,0,0,1,.49-2.48,5.8,5.8,0,0,1,1.33-1.91,5.68,5.68,0,0,1,2-1.22,7,7,0,0,1,4.9,0,5.68,5.68,0,0,1,2,1.22,5.8,5.8,0,0,1,1.33,1.91,6,6,0,0,1,.49,2.48,6.16,6.16,0,0,1-.49,2.5,6,6,0,0,1-1.33,1.93,5.93,5.93,0,0,1-2,1.26,6.75,6.75,0,0,1-4.9,0,5.93,5.93,0,0,1-2-1.26,6,6,0,0,1-1.33-1.93A6.16,6.16,0,0,1,228.63,148.34Zm2.92,0a4.52,4.52,0,0,0,.21,1.35,3.78,3.78,0,0,0,.61,1.2,3.2,3.2,0,0,0,1,.86,3.53,3.53,0,0,0,3,0,3.2,3.2,0,0,0,1-.86,3.78,3.78,0,0,0,.61-1.2,4.52,4.52,0,0,0,.21-1.35A4.35,4.35,0,0,0,238,147a3.63,3.63,0,0,0-.61-1.19,3.22,3.22,0,0,0-5,0,3.63,3.63,0,0,0-.61,1.19A4.35,4.35,0,0,0,231.55,148.34Z"/><path class="cls-10" d="M255.89,154.15h-2.74v-1.73h-.05a3.86,3.86,0,0,1-1.66,1.54,5.13,5.13,0,0,1-2.29.53,5.49,5.49,0,0,1-2.37-.5,5.17,5.17,0,0,1-1.77-1.32,5.76,5.76,0,0,1-1.13-1.94,6.93,6.93,0,0,1-.4-2.39,6.78,6.78,0,0,1,.41-2.37,5.62,5.62,0,0,1,1.15-1.92,5.32,5.32,0,0,1,1.78-1.29,5.4,5.4,0,0,1,2.25-.47,5.15,5.15,0,0,1,1.42.18,4.76,4.76,0,0,1,1.09.45,4.64,4.64,0,0,1,.81.57,5.79,5.79,0,0,1,.55.6H253V136h2.88Zm-9.48-5.81a4.85,4.85,0,0,0,.2,1.35,3.81,3.81,0,0,0,.62,1.2,3.1,3.1,0,0,0,1,.86,3.06,3.06,0,0,0,1.46.33,3,3,0,0,0,1.42-.32,3.53,3.53,0,0,0,1.07-.85,3.77,3.77,0,0,0,.67-1.19,4.08,4.08,0,0,0,.22-1.33,4.14,4.14,0,0,0-.22-1.34,3.71,3.71,0,0,0-.67-1.2,3.76,3.76,0,0,0-1.07-.87,3,3,0,0,0-1.42-.33,3,3,0,0,0-2.49,1.17,3.65,3.65,0,0,0-.62,1.19A4.66,4.66,0,0,0,246.41,148.34Z"/><path class="cls-10" d="M266.78,152.69h-.07a3.24,3.24,0,0,1-1.39,1.26,4.82,4.82,0,0,1-2.18.49,6.33,6.33,0,0,1-1.46-.18,4.41,4.41,0,0,1-1.39-.6,3.49,3.49,0,0,1-1.05-1.11,3.16,3.16,0,0,1-.42-1.69,2.85,2.85,0,0,1,.73-2.06,4.72,4.72,0,0,1,1.88-1.18,10.83,10.83,0,0,1,2.56-.54c.93-.09,1.85-.13,2.75-.13v-.29a1.76,1.76,0,0,0-.78-1.59,3.25,3.25,0,0,0-1.86-.52,4.29,4.29,0,0,0-1.76.38,4.78,4.78,0,0,0-1.39.94l-1.49-1.75a6.51,6.51,0,0,1,2.27-1.37,7.89,7.89,0,0,1,2.61-.46,6.38,6.38,0,0,1,2.53.44,4.06,4.06,0,0,1,1.57,1.12,4.14,4.14,0,0,1,.8,1.56,6.48,6.48,0,0,1,.23,1.73v7h-2.69Zm0-3.8h-.65c-.47,0-.95,0-1.47.06a6.08,6.08,0,0,0-1.41.27,3.08,3.08,0,0,0-1.08.57,1.27,1.27,0,0,0-.43,1,1.24,1.24,0,0,0,.18.69,1.38,1.38,0,0,0,.46.44,2.29,2.29,0,0,0,.65.24,3.51,3.51,0,0,0,.72.07,2.72,2.72,0,0,0,3-2.95Z"/><path class="cls-10" d="M271.18,144.93v-2.3h2v-3.34H276v3.34h2.88v2.3H276v5.36a2.68,2.68,0,0,0,.28,1.27c.18.33.6.5,1.24.5a3.5,3.5,0,0,0,.62-.06,2.63,2.63,0,0,0,.6-.18l.1,2.26a5.6,5.6,0,0,1-.92.23,7.07,7.07,0,0,1-1,.08,4.74,4.74,0,0,1-1.88-.32,2.93,2.93,0,0,1-1.14-.89,3.4,3.4,0,0,1-.57-1.3,7.14,7.14,0,0,1-.16-1.57v-5.38Z"/><path class="cls-10" d="M290.4,142.63v12.22a11.06,11.06,0,0,1-.17,2,4.12,4.12,0,0,1-.63,1.61,3.33,3.33,0,0,1-1.28,1.09,4.64,4.64,0,0,1-2.1.41,5.81,5.81,0,0,1-.72,0l-.57-.09.24-2.45.41.07a2.62,2.62,0,0,0,.38,0,1.53,1.53,0,0,0,.82-.19,1.37,1.37,0,0,0,.48-.53,2.23,2.23,0,0,0,.21-.78,9.2,9.2,0,0,0,0-.94V142.63Zm-3.29-3.91a1.62,1.62,0,0,1,.52-1.21,1.75,1.75,0,0,1,1.31-.52,1.9,1.9,0,0,1,1.33.49,1.61,1.61,0,0,1,.54,1.24,1.59,1.59,0,0,1-.54,1.23,1.91,1.91,0,0,1-1.33.5,1.79,1.79,0,0,1-1.31-.52A1.64,1.64,0,0,1,287.11,138.72Z"/><path class="cls-10" d="M305.14,148.53v.39a2.43,2.43,0,0,1,0,.38h-8.76a2.9,2.9,0,0,0,1.06,2,3.73,3.73,0,0,0,1,.59,3.44,3.44,0,0,0,1.2.21,3.86,3.86,0,0,0,1.82-.39,3.49,3.49,0,0,0,1.23-1.09l1.92,1.53a5.78,5.78,0,0,1-4.95,2.31,7.27,7.27,0,0,1-2.47-.42,5.84,5.84,0,0,1-1.95-1.19,5.19,5.19,0,0,1-1.3-1.89,6.48,6.48,0,0,1-.47-2.53,6.63,6.63,0,0,1,.47-2.53,5.71,5.71,0,0,1,1.28-1.94,5.63,5.63,0,0,1,1.94-1.25,6.34,6.34,0,0,1,2.41-.45,6.17,6.17,0,0,1,2.22.4,4.71,4.71,0,0,1,1.76,1.18,5.36,5.36,0,0,1,1.17,1.94A8,8,0,0,1,305.14,148.53Zm-2.88-1.29a3.73,3.73,0,0,0-.16-1.06,2.5,2.5,0,0,0-.49-.89,2.54,2.54,0,0,0-.85-.61,3.05,3.05,0,0,0-1.22-.23,3.23,3.23,0,0,0-2.19.78,2.88,2.88,0,0,0-1,2Z"/><path class="cls-10" d="M326.11,154.15h-2.73v-1.73h-.05a4,4,0,0,1-1.67,1.54,5.13,5.13,0,0,1-2.29.53A5.49,5.49,0,0,1,317,154a5.27,5.27,0,0,1-1.77-1.32,5.76,5.76,0,0,1-1.13-1.94,7.18,7.18,0,0,1-.4-2.39,6.78,6.78,0,0,1,.41-2.37,5.78,5.78,0,0,1,1.15-1.92,5.32,5.32,0,0,1,1.78-1.29,5.44,5.44,0,0,1,2.26-.47,5.08,5.08,0,0,1,1.41.18,4.76,4.76,0,0,1,1.09.45,4.29,4.29,0,0,1,.81.57,4.85,4.85,0,0,1,.55.6h.07V136h2.88Zm-9.48-5.81a4.52,4.52,0,0,0,.21,1.35,3.78,3.78,0,0,0,.61,1.2,3,3,0,0,0,2.49,1.19,3,3,0,0,0,1.42-.32,3.41,3.41,0,0,0,1.07-.85,3.77,3.77,0,0,0,.67-1.19,4.09,4.09,0,0,0,.23-1.33,4.15,4.15,0,0,0-.23-1.34,3.71,3.71,0,0,0-.67-1.2,3.62,3.62,0,0,0-1.07-.87,3,3,0,0,0-1.42-.33,3,3,0,0,0-2.49,1.17,3.63,3.63,0,0,0-.61,1.19A4.35,4.35,0,0,0,316.63,148.34Z"/><path class="cls-10" d="M329.18,148.34a6,6,0,0,1,.5-2.48,5.69,5.69,0,0,1,3.32-3.13,7,7,0,0,1,4.9,0,5.69,5.69,0,0,1,3.32,3.13,6,6,0,0,1,.49,2.48,6.16,6.16,0,0,1-.49,2.5A5.87,5.87,0,0,1,337.9,154a6.75,6.75,0,0,1-4.9,0,5.93,5.93,0,0,1-2-1.26,5.84,5.84,0,0,1-1.33-1.93A6.17,6.17,0,0,1,329.18,148.34Zm2.93,0a4.52,4.52,0,0,0,.21,1.35,3.78,3.78,0,0,0,.61,1.2,3.1,3.1,0,0,0,1,.86,3.53,3.53,0,0,0,3,0,3.2,3.2,0,0,0,1-.86,4,4,0,0,0,.61-1.2,4.51,4.51,0,0,0,.2-1.35,4.34,4.34,0,0,0-.2-1.33,3.83,3.83,0,0,0-.61-1.19,3.4,3.4,0,0,0-4-.85,3.07,3.07,0,0,0-1,.85,3.63,3.63,0,0,0-.61,1.19A4.35,4.35,0,0,0,332.11,148.34Z"/><path class="cls-10" d="M344.06,148.34a6,6,0,0,1,.5-2.48,5.69,5.69,0,0,1,3.32-3.13,7,7,0,0,1,4.9,0,5.69,5.69,0,0,1,3.32,3.13,6,6,0,0,1,.49,2.48,6.16,6.16,0,0,1-.49,2.5,5.87,5.87,0,0,1-3.32,3.19,6.75,6.75,0,0,1-4.9,0,5.93,5.93,0,0,1-2-1.26,5.84,5.84,0,0,1-1.33-1.93A6.17,6.17,0,0,1,344.06,148.34Zm2.93,0a4.52,4.52,0,0,0,.21,1.35,3.78,3.78,0,0,0,.61,1.2,3.1,3.1,0,0,0,1,.86,3.53,3.53,0,0,0,3,0,3.2,3.2,0,0,0,1-.86,4,4,0,0,0,.61-1.2,4.51,4.51,0,0,0,.2-1.35,4.34,4.34,0,0,0-.2-1.33,3.83,3.83,0,0,0-.61-1.19,3.4,3.4,0,0,0-4-.85,3.07,3.07,0,0,0-1,.85,3.63,3.63,0,0,0-.61,1.19A4.35,4.35,0,0,0,347,148.34Z"/><path class="cls-10" d="M359.62,142.63h2.76v1.92h0a4.15,4.15,0,0,1,1.35-1.63,3.32,3.32,0,0,1,2-.63l.36,0a.9.9,0,0,1,.34.06V145a4.75,4.75,0,0,0-.49-.1,2.75,2.75,0,0,0-.4,0,3.05,3.05,0,0,0-1.58.36,2.8,2.8,0,0,0-.94.86,3.21,3.21,0,0,0-.45,1,4,4,0,0,0-.12.84v6.17h-2.88Z"/><path class="cls-10" d="M385.82,148.53v.39c0,.13,0,.25,0,.38H377a2.84,2.84,0,0,0,.32,1.14,2.89,2.89,0,0,0,.74.89,3.59,3.59,0,0,0,1,.59,3.44,3.44,0,0,0,1.2.21,3.89,3.89,0,0,0,1.82-.39,3.58,3.58,0,0,0,1.23-1.09l1.91,1.53a5.75,5.75,0,0,1-4.94,2.31,7.23,7.23,0,0,1-2.47-.42,6,6,0,0,1-2-1.19,5.29,5.29,0,0,1-1.29-1.89,6.31,6.31,0,0,1-.47-2.53,6.44,6.44,0,0,1,.47-2.53,5.71,5.71,0,0,1,1.28-1.94,5.59,5.59,0,0,1,1.93-1.25,6.42,6.42,0,0,1,2.41-.45,6.26,6.26,0,0,1,2.23.4,4.88,4.88,0,0,1,1.76,1.18,5.48,5.48,0,0,1,1.16,1.94A8,8,0,0,1,385.82,148.53Zm-2.88-1.29a3.72,3.72,0,0,0-.15-1.06,2.53,2.53,0,0,0-.5-.89,2.35,2.35,0,0,0-.85-.61,3,3,0,0,0-1.21-.23,3.23,3.23,0,0,0-2.19.78,2.84,2.84,0,0,0-1,2Z"/><path class="cls-10" d="M399.84,148.53v.39a2.43,2.43,0,0,1,0,.38h-8.75a2.69,2.69,0,0,0,.32,1.14,2.86,2.86,0,0,0,.73.89,3.89,3.89,0,0,0,1,.59,3.53,3.53,0,0,0,1.2.21,3.93,3.93,0,0,0,1.83-.39,3.55,3.55,0,0,0,1.22-1.09l1.92,1.53a5.76,5.76,0,0,1-4.94,2.31,7.23,7.23,0,0,1-2.47-.42,5.79,5.79,0,0,1-2-1.19,5.45,5.45,0,0,1-1.3-1.89,6.49,6.49,0,0,1-.46-2.53,6.63,6.63,0,0,1,.46-2.53,5.73,5.73,0,0,1,1.29-1.94,5.59,5.59,0,0,1,1.93-1.25,6.38,6.38,0,0,1,2.41-.45,6.17,6.17,0,0,1,2.22.4,4.83,4.83,0,0,1,1.77,1.18,5.48,5.48,0,0,1,1.16,1.94A8,8,0,0,1,399.84,148.53ZM397,147.24a3.4,3.4,0,0,0-.16-1.06,2.36,2.36,0,0,0-.49-.89,2.44,2.44,0,0,0-.85-.61,3,3,0,0,0-1.21-.23,3.24,3.24,0,0,0-2.2.78,2.83,2.83,0,0,0-1,2Z"/><path class="cls-10" d="M402.86,142.63h2.74v1.85h0A3.68,3.68,0,0,1,407,143a3.82,3.82,0,0,1,2.24-.66,4.37,4.37,0,0,1,1.93.4,3.7,3.7,0,0,1,1.32,1,4.21,4.21,0,0,1,.76,1.49,6.28,6.28,0,0,1,.24,1.73v7.2h-2.88v-6.38a7.86,7.86,0,0,0-.07-1.06,2.93,2.93,0,0,0-.31-1,2.1,2.1,0,0,0-.66-.73,2,2,0,0,0-1.12-.29,2.53,2.53,0,0,0-1.2.28,2.49,2.49,0,0,0-.83.71,3.27,3.27,0,0,0-.49,1,4.09,4.09,0,0,0-.17,1.14v6.34h-2.88Z"/><path class="cls-10" d="M423.45,137.16h11.26v2.64h-8.23v4.32h7.8v2.54h-7.8v4.8h8.66v2.69H423.45Z"/><path class="cls-10" d="M438.19,142.63H441v1.92H441a4.21,4.21,0,0,1,1.34-1.63,3.35,3.35,0,0,1,2-.63l.36,0a.81.81,0,0,1,.33.06V145a4.27,4.27,0,0,0-.49-.1,2.61,2.61,0,0,0-.39,0,3.07,3.07,0,0,0-1.59.36,2.77,2.77,0,0,0-.93.86,3,3,0,0,0-.46,1,4,4,0,0,0-.12.84v6.17h-2.88Z"/><path class="cls-10" d="M447.21,136h2.88v11.47h.08l4.36-4.85h3.7l-5,5.21,5.3,6.31h-3.81l-4.56-5.9h-.08v5.9h-2.88Z"/><path class="cls-10" d="M471,148.53v.39a2.43,2.43,0,0,1,0,.38h-8.76a2.9,2.9,0,0,0,1.06,2,3.73,3.73,0,0,0,1,.59,3.53,3.53,0,0,0,1.2.21,3.93,3.93,0,0,0,1.83-.39,3.55,3.55,0,0,0,1.22-1.09l1.92,1.53a5.76,5.76,0,0,1-4.94,2.31,7.33,7.33,0,0,1-2.48-.42,5.84,5.84,0,0,1-1.95-1.19,5.32,5.32,0,0,1-1.3-1.89,6.48,6.48,0,0,1-.47-2.53,6.63,6.63,0,0,1,.47-2.53,5.59,5.59,0,0,1,1.29-1.94,5.5,5.5,0,0,1,1.93-1.25,6.38,6.38,0,0,1,2.41-.45,6.17,6.17,0,0,1,2.22.4,4.71,4.71,0,0,1,1.76,1.18,5.36,5.36,0,0,1,1.17,1.94A8,8,0,0,1,471,148.53Zm-2.88-1.29a3.4,3.4,0,0,0-.16-1.06,2.5,2.5,0,0,0-.49-.89,2.44,2.44,0,0,0-.85-.61,3,3,0,0,0-1.21-.23,3.24,3.24,0,0,0-2.2.78,2.88,2.88,0,0,0-1,2Z"/><path class="cls-10" d="M477,136v8.08H477a5.79,5.79,0,0,1,.55-.6,4.64,4.64,0,0,1,.81-.57,4.76,4.76,0,0,1,1.09-.45,5.15,5.15,0,0,1,1.42-.18,5.43,5.43,0,0,1,2.25.47,5.32,5.32,0,0,1,1.78,1.29,5.78,5.78,0,0,1,1.15,1.92,6.78,6.78,0,0,1,.41,2.37,6.93,6.93,0,0,1-.4,2.39,5.76,5.76,0,0,1-1.13,1.94,5.17,5.17,0,0,1-1.77,1.32,5.49,5.49,0,0,1-2.37.5,5.13,5.13,0,0,1-2.29-.53,4,4,0,0,1-1.67-1.54h0v1.73h-2.74V136Zm6.6,12.33a4.66,4.66,0,0,0-.2-1.33,3.65,3.65,0,0,0-.62-1.19,3,3,0,0,0-2.49-1.17,3,3,0,0,0-1.42.33,3.76,3.76,0,0,0-1.07.87,3.71,3.71,0,0,0-.67,1.2,4.15,4.15,0,0,0-.23,1.34,4.09,4.09,0,0,0,.23,1.33,3.77,3.77,0,0,0,.67,1.19,3.53,3.53,0,0,0,1.07.85,3,3,0,0,0,1.42.32,3.06,3.06,0,0,0,1.46-.33,3.1,3.1,0,0,0,1-.86,3.81,3.81,0,0,0,.62-1.2A4.85,4.85,0,0,0,483.55,148.34Z"/><path class="cls-10" d="M498.67,136v8.08h.07a5.79,5.79,0,0,1,.55-.6,4.64,4.64,0,0,1,.81-.57,4.76,4.76,0,0,1,1.09-.45,5.15,5.15,0,0,1,1.42-.18,5.43,5.43,0,0,1,2.25.47,5.32,5.32,0,0,1,1.78,1.29,5.78,5.78,0,0,1,1.15,1.92,6.78,6.78,0,0,1,.41,2.37,6.93,6.93,0,0,1-.4,2.39,5.76,5.76,0,0,1-1.13,1.94A5.17,5.17,0,0,1,504.9,154a5.49,5.49,0,0,1-2.37.5,5.13,5.13,0,0,1-2.29-.53,4,4,0,0,1-1.67-1.54h0v1.73h-2.74V136Zm6.6,12.33a4.66,4.66,0,0,0-.2-1.33,3.65,3.65,0,0,0-.62-1.19,3,3,0,0,0-2.49-1.17,3,3,0,0,0-1.42.33,3.76,3.76,0,0,0-1.07.87,3.71,3.71,0,0,0-.67,1.2,4.15,4.15,0,0,0-.23,1.34,4.09,4.09,0,0,0,.23,1.33,3.77,3.77,0,0,0,.67,1.19,3.53,3.53,0,0,0,1.07.85,3,3,0,0,0,1.42.32,3.06,3.06,0,0,0,1.46-.33,3.1,3.1,0,0,0,1-.86,3.81,3.81,0,0,0,.62-1.2A4.85,4.85,0,0,0,505.27,148.34Z"/><path class="cls-10" d="M522.21,148.53v.39a2.42,2.42,0,0,1,0,.38h-8.76a2.84,2.84,0,0,0,.32,1.14,2.89,2.89,0,0,0,.74.89,3.59,3.59,0,0,0,1,.59,3.44,3.44,0,0,0,1.2.21,3.86,3.86,0,0,0,1.82-.39,3.49,3.49,0,0,0,1.23-1.09l1.92,1.53a5.78,5.78,0,0,1-5,2.31,7.27,7.27,0,0,1-2.47-.42,6,6,0,0,1-2-1.19A5.29,5.29,0,0,1,511,151a6.48,6.48,0,0,1-.47-2.53,6.63,6.63,0,0,1,.47-2.53,5.64,5.64,0,0,1,3.21-3.19,6.43,6.43,0,0,1,2.42-.45,6.17,6.17,0,0,1,2.22.4,4.79,4.79,0,0,1,1.76,1.18,5.34,5.34,0,0,1,1.16,1.94A8,8,0,0,1,522.21,148.53Zm-2.88-1.29a3.72,3.72,0,0,0-.15-1.06,2.67,2.67,0,0,0-.49-.89,2.48,2.48,0,0,0-.86-.61,3,3,0,0,0-1.21-.23,3.23,3.23,0,0,0-2.19.78,2.84,2.84,0,0,0-1,2Z"/><path class="cls-10" d="M531.55,145.7a3.33,3.33,0,0,0-1.06-.87,2.94,2.94,0,0,0-1.46-.38,2.79,2.79,0,0,0-1.27.29,1,1,0,0,0-.58,1,1,1,0,0,0,.64,1,11.65,11.65,0,0,0,1.86.56,12,12,0,0,1,1.31.39,4.89,4.89,0,0,1,1.2.63,3.17,3.17,0,0,1,.87,1,2.78,2.78,0,0,1,.34,1.43,3.6,3.6,0,0,1-.4,1.78,3.27,3.27,0,0,1-1,1.19,4.36,4.36,0,0,1-1.54.66,7.73,7.73,0,0,1-1.81.21A7.17,7.17,0,0,1,526,154a5.39,5.39,0,0,1-2.11-1.4l1.9-1.78a3.74,3.74,0,0,0,1.24,1,3.62,3.62,0,0,0,1.71.4,2.76,2.76,0,0,0,.63-.07,2,2,0,0,0,.6-.23,1.14,1.14,0,0,0,.45-.42,1.17,1.17,0,0,0,.17-.64,1.08,1.08,0,0,0-.66-1,11.82,11.82,0,0,0-2-.62,9.71,9.71,0,0,1-1.26-.37,4,4,0,0,1-1.1-.6,2.76,2.76,0,0,1-.76-.93,2.79,2.79,0,0,1-.29-1.36,3.34,3.34,0,0,1,.39-1.66,3.58,3.58,0,0,1,1.05-1.14,4.51,4.51,0,0,1,1.46-.66,6.73,6.73,0,0,1,1.68-.22,7.06,7.06,0,0,1,2.44.44,4,4,0,0,1,1.88,1.32Z"/><path class="cls-10" d="M534.48,144.93v-2.3h2v-3.34h2.84v3.34h2.88v2.3h-2.88v5.36a2.68,2.68,0,0,0,.27,1.27c.19.33.6.5,1.24.5a3.5,3.5,0,0,0,.62-.06,2.36,2.36,0,0,0,.6-.18l.1,2.26a5.73,5.73,0,0,1-.91.23,7.33,7.33,0,0,1-1,.08,4.69,4.69,0,0,1-1.87-.32,2.86,2.86,0,0,1-1.14-.89,3.27,3.27,0,0,1-.58-1.3,7.14,7.14,0,0,1-.16-1.57v-5.38Z"/><path class="cls-10" d="M555.05,154.15h-2.74V152.3h0a3.75,3.75,0,0,1-1.33,1.53,3.82,3.82,0,0,1-2.24.66,4.41,4.41,0,0,1-1.94-.4,3.89,3.89,0,0,1-1.32-1,4.36,4.36,0,0,1-.75-1.49,6.28,6.28,0,0,1-.24-1.73v-7.2h2.88V149a7.86,7.86,0,0,0,.07,1.06,2.93,2.93,0,0,0,.31,1,2.1,2.1,0,0,0,.66.73,2,2,0,0,0,1.12.28,2.57,2.57,0,0,0,1.19-.27,2.53,2.53,0,0,0,.84-.71,3.27,3.27,0,0,0,.49-1,4.09,4.09,0,0,0,.17-1.14v-6.34h2.88Z"/><path class="cls-10" d="M569.25,154.15h-2.73V152.3h0a3.75,3.75,0,0,1-1.33,1.53,3.85,3.85,0,0,1-2.25.66,4.4,4.4,0,0,1-1.93-.4,3.7,3.7,0,0,1-1.32-1,4.38,4.38,0,0,1-.76-1.49,6.28,6.28,0,0,1-.24-1.73v-7.2h2.88V149a7.92,7.92,0,0,0,.08,1.06,2.72,2.72,0,0,0,.31,1,2.1,2.1,0,0,0,.66.73,1.94,1.94,0,0,0,1.11.28,2.52,2.52,0,0,0,1.19-.27,2.34,2.34,0,0,0,.84-.71,3.06,3.06,0,0,0,.49-1,3.75,3.75,0,0,0,.17-1.14v-6.34h2.88Z"/><path class="cls-10" d="M573,142.63h2.76v1.92h0a4.12,4.12,0,0,1,1.34-1.63,3.35,3.35,0,0,1,2-.63l.36,0a.84.84,0,0,1,.33.06V145a4.27,4.27,0,0,0-.49-.1,2.75,2.75,0,0,0-.4,0,3.05,3.05,0,0,0-1.58.36,2.9,2.9,0,0,0-.94.86,3.21,3.21,0,0,0-.45,1,4,4,0,0,0-.12.84v6.17H573Z"/><path class="cls-10" d="M593.2,154.15h-2.73v-1.73h-.05a4,4,0,0,1-1.67,1.54,5.1,5.1,0,0,1-2.29.53,5.42,5.42,0,0,1-2.36-.5,5.21,5.21,0,0,1-1.78-1.32,5.93,5.93,0,0,1-1.13-1.94,7.17,7.17,0,0,1-.39-2.39,6.78,6.78,0,0,1,.4-2.37,5.8,5.8,0,0,1,1.16-1.92,5.19,5.19,0,0,1,1.77-1.29,5.44,5.44,0,0,1,2.26-.47,5,5,0,0,1,2.51.63,4.2,4.2,0,0,1,.8.57,4.85,4.85,0,0,1,.55.6h.07V136h2.88Zm-9.48-5.81a4.52,4.52,0,0,0,.21,1.35,3.78,3.78,0,0,0,.61,1.2,3.2,3.2,0,0,0,1,.86,3.12,3.12,0,0,0,1.47.33,3,3,0,0,0,1.41-.32,3.41,3.41,0,0,0,1.07-.85,3.59,3.59,0,0,0,.67-1.19,4.09,4.09,0,0,0,.23-1.33,4.15,4.15,0,0,0-.23-1.34,3.54,3.54,0,0,0-.67-1.2,3.62,3.62,0,0,0-1.07-.87,3,3,0,0,0-1.41-.33,3.12,3.12,0,0,0-1.47.32,3.17,3.17,0,0,0-1,.85,3.63,3.63,0,0,0-.61,1.19A4.35,4.35,0,0,0,583.72,148.34Z"/><path class="cls-10" d="M607.94,148.53v.39c0,.13,0,.25,0,.38h-8.76a2.85,2.85,0,0,0,1.05,2,3.89,3.89,0,0,0,1,.59,3.53,3.53,0,0,0,1.2.21,3.93,3.93,0,0,0,1.83-.39,3.55,3.55,0,0,0,1.22-1.09l1.92,1.53a5.75,5.75,0,0,1-4.94,2.31,7.23,7.23,0,0,1-2.47-.42,5.79,5.79,0,0,1-2-1.19,5.45,5.45,0,0,1-1.3-1.89,6.49,6.49,0,0,1-.46-2.53,6.63,6.63,0,0,1,.46-2.53A5.73,5.73,0,0,1,598,144a5.59,5.59,0,0,1,1.93-1.25,6.38,6.38,0,0,1,2.41-.45,6.17,6.17,0,0,1,2.22.4,4.83,4.83,0,0,1,1.77,1.18,5.48,5.48,0,0,1,1.16,1.94A8,8,0,0,1,607.94,148.53Zm-2.88-1.29a3.4,3.4,0,0,0-.16-1.06,2.36,2.36,0,0,0-.49-.89,2.44,2.44,0,0,0-.85-.61,3,3,0,0,0-1.21-.23,3.24,3.24,0,0,0-2.2.78,2.83,2.83,0,0,0-1,2Z"/><path class="cls-10" d="M611,142.63h2.76v1.92h0a4.15,4.15,0,0,1,1.35-1.63,3.3,3.3,0,0,1,2-.63l.36,0a.9.9,0,0,1,.34.06V145a4.75,4.75,0,0,0-.49-.1,2.75,2.75,0,0,0-.4,0,3,3,0,0,0-1.58.36,2.8,2.8,0,0,0-.94.86,3.24,3.24,0,0,0-.46,1,4,4,0,0,0-.12.84v6.17H611Z"/><path class="cls-10" d="M72.92,171.43H76l2.4,8.26h0L81,171.43H84l2.49,8.26h0L89,171.43h3L88,183H85.11l-2.62-8.07h0L79.85,183H76.92Z"/><path class="cls-10" d="M93.41,177.14a6.2,6.2,0,0,1,.49-2.48,5.82,5.82,0,0,1,1.34-1.91,5.68,5.68,0,0,1,2-1.22,7,7,0,0,1,4.89,0,5.73,5.73,0,0,1,2,1.22,5.8,5.8,0,0,1,1.33,1.91,6,6,0,0,1,.49,2.48,6.16,6.16,0,0,1-.49,2.5,5.85,5.85,0,0,1-3.33,3.19,6.73,6.73,0,0,1-4.89,0,5.93,5.93,0,0,1-2-1.26,6,6,0,0,1-1.34-1.93A6.33,6.33,0,0,1,93.41,177.14Zm2.93,0a4.85,4.85,0,0,0,.2,1.35,3.81,3.81,0,0,0,.62,1.2,3.33,3.33,0,0,0,4,.86,3.24,3.24,0,0,0,1-.86,4,4,0,0,0,.61-1.2,4.85,4.85,0,0,0,.2-1.35,4.66,4.66,0,0,0-.2-1.33,3.83,3.83,0,0,0-.61-1.19,3.21,3.21,0,0,0-1-.85,3.61,3.61,0,0,0-3,0,3.07,3.07,0,0,0-1,.85,3.65,3.65,0,0,0-.62,1.19A4.66,4.66,0,0,0,96.34,177.14Z"/><path class="cls-10" d="M109,171.43h2.76v1.92h0a4.15,4.15,0,0,1,1.35-1.63,3.3,3.3,0,0,1,2-.63l.36,0a.9.9,0,0,1,.34.06v2.64a4.75,4.75,0,0,0-.49-.1,2.75,2.75,0,0,0-.4,0,3.11,3.11,0,0,0-1.58.35,2.93,2.93,0,0,0-.94.87,3.24,3.24,0,0,0-.46,1,4,4,0,0,0-.12.84V183H109Z"/><path class="cls-10" d="M129.22,183h-2.74v-1.73h0a4,4,0,0,1-1.67,1.54,5.13,5.13,0,0,1-2.29.53,5.49,5.49,0,0,1-2.37-.5,5.17,5.17,0,0,1-1.77-1.32,5.76,5.76,0,0,1-1.13-1.94,6.93,6.93,0,0,1-.4-2.39,6.78,6.78,0,0,1,.41-2.37,5.78,5.78,0,0,1,1.15-1.92,5.32,5.32,0,0,1,1.78-1.29,5.4,5.4,0,0,1,2.25-.47,5.15,5.15,0,0,1,1.42.18,4.76,4.76,0,0,1,1.09.45,4.64,4.64,0,0,1,.81.57,5.79,5.79,0,0,1,.55.6h.07v-8.08h2.88Zm-9.48-5.81a4.85,4.85,0,0,0,.2,1.35,3.81,3.81,0,0,0,.62,1.2,3.1,3.1,0,0,0,1,.86,3.06,3.06,0,0,0,1.46.33,3,3,0,0,0,1.42-.32,3.53,3.53,0,0,0,1.07-.85,3.77,3.77,0,0,0,.67-1.19,4.09,4.09,0,0,0,.23-1.33,4.15,4.15,0,0,0-.23-1.34,3.71,3.71,0,0,0-.67-1.2,3.76,3.76,0,0,0-1.07-.87,3,3,0,0,0-1.42-.33,3,3,0,0,0-2.49,1.17,3.65,3.65,0,0,0-.62,1.19A4.66,4.66,0,0,0,119.74,177.14Z"/><path class="cls-10" d="M131.31,173.73v-2.3h2v-3.34h2.83v3.34H139v2.3h-2.88v5.35a2.69,2.69,0,0,0,.28,1.28c.18.33.6.5,1.24.5a3.5,3.5,0,0,0,.62-.06,2.63,2.63,0,0,0,.6-.18l.1,2.26a5.6,5.6,0,0,1-.92.23,7.07,7.07,0,0,1-1,.08,4.74,4.74,0,0,1-1.88-.32,2.93,2.93,0,0,1-1.14-.89,3.25,3.25,0,0,1-.57-1.3,7.14,7.14,0,0,1-.16-1.57v-5.38Z"/><path class="cls-10" d="M146.93,177.14a6,6,0,0,1,.49-2.48,5.8,5.8,0,0,1,1.33-1.91,5.73,5.73,0,0,1,2-1.22,7,7,0,0,1,4.89,0,5.68,5.68,0,0,1,2,1.22,5.82,5.82,0,0,1,1.34,1.91,6.2,6.2,0,0,1,.49,2.48,6.33,6.33,0,0,1-.49,2.5,6,6,0,0,1-1.34,1.93,5.93,5.93,0,0,1-2,1.26,6.73,6.73,0,0,1-4.89,0,5.85,5.85,0,0,1-3.33-3.19A6.16,6.16,0,0,1,146.93,177.14Zm2.93,0a4.85,4.85,0,0,0,.2,1.35,4,4,0,0,0,.61,1.2,3.24,3.24,0,0,0,1,.86,3.19,3.19,0,0,0,4-.86,3.81,3.81,0,0,0,.62-1.2,4.85,4.85,0,0,0,.2-1.35,4.66,4.66,0,0,0-.2-1.33,3.65,3.65,0,0,0-.62-1.19,3.07,3.07,0,0,0-1-.85,3.61,3.61,0,0,0-3,0,3.21,3.21,0,0,0-1,.85,3.83,3.83,0,0,0-.61,1.19A4.66,4.66,0,0,0,149.86,177.14Z"/><path class="cls-10" d="M165.24,171.43V173h.07a4.33,4.33,0,0,1,.57-.69,3.52,3.52,0,0,1,.85-.62,5.9,5.9,0,0,1,1.14-.46,5.23,5.23,0,0,1,1.43-.18,5.4,5.4,0,0,1,2.25.47,5.32,5.32,0,0,1,1.78,1.29,5.62,5.62,0,0,1,1.15,1.92,6.78,6.78,0,0,1,.41,2.37,6.93,6.93,0,0,1-.4,2.39,5.91,5.91,0,0,1-1.12,1.94,5.21,5.21,0,0,1-1.78,1.32,5.45,5.45,0,0,1-2.36.5,5,5,0,0,1-2.25-.51,3.76,3.76,0,0,1-1.57-1.37h0v7.3h-2.88V171.43Zm6.72,5.71a4.66,4.66,0,0,0-.2-1.33,3.83,3.83,0,0,0-.61-1.19,3.21,3.21,0,0,0-1-.85,3.05,3.05,0,0,0-1.46-.32,3,3,0,0,0-1.42.33,3.58,3.58,0,0,0-1.06.87,3.74,3.74,0,0,0-.68,1.2,4.14,4.14,0,0,0-.22,1.34,4.08,4.08,0,0,0,.22,1.33,3.8,3.8,0,0,0,.68,1.19,3.37,3.37,0,0,0,1.06.85,3,3,0,0,0,1.42.32,3.06,3.06,0,0,0,1.46-.33,3.24,3.24,0,0,0,1-.86,4,4,0,0,0,.61-1.2A4.85,4.85,0,0,0,172,177.14Z"/><path class="cls-10" d="M189.63,171.43v10.49a9.52,9.52,0,0,1-.39,2.82,5.25,5.25,0,0,1-3.21,3.49,8,8,0,0,1-2.91.48,9.69,9.69,0,0,1-1.47-.12,10.13,10.13,0,0,1-1.54-.36,9.22,9.22,0,0,1-1.45-.6,6.59,6.59,0,0,1-1.25-.82l1.66-2.23a5.92,5.92,0,0,0,1.89,1.21,5.78,5.78,0,0,0,2.14.42,4.45,4.45,0,0,0,1.74-.3,2.85,2.85,0,0,0,1.13-.83,3.23,3.23,0,0,0,.6-1.25,6.55,6.55,0,0,0,.18-1.59v-.84h-.05a4.13,4.13,0,0,1-1.6,1.29,5.11,5.11,0,0,1-2.17.45,5.61,5.61,0,0,1-2.35-.48,5.34,5.34,0,0,1-1.79-1.29,5.92,5.92,0,0,1-1.14-1.91,6.62,6.62,0,0,1-.41-2.32,6.79,6.79,0,0,1,.4-2.35,5.58,5.58,0,0,1,1.13-1.92,5.39,5.39,0,0,1,1.77-1.3,5.56,5.56,0,0,1,2.34-.48,5.15,5.15,0,0,1,2.28.51,3.72,3.72,0,0,1,1.68,1.56h0v-1.73Zm-6.15,2a3.27,3.27,0,0,0-1.4.28,3,3,0,0,0-1,.78,3.46,3.46,0,0,0-.65,1.16,4.53,4.53,0,0,0-.23,1.44,4,4,0,0,0,.23,1.33,3.66,3.66,0,0,0,.65,1.16,3.1,3.1,0,0,0,1,.83,3,3,0,0,0,1.38.31,3.28,3.28,0,0,0,2.51-1.1,3.62,3.62,0,0,0,.68-1.16,4,4,0,0,0,.24-1.37,4.19,4.19,0,0,0-.24-1.42,3.78,3.78,0,0,0-.68-1.17,3.35,3.35,0,0,0-1.07-.79A3.4,3.4,0,0,0,183.48,173.45Z"/><path class="cls-10" d="M204.31,177.33v.39a2.42,2.42,0,0,1,0,.38h-8.76a2.84,2.84,0,0,0,.32,1.14,2.89,2.89,0,0,0,.74.89,3.59,3.59,0,0,0,1,.59,3.44,3.44,0,0,0,1.2.21,3.86,3.86,0,0,0,1.82-.39,3.49,3.49,0,0,0,1.23-1.09l1.92,1.53a5.78,5.78,0,0,1-4.95,2.31,7.27,7.27,0,0,1-2.47-.42,6,6,0,0,1-2-1.19,5.29,5.29,0,0,1-1.29-1.89,6.48,6.48,0,0,1-.47-2.53,6.63,6.63,0,0,1,.47-2.53,5.64,5.64,0,0,1,3.21-3.19,6.43,6.43,0,0,1,2.42-.45,6.17,6.17,0,0,1,2.22.4,4.79,4.79,0,0,1,1.76,1.18,5.34,5.34,0,0,1,1.16,1.94A8,8,0,0,1,204.31,177.33ZM201.43,176a3.72,3.72,0,0,0-.15-1.06,2.67,2.67,0,0,0-.49-.89,2.48,2.48,0,0,0-.86-.61,3,3,0,0,0-1.21-.23,3.23,3.23,0,0,0-2.19.78,2.84,2.84,0,0,0-1,2Z"/><path class="cls-10" d="M207.34,171.43h2.73v1.85h.05a3.75,3.75,0,0,1,1.33-1.53,3.85,3.85,0,0,1,2.25-.66,4.4,4.4,0,0,1,1.93.4,3.7,3.7,0,0,1,1.32,1,4.29,4.29,0,0,1,.76,1.49,6.28,6.28,0,0,1,.24,1.73V183h-2.88v-6.38a7.92,7.92,0,0,0-.08-1.06,2.72,2.72,0,0,0-.31-1,2.1,2.1,0,0,0-.66-.73,1.94,1.94,0,0,0-1.11-.29,2.47,2.47,0,0,0-1.2.28,2.4,2.4,0,0,0-.83.71,3.06,3.06,0,0,0-.49,1,3.75,3.75,0,0,0-.17,1.14V183h-2.88Z"/><path class="cls-10" d="M220.87,177.14a6,6,0,0,1,.5-2.48,5.69,5.69,0,0,1,3.32-3.13,7,7,0,0,1,4.9,0,5.69,5.69,0,0,1,3.32,3.13,6,6,0,0,1,.49,2.48,6.16,6.16,0,0,1-.49,2.5,5.87,5.87,0,0,1-3.32,3.19,6.75,6.75,0,0,1-4.9,0,5.93,5.93,0,0,1-2-1.26,5.84,5.84,0,0,1-1.33-1.93A6.17,6.17,0,0,1,220.87,177.14Zm2.93,0a4.52,4.52,0,0,0,.21,1.35,3.78,3.78,0,0,0,.61,1.2,3.1,3.1,0,0,0,1,.86,3.53,3.53,0,0,0,3,0,3.2,3.2,0,0,0,1-.86,4,4,0,0,0,.61-1.2,4.51,4.51,0,0,0,.2-1.35,4.34,4.34,0,0,0-.2-1.33,3.83,3.83,0,0,0-.61-1.19,3.4,3.4,0,0,0-4-.85,3.07,3.07,0,0,0-1,.85,3.63,3.63,0,0,0-.61,1.19A4.35,4.35,0,0,0,223.8,177.14Z"/><path class="cls-10" d="M250.18,171.09a4.4,4.4,0,0,1,1.93.4,3.79,3.79,0,0,1,1.32,1,4.47,4.47,0,0,1,.76,1.49,6.28,6.28,0,0,1,.24,1.73V183h-2.88v-6.38a7.92,7.92,0,0,0-.08-1.06,2.72,2.72,0,0,0-.31-1,2.1,2.1,0,0,0-.66-.73,1.94,1.94,0,0,0-1.11-.29,2.24,2.24,0,0,0-1.16.29,2.46,2.46,0,0,0-.79.75,3,3,0,0,0-.45,1,4.37,4.37,0,0,0-.15,1.12V183H244v-7a3,3,0,0,0-.51-1.79,1.89,1.89,0,0,0-1.62-.71,2.25,2.25,0,0,0-1.13.28,2.32,2.32,0,0,0-.78.71,3.22,3.22,0,0,0-.46,1,4.46,4.46,0,0,0-.15,1.14V183h-2.88V171.43h2.73v1.85h.05a3.43,3.43,0,0,1,.52-.82,3.88,3.88,0,0,1,.76-.69,3.73,3.73,0,0,1,1-.5,4.3,4.3,0,0,1,1.28-.18,3.9,3.9,0,0,1,2.23.6,4.07,4.07,0,0,1,1.37,1.59,4,4,0,0,1,1.53-1.62A4.34,4.34,0,0,1,250.18,171.09Z"/><path class="cls-10" d="M269,177.33v.39a2.43,2.43,0,0,1,0,.38h-8.76a2.9,2.9,0,0,0,1.06,2,3.73,3.73,0,0,0,1,.59,3.48,3.48,0,0,0,1.2.21,3.93,3.93,0,0,0,1.83-.39,3.55,3.55,0,0,0,1.22-1.09l1.92,1.53a5.76,5.76,0,0,1-4.94,2.31,7.33,7.33,0,0,1-2.48-.42,5.84,5.84,0,0,1-1.95-1.19,5.32,5.32,0,0,1-1.3-1.89,6.48,6.48,0,0,1-.47-2.53,6.63,6.63,0,0,1,.47-2.53,5.59,5.59,0,0,1,1.29-1.94,5.5,5.5,0,0,1,1.93-1.25,6.38,6.38,0,0,1,2.41-.45,6.17,6.17,0,0,1,2.22.4,4.71,4.71,0,0,1,1.76,1.18,5.36,5.36,0,0,1,1.17,1.94A8,8,0,0,1,269,177.33ZM266.14,176A3.4,3.4,0,0,0,266,175a2.5,2.5,0,0,0-.49-.89,2.44,2.44,0,0,0-.85-.61,3,3,0,0,0-1.21-.23,3.24,3.24,0,0,0-2.2.78,2.88,2.88,0,0,0-1,2Z"/><path class="cls-10" d="M272,171.43h2.74v1.85h.05a3.61,3.61,0,0,1,1.33-1.53,3.82,3.82,0,0,1,2.24-.66,4.37,4.37,0,0,1,1.93.4,3.7,3.7,0,0,1,1.32,1,4.13,4.13,0,0,1,.76,1.49,6.28,6.28,0,0,1,.24,1.73V183h-2.88v-6.38a7.86,7.86,0,0,0-.07-1.06,2.94,2.94,0,0,0-.32-1,2.07,2.07,0,0,0-.65-.73,2,2,0,0,0-1.12-.29,2.45,2.45,0,0,0-2,1,3.06,3.06,0,0,0-.49,1,4.09,4.09,0,0,0-.17,1.14V183H272Z"/><rect class="cls-13" x="275" y="1227" width="75" height="7" rx="3.5"/><rect class="cls-8" x="362" y="1227" width="50" height="7" rx="3.5"/><rect class="cls-8" x="425" y="1227" width="50" height="7" rx="3.5"/></svg>