<svg xmlns="http://www.w3.org/2000/svg" viewBox="0 0 21.66 14.85"><defs><style>.cls-1{fill:#15171a;stroke:#15171a;stroke-miterlimit:10;stroke-width:0.25px;}</style></defs><title>IconBetalingAsset 18</title><g id="Layer_2" data-name="Layer 2"><g id="Layer_3" data-name="Layer 3"><path id="path" class="cls-1" d="M19.59,9V5.87a4.87,4.87,0,0,1-3.79-3.8H5.87a4.88,4.88,0,0,1-3.8,3.8V9a4.88,4.88,0,0,1,3.8,3.8H15.8A4.87,4.87,0,0,1,19.59,9Zm0,2a2.91,2.91,0,0,0-1.78,1.78H19.1a.49.49,0,0,0,.49-.49h0ZM2.07,11v1.29a.49.49,0,0,0,.49.49H3.85A2.91,2.91,0,0,0,2.07,11ZM17.81,2.07a2.91,2.91,0,0,0,1.78,1.78V2.56a.49.49,0,0,0-.49-.49H17.81Zm-14,0H2.56a.49.49,0,0,0-.49.49h0V3.85A2.89,2.89,0,0,0,3.85,2.07ZM.13,2.56A2.42,2.42,0,0,1,2.56.13H19.1a2.42,2.42,0,0,1,2.44,2.43h0v9.73a2.43,2.43,0,0,1-2.44,2.43H2.56A2.42,2.42,0,0,1,.13,12.29h0Zm10.7,8.76a3.9,3.9,0,1,1,3.89-3.89,3.89,3.89,0,0,1-3.89,3.89Zm0-2A1.95,1.95,0,1,0,8.88,7.42h0A2,2,0,0,0,10.83,9.37Z"/></g></g></svg>