<svg id="Layer_3" data-name="Layer 3" xmlns="http://www.w3.org/2000/svg" xmlns:xlink="http://www.w3.org/1999/xlink" viewBox="0 0 750 1334"><defs><style>.cls-1{fill:none;}.cls-2{fill:url(#linear-gradient);}.cls-3{clip-path:url(#clip-path);}.cls-4,.cls-9{fill:#8980ff;}.cls-11,.cls-4{opacity:0.8;}.cls-5{fill:#d5e5fd;}.cls-6{fill:#9d80ff;}.cls-7{fill:#7368e3;}.cls-11,.cls-8{fill:#a9a9ff;}.cls-10,.cls-33{fill:#7966ff;}.cls-12{fill:#f1eefc;}.cls-13,.cls-29{fill:#1a1a1a;}.cls-14{fill:#fff;}.cls-15{fill:#31383e;}.cls-16{fill:#fee4aa;}.cls-17{fill:#333;}.cls-18{fill:#c3d4ff;}.cls-19,.cls-21{fill:#363e44;}.cls-20{fill:#fefefe;}.cls-21,.cls-22,.cls-25,.cls-28,.cls-29{fill-rule:evenodd;}.cls-22{fill:#0a3c5f;}.cls-23{fill:#bab5b3;}.cls-24{fill:#e8e2df;}.cls-25,.cls-27{fill:#414a53;}.cls-26{fill:#f7b690;}.cls-28,.cls-31{fill:#15171a;}.cls-30{fill:#f4a086;}.cls-32{opacity:0.5;fill:url(#linear-gradient-2);}.cls-33{font-size:36px;font-family:AvenirNext-Bold, Avenir Next;font-weight:700;letter-spacing:0.1em;}.cls-34{letter-spacing:0.08em;}.cls-35{letter-spacing:0.08em;}</style><linearGradient id="linear-gradient" x1="-1195" y1="-49.86" x2="-1195" y2="1132.7" gradientTransform="matrix(1, 0, 0, -1, 1570, 982)" gradientUnits="userSpaceOnUse"><stop offset="0" stop-color="#fff"/><stop offset="0.01" stop-color="#fefcff"/><stop offset="0.05" stop-color="#fdf5ff"/><stop offset="0.14" stop-color="#fdf3ff"/><stop offset="0.3" stop-color="#fdf3ff"/><stop offset="0.68" stop-color="#d8e4ff"/><stop offset="1" stop-color="#c3d4ff"/></linearGradient><clipPath id="clip-path"><rect class="cls-1" y="492" width="750" height="582"/></clipPath><linearGradient id="linear-gradient-2" x1="695.96" y1="1005.27" x2="695.96" y2="1027.11" gradientTransform="translate(-345.31 -70.85) rotate(-10.38)" gradientUnits="userSpaceOnUse"><stop offset="0" stop-color="#7966ff"/><stop offset="0.16" stop-color="#8476ff"/><stop offset="0.49" stop-color="#9892ff"/><stop offset="0.78" stop-color="#a5a3ff"/><stop offset="1" stop-color="#a9a9ff"/></linearGradient></defs><title>ErkebTuto2Artboard 32</title><rect class="cls-2" y="1" width="750" height="980" transform="translate(750 982) rotate(-180)"/><g class="cls-3"><path class="cls-4" d="M680,631.13c-1.58-6.21-8.27-9-11.35-14.54-3.54-6.34-1.33-14.94,3.3-20.19.3-.33,23.52-38.52,43.34-19.59,5.74,5.49,7.2,24.16,7.33,32.47l.6,38.12c.26,16.66-14.22,28.12-29.16,23.1-6.2-2.08-15.87-8-17.78-15.26C674,646.66,682.18,639.61,680,631.13Z"/><rect class="cls-5" x="620.06" y="689.28" width="152.92" height="1.12" transform="matrix(0.05, -1, 1, 0.05, -26.52, 1351.82)"/><polygon class="cls-5" points="699.48 626.28 684.96 609.87 685.79 609.13 699.74 624.9 714.21 617.57 714.72 618.57 699.48 626.28"/><polygon class="cls-5" points="698.41 647.88 681.22 641.79 681.6 640.74 698.45 646.71 713.86 642.13 714.17 643.2 698.41 647.88"/><rect class="cls-5" x="689.41" y="633.99" width="1.11" height="11.11" transform="translate(-155.76 227.46) rotate(-16.85)"/><rect class="cls-5" x="704.19" y="615.63" width="9.72" height="1.11" transform="translate(33.26 1268.67) rotate(-84.99)"/><path class="cls-6" d="M701.8,654.86c-.33-6.22-.49-13,3.29-18a13.88,13.88,0,0,1,14.4-4.74,14.54,14.54,0,0,1,10.14,11.39c.8,4.75-.79,9.54-1.4,14.32-1.41,11.06,2.34,22.89-2,33.14-2.4,5.61-8.55,10.46-14.31,8.45-6.17-2.16-8.3-10.26-8.66-16.07C702.63,673.9,702.3,664.37,701.8,654.86Z"/><rect class="cls-5" x="660.89" y="711.56" width="108.22" height="1.12" transform="translate(-18.77 1404.89) rotate(-88.24)"/><polygon class="cls-5" points="716.2 672.13 706.92 661.74 707.75 661 716.31 670.59 723.78 664.42 724.49 665.28 716.2 672.13"/><rect class="cls-5" x="715.54" y="683.56" width="7.86" height="1.11" transform="translate(-201.34 312.96) rotate(-21.6)"/><path class="cls-7" d="M646.8,664.19c.71-1.55,1.78-2.91,2.52-4.45a5.86,5.86,0,0,0,.39-4.94c-1-2.19-3.85-2.95-5.28-4.91-1.69-2.34-.95-5.64.42-8.18s3.31-4.82,4-7.62c.92-3.81-.67-7.83,0-11.69a9,9,0,0,1,5.61-7,7.28,7.28,0,0,1,8.31,2.58c2.45,3.71.55,8.75,1.65,13.05s5.13,7.6,5.28,12c.11,3-1.65,5.76-2.51,8.66-1,3.29-.79,6.81-.45,10.23s.81,6.87.39,10.28c-.82,6.49-7.55,13.73-14.37,9.07C648,678,644.3,669.63,646.8,664.19Z"/><rect class="cls-5" x="657" y="633" width="1" height="133"/><path class="cls-8" d="M167.79,631.13c1.58-6.21,8.26-9,11.34-14.54,3.55-6.34,1.33-14.94-3.29-20.19-.3-.33-23.52-38.52-43.34-19.59-5.74,5.49-7.2,24.16-7.33,32.47l-.6,38.12c-.26,16.66,14.22,28.12,29.16,23.1,6.2-2.08,15.87-8,17.77-15.26C173.76,646.66,165.63,639.61,167.79,631.13Z"/><rect class="cls-5" x="150.72" y="613.37" width="1.12" height="152.92" transform="translate(-33.57 8.23) rotate(-2.8)"/><polygon class="cls-5" points="148.33 626.28 133.09 618.57 133.59 617.57 148.07 624.9 162.02 609.13 162.85 609.87 148.33 626.28"/><polygon class="cls-5" points="149.39 647.88 133.63 643.2 133.95 642.13 149.36 646.71 166.21 640.74 166.58 641.79 149.39 647.88"/><rect class="cls-5" x="152.29" y="638.99" width="11.11" height="1.11" transform="translate(-500 605.09) rotate(-73.14)"/><rect class="cls-5" x="138.2" y="611.32" width="1.11" height="9.72" transform="translate(-53.24 14.46) rotate(-5.01)"/><path class="cls-9" d="M146,654.86c.33-6.22.49-13-3.3-18a13.87,13.87,0,0,0-14.4-4.74,14.53,14.53,0,0,0-10.13,11.39c-.8,4.75.79,9.54,1.39,14.32,1.41,11.06-2.34,22.89,2.05,33.14,2.4,5.61,8.54,10.46,14.31,8.45,6.17-2.16,8.3-10.26,8.66-16.07C145.18,673.9,145.51,664.37,146,654.86Z"/><rect class="cls-5" x="132.25" y="658.01" width="1.12" height="108.22" transform="translate(-21.88 4.43) rotate(-1.77)"/><polygon class="cls-5" points="131.61 672.13 123.31 665.28 124.03 664.42 131.49 670.59 140.06 661 140.89 661.74 131.61 672.13"/><rect class="cls-5" x="127.78" y="680.19" width="1.11" height="7.86" transform="translate(-555.01 551.74) rotate(-68.41)"/><path class="cls-9" d="M201,664.19c-.71-1.55-1.78-2.91-2.52-4.45a5.9,5.9,0,0,1-.4-4.94c1-2.19,3.86-2.95,5.28-4.91,1.7-2.34.95-5.64-.42-8.18s-3.3-4.82-4-7.62c-.92-3.81.66-7.83,0-11.69a9,9,0,0,0-5.62-7,7.27,7.27,0,0,0-8.3,2.58c-2.45,3.71-.55,8.75-1.66,13.05s-5.12,7.6-5.28,12c-.1,3,1.66,5.76,2.52,8.66,1,3.29.79,6.81.45,10.23s-.82,6.87-.39,10.28c.82,6.49,7.55,13.73,14.37,9.07C199.86,678,203.51,669.63,201,664.19Z"/><rect class="cls-5" x="189" y="633" width="2" height="133"/><path class="cls-8" d="M0,984l729-20,45.73-197.79a188.52,188.52,0,0,0-40.05-12.67c-54.45-11-116.92-2.16-170-15.24-21-5.19-39.44-13.58-60.68-18.49-88.74-20.52-196.24,33.5-284,11.61C159.55,716.34,76,700,0,691"/><path class="cls-7" d="M61.49,687.67c-3.69-6.09-3.61-15.28,1.18-22.38,1.53-2.28,3.58-4.51,3.59-7.25,0-2.49-1.66-4.61-2.79-6.83A16.48,16.48,0,0,1,74,627.86c8.29-2.15,17.83,3.21,15.82,14.13-1.49,8.11-7.91,12-6.58,17.18.86,3.35,4.61,4.87,7.47,6.81a18.49,18.49,0,0,1,7.14,20.08C92.34,704.41,69.15,700.33,61.49,687.67Z"/><rect class="cls-5" x="76" y="639" width="1" height="94"/><rect class="cls-5" x="75.71" y="668.24" width="6.8" height="1.11" transform="translate(-466.86 274.5) rotate(-47.42)"/><polygon class="cls-5" points="76.77 692.84 70.64 686.59 71.43 685.81 76.84 691.32 90.58 679.59 91.31 680.44 76.77 692.84"/><rect class="cls-5" x="72.42" y="640.23" width="1.11" height="11" transform="translate(-428.83 232.83) rotate(-44.1)"/><path class="cls-10" d="M603.21,646.32c1.27-5,6.66-7.27,9.14-11.7,2.85-5.11,1.07-12-2.66-16.26-.24-.27-18.93-31-34.89-15.77C570.18,607,569,622,568.91,628.73q-.25,15.35-.49,30.69c-.21,13.41,11.45,22.63,23.48,18.59,5-1.67,12.77-6.45,14.3-12.28C608,658.82,601.48,653.15,603.21,646.32Z"/><rect class="cls-5" x="589.37" y="632.02" width="1.12" height="123.11" transform="matrix(1, -0.05, 0.05, 1, -33.22, 29.69)"/><polygon class="cls-5" points="587.58 642.55 575.23 636.3 575.73 635.31 587.31 641.16 598.49 628.54 599.32 629.28 587.58 642.55"/><polygon class="cls-5" points="588.41 659.92 575.69 656.14 576 655.07 588.38 658.75 601.91 653.95 602.28 655 588.41 659.92"/><rect class="cls-5" x="590.74" y="652.54" width="8.94" height="1.11" transform="translate(-202.4 1033.39) rotate(-73.15)"/><rect class="cls-5" x="579.28" y="630.38" width="1.11" height="7.82" transform="translate(-53.13 53.01) rotate(-5.01)"/><path class="cls-8" d="M585.68,665.42c.27-5,.39-10.48-2.65-14.46a11.17,11.17,0,0,0-11.59-3.81,11.73,11.73,0,0,0-8.17,9.16c-.64,3.83.64,7.68,1.13,11.53,1.13,8.91-1.88,18.43,1.64,26.68,1.94,4.52,6.88,8.43,11.52,6.8,5-1.74,6.68-8.26,7-12.93C585,680.75,585.28,673.07,585.68,665.42Z"/><rect class="cls-5" x="574.5" y="667.96" width="1.12" height="87.12" transform="translate(-21.65 18.05) rotate(-1.77)"/><polygon class="cls-5" points="574.1 679.48 567.34 673.89 568.05 673.03 573.98 677.93 580.81 670.29 581.64 671.04 574.1 679.48"/><rect class="cls-5" x="570.9" y="685.81" width="1.11" height="6.32" transform="translate(-279.46 966.8) rotate(-68.41)"/><path class="cls-9" d="M624.94,705.27c-.57-1.25-1.43-2.35-2-3.59a4.75,4.75,0,0,1-.32-4c.84-1.77,3.1-2.38,4.25-4,1.37-1.88.77-4.54-.33-6.58s-2.67-3.89-3.21-6.14c-.74-3.06.53-6.31,0-9.41a7.26,7.26,0,0,0-4.51-5.6,5.87,5.87,0,0,0-6.69,2.07c-2,3-.44,7-1.33,10.51s-4.13,6.12-4.25,9.67c-.09,2.44,1.33,4.64,2,7a21.73,21.73,0,0,1,.36,8.24,37.08,37.08,0,0,0-.32,8.28c.66,5.22,6.08,11,11.57,7.3C624,716.41,627,709.64,624.94,705.27Z"/><rect class="cls-5" x="616" y="681" width="1" height="79"/><path class="cls-11" d="M517.64,691.84c-3-4.91-2.91-12.3,1-18,1.24-1.83,2.88-3.63,2.89-5.84,0-2-1.34-3.71-2.24-5.5a13.27,13.27,0,0,1,8.48-18.8c6.67-1.72,14.35,2.59,12.74,11.38-1.21,6.53-6.37,9.65-5.3,13.83.69,2.7,3.71,3.92,6,5.48a14.91,14.91,0,0,1,5.75,16.17C542.47,705.31,523.81,702,517.64,691.84Z"/><rect class="cls-5" x="529" y="653" width="1" height="84"/><rect class="cls-5" x="529.09" y="676.09" width="5.47" height="1.11" transform="translate(-326.25 610.29) rotate(-47.41)"/><polygon class="cls-5" points="529.94 696.14 524.93 691.04 525.72 690.26 530 694.62 540.99 685.25 541.71 686.09 529.94 696.14"/><rect class="cls-5" x="526.33" y="653.64" width="1.11" height="8.86" transform="translate(-309.46 552.28) rotate(-44.11)"/><path class="cls-9" d="M546.34,759.88a3.72,3.72,0,0,1-.23-.87h0a3.7,3.7,0,0,1,0-.88c.3-2.91,3.7-4.15,6.46-4.06s5.78.74,8.1-.86c2.87-2,3.05-6.28,4.58-9.54,2.67-5.68,10.5-7.69,15.33-3.95,0-4.93,3.67-9.57,8.25-10.45A10.31,10.31,0,0,1,600,736c-.33-4.2,4.4-5.6,7.35-4.31,3.91,1.72,5,6.41,6.34,10.19,2.38-3.13,8-4.43,7.33.83a15.91,15.91,0,0,1-2.06,5.62,4.88,4.88,0,0,1,4.18,2.43,4.61,4.61,0,0,1,8.74-.23,3.62,3.62,0,0,1,4.16-4.54c6.59,1.61,4.57,6.4.31,11.88,3.64-3.29,11,.79,11.68,5.17H547.16Z"/><path class="cls-9" d="M55.45,780.1a4.48,4.48,0,0,1-.28-1.09h0a4.49,4.49,0,0,1,0-1.1c.37-3.64,4.57-5.18,8-5.08s7.14.93,10-1.07c3.54-2.48,3.77-7.85,5.66-11.92,3.29-7.1,13-9.62,18.93-4.94,0-6.16,4.53-12,10.18-13.07s11.79,2.62,13.82,8.39c-.41-5.26,5.44-7,9.08-5.39,4.83,2.14,6.22,8,7.82,12.73,2.95-3.91,9.93-5.53,9,1a20.18,20.18,0,0,1-2.54,7,6,6,0,0,1,5.16,3,5.67,5.67,0,0,1,10.79-.28c-.82-3.36,2-6.44,5.13-5.68,8.14,2,5.65,8,.38,14.85,4.5-4.11,13.64,1,14.42,6.46H56.46Z"/></g><path class="cls-12" d="M750,1327H0V803l81.67,28.8a879.91,879.91,0,0,0,586.66,0L750,803Z"/><path class="cls-8" d="M750,1280H0V865l81.67,28.8a879.91,879.91,0,0,0,586.66,0L750,865Z"/><path class="cls-9" d="M750,1327H0V928l81.67,28.8a879.91,879.91,0,0,0,586.66,0L750,928Z"/><path class="cls-10" d="M750,1334H0V995l81.67,27.8a879.91,879.91,0,0,0,586.66,0L750,995Z"/><path class="cls-6" d="M483.54,874.3a9.72,9.72,0,0,0,.63-2.26v0h0a9.2,9.2,0,0,0,0-2.29c-.82-7.53-10.16-10.72-17.73-10.51s-15.86,1.93-22.2-2.21c-7.87-5.15-8.38-16.28-12.57-24.71-7.31-14.7-28.8-19.93-42-10.23,0-12.76-10.07-24.78-22.62-27.07s-26.2,5.43-30.71,17.37c.91-10.88-12.08-14.53-20.18-11.17-10.72,4.45-13.81,16.61-17.38,26.38-6.54-8.1-22.06-11.46-20.1,2.16a39.85,39.85,0,0,0,5.65,14.55,13.57,13.57,0,0,0-11.46,6.28c-4-10.92-19.47-11.3-24-.58a9.61,9.61,0,0,0-11.41-11.75c-18.08,4.15-12.54,16.56-.85,30.76-10-8.52-30.29,2-32,13.38l146.71,6.69a129.82,129.82,0,0,0,13.38-.07l58.31.38,58.3-7Z"/><path d="M263.07,845.22l-66.51-1.88L189,809.71l84.94,2.4s-12.51,9.76-13.67,19.66C259.13,841.45,263.07,845.22,263.07,845.22Z"/><circle cx="332.98" cy="738.64" r="5.06"/><path d="M334.58,732.14a5.06,5.06,0,1,1-4.92-5.21A5.07,5.07,0,0,1,334.58,732.14Z"/><path class="cls-13" d="M273.93,812.19l-101.39-2.87.53-18.65a3.09,3.09,0,0,1,3-3.19l94.78,2.68c6.26.18,10.72,4.29,9.07,8.35C278.47,801.94,273.93,812.19,273.93,812.19Z"/><circle cx="195.5" cy="859.5" r="31.5" transform="translate(-536.68 368.71) rotate(-43.35)"/><path d="M399.59,865.62A31.47,31.47,0,1,1,369,833.28,31.48,31.48,0,0,1,399.59,865.62Z"/><circle class="cls-14" cx="368.5" cy="864.5" r="21.5" transform="translate(-571.25 868.41) rotate(-67.15)"/><circle class="cls-14" cx="194.5" cy="859.5" r="21.5" transform="translate(-673.08 705) rotate(-67.15)"/><path class="cls-12" d="M374.21,864.91a6.09,6.09,0,1,1-5.91-6.26A6.07,6.07,0,0,1,374.21,864.91Z"/><path class="cls-12" d="M201.1,860a6.09,6.09,0,1,1-5.92-6.25A6.1,6.1,0,0,1,201.1,860Z"/><rect class="cls-13" x="209.49" y="845.09" width="97.7" height="18.63" transform="translate(24.24 -6.96) rotate(1.62)"/><polygon class="cls-15" points="172.23 820.28 143.99 849.24 144.15 843.61 167.22 809.17 172.54 809.32 172.23 820.28"/><path class="cls-13" d="M334.9,723h8.49a0,0,0,0,1,0,0v37.32a0,0,0,0,1,0,0h-9.08a0,0,0,0,1,0,0V723.64A.59.59,0,0,1,334.9,723Z" transform="translate(21.09 -9.28) rotate(1.62)"/><path class="cls-13" d="M365.9,791.16l-23-30.67-9.07-.26,6.48,27a23.12,23.12,0,0,1-3.73,18.95l-29.11,40.3-.52,18.62,60.31-55a8.47,8.47,0,0,0,2.43-8.62l-1.92-6.63A11.44,11.44,0,0,0,365.9,791.16Z"/><path class="cls-16" d="M364.36,738a14.29,14.29,0,0,1-14.68,13.87c-7.88-.22-7.07-28.76.81-28.54A14.28,14.28,0,0,1,364.36,738Z"/><polygon class="cls-13" points="341.15 704.51 344.23 704.6 343.69 723.66 338.11 723.5 341.15 704.51"/><polygon class="cls-17" points="340.99 710.68 334.97 713.01 335.48 695.22 341.36 697.89 340.99 710.68"/><path class="cls-17" d="M344.24,704.37c-.1,3.53-1.55,6.36-3.25,6.31s-1.33-12.84.36-12.79S344.34,700.84,344.24,704.37Z"/><path class="cls-18" d="M336.28,704.14c-.14,4.92-.72,8.89-1.31,8.87s-.94-4-.81-8.93.73-8.88,1.32-8.86S336.42,699.23,336.28,704.14Z"/><path class="cls-15" d="M357.47,821.91h.31a2.51,2.51,0,0,1,2.51,2.51v43a2.5,2.5,0,0,1-2.5,2.5h-.31a2.51,2.51,0,0,1-2.51-2.51v-43A2.5,2.5,0,0,1,357.47,821.91Z" transform="translate(-372.44 288.73) rotate(-29.73)"/><path class="cls-13" d="M229.31,850.63c.13-3.28-19.87-35.75-56-18.91-2.53,1.07,4.31,9.88,7.58,9,19.9-5.47,37.4-.37,44.8,11.08C227,853.69,229.28,851.57,229.31,850.63Z"/><polygon points="192.59 820.86 172.23 820.28 172.54 809.32 189.84 809.81 192.59 820.86"/><rect class="cls-17" x="343.51" y="723.27" width="6.58" height="28.55" transform="translate(20.97 -9.5) rotate(1.62)"/><circle class="cls-17" cx="256.46" cy="863.67" r="14.04"/><polygon class="cls-17" points="217.47 865.59 253.49 866.61 253.9 852.27 217.69 858.08 217.47 865.59"/><path class="cls-13" d="M263.86,863.71a8,8,0,1,1-7.74-8.19A8,8,0,0,1,263.86,863.71Z"/><rect class="cls-19" x="498" y="524" width="8" height="360"/><path class="cls-20" d="M532.08,497.48a30.06,30.06,0,0,0-60-2.35,30.41,30.41,0,0,0,.86,9.87h58.23A30,30,0,0,0,532.08,497.48Z"/><path class="cls-21" d="M472.91,505a30.07,30.07,0,0,0,58.23,0Z"/><rect class="cls-19" x="471" y="870" width="63" height="14"/><polygon class="cls-22" points="505.91 855 498.13 855 471.11 869 532.94 869 505.91 855"/><rect class="cls-23" x="324" y="752" width="13" height="144"/><rect class="cls-23" x="293" y="832" width="13" height="64"/><rect class="cls-23" x="489" y="832" width="13" height="64"/><rect class="cls-23" x="520" y="752" width="13" height="144"/><path class="cls-24" d="M304.53,757.27v.46a6.28,6.28,0,0,0,6.28,6.27H546.69a6.28,6.28,0,0,0,6.28-6.27v-.46a6.28,6.28,0,0,0-6.28-6.27H310.81A6.28,6.28,0,0,0,304.53,757.27ZM310.81,789H546.69a6.39,6.39,0,0,0,6.28-6.5h0a6.39,6.39,0,0,0-6.28-6.5H310.81a6.39,6.39,0,0,0-6.28,6.5h0A6.39,6.39,0,0,0,310.81,789Zm0,25H546.69a6.39,6.39,0,0,0,6.28-6.5h0a6.39,6.39,0,0,0-6.28-6.5H310.81a6.39,6.39,0,0,0-6.28,6.5h0A6.39,6.39,0,0,0,310.81,814Z"/><path class="cls-24" d="M546.69,838H291.75a6.39,6.39,0,0,1-6.28-6.5h0a6.39,6.39,0,0,1,6.28-6.5H546.69a6.39,6.39,0,0,1,6.28,6.5h0A6.39,6.39,0,0,1,546.69,838Z"/><path class="cls-25" d="M424.06,790.08c-12.17.1-25.1,3.22-37.13,7.26a156.74,156.74,0,0,0-21.34,9c-2.81,1.43-6.28,4.73-7,8.07-.34,1.48-1,11.59,2.63,11.59h67.18C433.3,826,442.14,789.92,424.06,790.08Z"/><path class="cls-26" d="M356.33,887.66c.23,8.31.35,14.2.18,15.18a22.65,22.65,0,0,0,10.29.83c.12-1.15,1.47-7,3.19-15.39"/><path class="cls-27" d="M369.11,892.51c4.31-20.43,12.63-62.76,6.76-79.23-4.72-13.27-16.79-5.71-20.39,1.5-1.58,3.17.38,53.81,1,76.89"/><path class="cls-28" d="M367.66,907.79a3.12,3.12,0,0,0,2.89-2.94c.18-3.49.63-8.34-1.11-8.25-1.45.07-3.31,1.3-4.45,2-.85.52-7.65-4.56-7.65-4.56-6.94.2-4.61,9.59-15.14,11.39a3.92,3.92,0,0,0-2.71,1.8,2.68,2.68,0,0,0,.43,3.52C353.12,915.59,361.28,908.29,367.66,907.79Z"/><path class="cls-26" d="M429.91,744l-19.92.38c.51,8.68,5,16,5.32,21.18-2.19,3.44-27.7,24.09-27.85,24.47-.78,2.11,2.88,5.25,4.82,6.32,11.82-3.62,36.8-22.07,37.14-23.39C430.18,769.92,431.21,755.92,429.91,744Z"/><path class="cls-14" d="M422.66,717c-.68-1-3-10.64-5.33-8.64-10.54,8.91-10.59,36.12-9.8,55.69l23.94-.55C430,744.36,427.28,723.6,422.66,717Z"/><path class="cls-26" d="M393,796.83c1-2.53-1.79-5.59-3.48-7.13a7.65,7.65,0,0,0-5.41-2.3,6.56,6.56,0,0,0-4.49,2.57,16.14,16.14,0,0,0-2.43,4.72,6.29,6.29,0,0,0-.51,3.68c.32,1.22,1.64,2.25,2.82,1.8Z"/><path class="cls-14" d="M429.88,757.37l.87,6.79a35.35,35.35,0,0,1,.15,7.62h0a8.85,8.85,0,0,1-4.23,6.91l-31,17.31,6-24.69a6,6,0,0,1,1.17-2.36l4.82-6Z"/><path class="cls-12" d="M418.41,784l-22.75,12.69-7.15-9.26,14.21-18.28,3.42,4.26a35.27,35.27,0,0,0,6.17,6Z"/><path class="cls-8" d="M413.76,786.56l-18.1,10.1-7.15-9.26,10.85-14h0a34.32,34.32,0,0,0,11.9,11.66Z"/><path class="cls-9" d="M407.36,790.13l-11.7,6.53-7.15-9.26,6.88-8.85.68,1.1a28.83,28.83,0,0,0,10.09,9.79Z"/><path class="cls-14" d="M474.58,797.49c-4.47-12.9-6.67-26-2.62-39s8.32-28.35,5.76-41.78c-2-10.23-15.66-22.69-37.8-22.69-15.54,0-25.52,12.87-28.21,16.86-3,4.44-1.46,14.93-.71,20.07.49,3.42.9,32,0,41"/><path class="cls-12" d="M411.54,752.81c-.37,19.17-1.43,41.61-1.52,42.7a4.37,4.37,0,0,0,2.36,4.45,8.23,8.23,0,0,0,3.37.45c15.53-.1,40.11-.2,55.63-.3a5.71,5.71,0,0,0,3-.56c1.86-1.16,1.22-3.68.55-5.6-4.48-12.9-6.69-26-2.63-39l-19.3.3c-6.71.11-13.43-.13-20.11-.69Z"/><path class="cls-8" d="M411.34,761.5c-.46,16.68-1.24,33.08-1.32,34a4.37,4.37,0,0,0,2.36,4.45,8.23,8.23,0,0,0,3.37.45c15.53-.1,40.11-.2,55.63-.3a5.71,5.71,0,0,0,3-.56c1.86-1.16,1.22-3.68.55-5.6-3.73-10.75-5.89-21.59-4.16-32.43l-19.15,1.24a162.73,162.73,0,0,1-21.41,0Z"/><path class="cls-9" d="M470.17,770.69c.18,4.24,1,9.34,1,9.34A92.71,92.71,0,0,0,474.91,794c.67,1.92,1.31,4.44-.55,5.6a5.71,5.71,0,0,1-3,.56c-15.52.1-40.1.2-55.63.3a8.23,8.23,0,0,1-3.37-.45,4.37,4.37,0,0,1-2.36-4.45c.05-.58.38-7.25.72-16.27l.31-8.55,8,.69a254.76,254.76,0,0,0,47.75-.34Z"/><path class="cls-25" d="M410.07,795.26c-3.64,13.15,15.58,24.66,48,24.66,4,0,8.28-.35,11.52-2.62,6.34-4.47,2.15-11.45-.23-17.11Z"/><path class="cls-29" d="M419,679.5c1,1.31,2.06.79,1.8-.84-.85-5.22-1.14-6,.62-11,1-2.75,1.36-3,0-3.75C417.14,661.49,410.46,668.66,419,679.5Z"/><path class="cls-30" d="M433.69,678.54c1.52-6.69,6.59-8.26,9.53-6.66C445.11,684.42,447,690,452,696.82c-6.11,3.92-16.54,3.19-18.79,0C433.07,695.82,432.91,682,433.69,678.54Z"/><path class="cls-26" d="M435.33,663.26c-5.73-4.64-14.71-1.68-16.55,6-1.69,7,4.51,19.68,7.73,21.9,5.65,3.9,14.21-3.77,14.79-7.72C442.15,677.62,440.14,667.16,435.33,663.26Z"/><path class="cls-26" d="M445.44,672.07A6.61,6.61,0,0,1,445,677c-2.2,4.3-6.25,0-6.22-3.25C438.84,669.89,444.06,667.68,445.44,672.07Z"/><path class="cls-29" d="M433.56,658.23c-.33,1.21,2.53,17.28,3,17.1,1.58-.66,3.59-5.17,6.56-5,1,.06,2.27.68,2.3-1.23.24-12.08.71-11.46-1.44-12.57C439.21,654.09,434.16,656.07,433.56,658.23Z"/><path class="cls-28" d="M448.77,658.69c-9.85-6.92-26-9.54-30.68-6.79-7,4.1-1.85,15.79.77,16.43,1.19.29,2.28-.65,3.3-1.34,4.82-3.28,9.13-.77,12.76-.1C441.34,668.07,457.17,664.58,448.77,658.69Z"/><path class="cls-26" d="M467.49,765.17a21,21,0,0,0,2.74-2.83c-.31-5.08-4.81-12.18-5.32-20.65l19.92-.37c1.29,11.62.27,25.27-.5,28.23,0,0-.33,3.45-1.33,4.45"/><path class="cls-8" d="M429.85,744.16l-11.46-.83a1.74,1.74,0,0,1-1.48-1.34l-5.24-24.83a.9.9,0,0,1,1-1.16l11.45.83a1.76,1.76,0,0,1,1.49,1.34L430.82,743A.9.9,0,0,1,429.85,744.16Z"/><path class="cls-9" d="M430.82,743l-5.23-24.83a1.76,1.76,0,0,0-1.49-1.34l-1.22-.09a1.77,1.77,0,0,1,1.49,1.34l5.23,24.83a.9.9,0,0,1-1,1.16l1.22.09A.9.9,0,0,0,430.82,743Z"/><path class="cls-26" d="M439.45,744.4c-1.73-1.12-5.87-3.7-7.08-2-.93,1.3,1.59,4.79,2.74,5.91,7.94,7.74,37,29.76,39.44,30.55,4.05,1.31,12.05-5.61,8.72-10.63S455.15,754.66,439.45,744.4Z"/><path class="cls-26" d="M436.15,739.11l-7-6.74c-.7-.11-1.11.87-.85,1.52a9.38,9.38,0,0,0,1.3,1.67c.41.57.53,1.51-.07,1.88s-1.35-.16-1.87-.65l-7.1-6.76c-2.35,1.05-3.4,4-2.92,6.54a12.71,12.71,0,0,0,4,6.45,30.27,30.27,0,0,0,8.89,6c1.89.84,4,1.47,6,.81C441.53,748.08,438.63,741.49,436.15,739.11Z"/><path class="cls-14" d="M487.09,745.67a39.22,39.22,0,0,0-.42-6.85c-1.78-11.69-5.79-23.25-10-27.29-1.59-1.54-11.25-6.16-12.6,5.06a160.35,160.35,0,0,0-.87,26.26s1.6,12,5.57,18.15h18Z"/><path class="cls-14" d="M474.46,782.07l-.14-.08a120.81,120.81,0,0,1-16.18-11.3L436.76,753l5-9,28,15,17-17,2,21c.47,6.49,0,12.63-3.06,17.59a6,6,0,0,1-4.11,2.77h0A10.54,10.54,0,0,1,474.46,782.07Z"/><path class="cls-12" d="M453.53,766.87,436.76,753l5-9,18.88,10.11-.06.08a48.65,48.65,0,0,0-7.05,12.68Z"/><path class="cls-8" d="M457,752.16,441.76,744l-5,9,13.07,10.81.09-.28A28.79,28.79,0,0,1,457,752.16Z"/><path class="cls-9" d="M445.61,760.32l-.56-.46L436.76,753l5-9,10.42,5.58-.18.16a26.8,26.8,0,0,0-6.39,10.58Z"/><path class="cls-25" d="M464.69,797c-12.28,0-23.95.07-37.48.07a157.25,157.25,0,0,0-21.55,9.08c-2.84,1.45-6.34,4.77-7.11,8.15-.34,1.49-1,11.7,2.65,11.7H469C474,826,482.58,797,464.69,797Z"/><path class="cls-26" d="M396.66,885c.28,9.69.44,16.75.25,17.84a22.68,22.68,0,0,0,10.3.83c.12-1.28,1.78-8.43,3.78-18.32"/><path class="cls-28" d="M411.47,905.23a3.12,3.12,0,0,0,1.7-3.75c-1-3.34-2.28-8.05-3.89-7.37-1.33.57-2.65,2.37-3.48,3.41-.62.79-8.75-1.64-8.75-1.64-6.45,2.57-1,10.58-10.3,15.9a3.91,3.91,0,0,0-1.92,2.63,2.67,2.67,0,0,0,1.61,3.15C400.51,917.56,405.65,907.9,411.47,905.23Z"/><path class="cls-27" d="M409.86,890.83c4.39-21,12.13-61.52,6.42-77.55-4.73-13.27-16.79-5.71-20.39,1.5-1.57,3.13.33,52.72.93,76.13"/><path class="cls-31" d="M541.09,812.11l-22.42-.78L515,796l15.42-3.82a1.54,1.54,0,0,1,1.81.9,5.49,5.49,0,0,1,.29.84,1,1,0,0,1-.72,1.29l-7.3,2.1s-3.59.85-4.94,2.57a.59.59,0,0,0-.08.6l1.11,2.47a10.66,10.66,0,0,0,.47,1l.71,1.28.13.23a8.09,8.09,0,0,0,1.53,1.82h0l12.83.77c.35,0,1.13.1,1.87.18a2.12,2.12,0,0,1,1.69,1.21Z"/><path class="cls-14" d="M523.26,809.29a1.82,1.82,0,0,1-.91-.3c-.94-.63-2.91-2.6-5.12-8.72h0s-.21-2.92,5.77-4.76l9.14-2.66s-7.5-16.41-28.38-12.34a19.15,19.15,0,0,0-1.92.57,26.14,26.14,0,0,0-16.52,31.65,33.91,33.91,0,0,0,5.7,11.52h0s33.59-2.94,50.2,1.83h0s3.07-7.73,1.83-15.1h0l-.82-.21a18.54,18.54,0,0,0-3.48-.54Z"/><path class="cls-31" d="M541.22,826.27l-.49.84a1.68,1.68,0,0,1-1.59.69l-14.08-1.16q-8.79-.74-17.61-.64l-15,.15a1.47,1.47,0,0,1-1.41-1.71l24-11.25Z"/><circle class="cls-31" cx="508.5" cy="799.5" r="3.5"/><circle class="cls-31" cx="512" cy="806" r="1"/><path class="cls-12" d="M541.6,810.61h0a11.81,11.81,0,0,0-2-.3l-16.64-1L484.4,806.9a25.92,25.92,0,0,0,.93,5.85A33.6,33.6,0,0,0,491,824.27h0s33.6-2.94,50.2,1.83h0s3.08-7.74,1.84-15.11Z"/><path class="cls-8" d="M484.65,809.57a25.77,25.77,0,0,0,.68,3.18A33.6,33.6,0,0,0,491,824.27h0s33.6-2.94,50.2,1.83h0a34.23,34.23,0,0,0,2.12-12.18Z"/><path class="cls-9" d="M485.33,812.75A33.78,33.78,0,0,0,491,824.27h0s33.6-2.94,50.2,1.83h0a35.05,35.05,0,0,0,2-8.77Z"/><path class="cls-32" d="M541,809.65l-.07-.38a9.9,9.9,0,0,0-.75-2.37c-1.71-3.7-7.06-15.4-7.23-15.69a2.37,2.37,0,0,0-.64-.57.84.84,0,0,0-.62-.13l-23.48,4.3a5.27,5.27,0,0,0-3,1.62c-1,1.05-1.64,2.68-.28,4.93a6.08,6.08,0,0,0,.55.78l3.95,4.93a7.42,7.42,0,0,0,5.31,2.78H515L540.36,811l.19,0a.46.46,0,0,0,.51-.5Z"/><text class="cls-33" transform="translate(72.82 113.15)">RI<tspan class="cls-34" x="42.52" y="0">T</tspan><tspan class="cls-35" x="66.17" y="0"> </tspan><tspan x="78.12" y="0">AANNEMEN</tspan></text><path class="cls-14" d="M121.42,367.45c6.23-3.18,13.14-1.86,19.67-.15,7.24,1.89,15.15,4.09,21.65-.72,5.13-3.8,8.23-11.17,12.27-16.95s10.58-10.15,15.56-6c5.72,4.79,5.58,17.6,11.36,22.25,4,3.19,9,1.1,13-2,5.84-4.61,11.38-11.05,18.5-7.74,6.11,2.85,9.4,10.62,9.73,19.14,0,.6,0,1.18,0,1.74H113.13A19,19,0,0,1,121.42,367.45Z"/><path class="cls-14" d="M439.55,361.43l50.68-29.2c14.15-8.15,31.84-15.65,43.52-1.79,7.25,8.62,12,25,21.5,23.87,13.36-1.66,22.15-43.77,37.39-15.89,5.23,9.57,3.54,20.47-.78,29.58l-161.14.48A29.49,29.49,0,0,1,439.55,361.43Z"/><path class="cls-14" d="M284.93,262.44l30.53-16c8.53-4.45,19.19-8.55,26.22-1,4.36,4.7,7.24,13.67,12.95,13,8-.91,13.34-23.91,22.52-8.69,3.15,5.23,2.13,11.19-.48,16.16l-97.06.29A17.73,17.73,0,0,1,284.93,262.44Z"/><path class="cls-10" d="M74.69,137.16h3V144h7.94v-6.86h3v17h-3v-7.54H77.72v7.54h-3Z"/><path class="cls-10" d="M91.85,148.34a6.2,6.2,0,0,1,.49-2.48A5.82,5.82,0,0,1,93.68,144a5.68,5.68,0,0,1,2-1.22,7,7,0,0,1,4.89,0,5.73,5.73,0,0,1,2,1.22,5.8,5.8,0,0,1,1.33,1.91,6,6,0,0,1,.49,2.48,6.16,6.16,0,0,1-.49,2.5,5.85,5.85,0,0,1-3.33,3.19,6.73,6.73,0,0,1-4.89,0,5.93,5.93,0,0,1-2-1.26,6,6,0,0,1-1.34-1.93A6.33,6.33,0,0,1,91.85,148.34Zm2.93,0a4.85,4.85,0,0,0,.2,1.35,3.81,3.81,0,0,0,.62,1.2,3.33,3.33,0,0,0,4,.86,3.24,3.24,0,0,0,1-.86,4,4,0,0,0,.61-1.2,4.85,4.85,0,0,0,.2-1.35,4.66,4.66,0,0,0-.2-1.33,3.83,3.83,0,0,0-.61-1.19,3.21,3.21,0,0,0-1-.85,3.61,3.61,0,0,0-3,0,3.07,3.07,0,0,0-1,.85A3.65,3.65,0,0,0,95,147,4.66,4.66,0,0,0,94.78,148.34Z"/><path class="cls-10" d="M117.92,154.15h-2.74V152.3h-.05a3.68,3.68,0,0,1-1.33,1.53,3.82,3.82,0,0,1-2.24.66,4.41,4.41,0,0,1-1.94-.4,3.89,3.89,0,0,1-1.32-1,4.36,4.36,0,0,1-.75-1.49,6.28,6.28,0,0,1-.24-1.73v-7.2h2.88V149a7.86,7.86,0,0,0,.07,1.06,2.93,2.93,0,0,0,.31,1,2.1,2.1,0,0,0,.66.73,2,2,0,0,0,1.12.28,2.57,2.57,0,0,0,1.19-.27,2.53,2.53,0,0,0,.84-.71,3.27,3.27,0,0,0,.49-1A4.09,4.09,0,0,0,115,149v-6.34h2.88Z"/><path class="cls-10" d="M130.78,142.63v12.22a11.06,11.06,0,0,1-.17,2,4.12,4.12,0,0,1-.63,1.61,3.33,3.33,0,0,1-1.28,1.09,4.64,4.64,0,0,1-2.1.41,5.81,5.81,0,0,1-.72,0l-.57-.09.24-2.45.41.07a2.62,2.62,0,0,0,.38,0,1.56,1.56,0,0,0,.82-.19,1.37,1.37,0,0,0,.48-.53,2.23,2.23,0,0,0,.21-.78,9.2,9.2,0,0,0,.05-.94V142.63Zm-3.29-3.91a1.62,1.62,0,0,1,.52-1.21,1.74,1.74,0,0,1,1.3-.52,1.91,1.91,0,0,1,1.34.49,1.61,1.61,0,0,1,.54,1.24,1.59,1.59,0,0,1-.54,1.23,1.92,1.92,0,0,1-1.34.5,1.78,1.78,0,0,1-1.3-.52A1.64,1.64,0,0,1,127.49,138.72Z"/><path class="cls-10" d="M145.52,148.53v.39a2.43,2.43,0,0,1,0,.38h-8.76a2.84,2.84,0,0,0,.32,1.14,2.89,2.89,0,0,0,.74.89,3.73,3.73,0,0,0,1,.59,3.44,3.44,0,0,0,1.2.21,3.86,3.86,0,0,0,1.82-.39,3.49,3.49,0,0,0,1.23-1.09l1.92,1.53a5.78,5.78,0,0,1-5,2.31,7.27,7.27,0,0,1-2.47-.42,6,6,0,0,1-2-1.19,5.29,5.29,0,0,1-1.29-1.89,6.48,6.48,0,0,1-.47-2.53,6.63,6.63,0,0,1,.47-2.53A5.71,5.71,0,0,1,135.6,144a5.63,5.63,0,0,1,1.94-1.25,6.34,6.34,0,0,1,2.41-.45,6.17,6.17,0,0,1,2.22.4,4.79,4.79,0,0,1,1.76,1.18,5.34,5.34,0,0,1,1.16,1.94A8,8,0,0,1,145.52,148.53Zm-2.89-1.29a3.72,3.72,0,0,0-.15-1.06,2.67,2.67,0,0,0-.49-.89,2.48,2.48,0,0,0-.86-.61,3,3,0,0,0-1.21-.23,3.23,3.23,0,0,0-2.19.78,2.84,2.84,0,0,0-1,2Z"/><path class="cls-10" d="M161.09,145.7a3.33,3.33,0,0,0-1.06-.87,2.92,2.92,0,0,0-1.46-.38,2.82,2.82,0,0,0-1.27.29,1,1,0,0,0-.58,1,1,1,0,0,0,.64,1,11.65,11.65,0,0,0,1.86.56,11.4,11.4,0,0,1,1.31.39,4.89,4.89,0,0,1,1.2.63,3.17,3.17,0,0,1,.87,1,2.78,2.78,0,0,1,.34,1.43,3.6,3.6,0,0,1-.4,1.78,3.27,3.27,0,0,1-1,1.19,4.28,4.28,0,0,1-1.54.66,7.73,7.73,0,0,1-1.81.21,7.17,7.17,0,0,1-2.62-.5,5.39,5.39,0,0,1-2.11-1.4l1.9-1.78a3.85,3.85,0,0,0,1.24,1,3.62,3.62,0,0,0,1.71.4,2.85,2.85,0,0,0,.64-.07,2,2,0,0,0,.59-.23,1.14,1.14,0,0,0,.45-.42,1.17,1.17,0,0,0,.17-.64,1.08,1.08,0,0,0-.66-1,11.52,11.52,0,0,0-2-.62,9.71,9.71,0,0,1-1.26-.37,4,4,0,0,1-1.1-.6,2.76,2.76,0,0,1-.76-.93,2.79,2.79,0,0,1-.29-1.36,3.34,3.34,0,0,1,.39-1.66,3.58,3.58,0,0,1,1.05-1.14,4.51,4.51,0,0,1,1.46-.66,6.79,6.79,0,0,1,1.68-.22,7.06,7.06,0,0,1,2.44.44,4,4,0,0,1,1.88,1.32Z"/><path class="cls-10" d="M179.43,142.29a4.4,4.4,0,0,1,1.93.4,3.89,3.89,0,0,1,1.32,1,4.36,4.36,0,0,1,.75,1.49,6.28,6.28,0,0,1,.24,1.73v7.2h-2.88v-6.38a7.86,7.86,0,0,0-.07-1.06,2.93,2.93,0,0,0-.31-1,2.1,2.1,0,0,0-.66-.73,2,2,0,0,0-1.12-.29,2.23,2.23,0,0,0-1.15.29,2.46,2.46,0,0,0-.79.75,3.16,3.16,0,0,0-.46,1,4.69,4.69,0,0,0-.14,1.11v6.29h-2.88v-7a2.92,2.92,0,0,0-.52-1.79,1.87,1.87,0,0,0-1.62-.71A2.24,2.24,0,0,0,170,145a2.32,2.32,0,0,0-.78.71,3.22,3.22,0,0,0-.46,1,4.48,4.48,0,0,0-.16,1.14v6.34h-2.88V142.63h2.74v1.85h.05a3.73,3.73,0,0,1,.51-.82,4.26,4.26,0,0,1,.77-.69,3.73,3.73,0,0,1,1-.5,4.28,4.28,0,0,1,1.27-.18,3.72,3.72,0,0,1,3.6,2.19,4.08,4.08,0,0,1,1.54-1.62A4.34,4.34,0,0,1,179.43,142.29Z"/><path class="cls-10" d="M194.43,152.69h-.08A3.19,3.19,0,0,1,193,154a4.82,4.82,0,0,1-2.18.49,6.19,6.19,0,0,1-1.45-.18,4.36,4.36,0,0,1-1.4-.6,3.49,3.49,0,0,1-1.05-1.11,3.16,3.16,0,0,1-.42-1.69,2.85,2.85,0,0,1,.73-2.06,4.79,4.79,0,0,1,1.88-1.18,10.83,10.83,0,0,1,2.56-.54c.94-.09,1.85-.13,2.75-.13v-.29a1.76,1.76,0,0,0-.78-1.59,3.25,3.25,0,0,0-1.86-.52,4.24,4.24,0,0,0-1.75.38,4.83,4.83,0,0,0-1.4.94l-1.48-1.75a6.38,6.38,0,0,1,2.26-1.37,7.89,7.89,0,0,1,2.61-.46,6.34,6.34,0,0,1,2.53.44,4.06,4.06,0,0,1,1.57,1.12,4.16,4.16,0,0,1,.81,1.56,6.9,6.9,0,0,1,.22,1.73v7h-2.68Zm-.05-3.8h-.65c-.46,0-.95,0-1.46.06a6.07,6.07,0,0,0-1.42.27,3.08,3.08,0,0,0-1.08.57,1.27,1.27,0,0,0-.43,1,1.24,1.24,0,0,0,.18.69,1.33,1.33,0,0,0,.47.44,2.12,2.12,0,0,0,.64.24,3.51,3.51,0,0,0,.72.07,2.72,2.72,0,0,0,3-2.95Z"/><path class="cls-10" d="M200.71,142.63h2.76v1.92h.05a4.15,4.15,0,0,1,1.35-1.63,3.3,3.3,0,0,1,2-.63l.36,0a.9.9,0,0,1,.34.06V145a4.75,4.75,0,0,0-.49-.1,2.75,2.75,0,0,0-.4,0,3,3,0,0,0-1.58.36,2.8,2.8,0,0,0-.94.86,3.24,3.24,0,0,0-.46,1,4,4,0,0,0-.12.84v6.17h-2.88Z"/><path class="cls-10" d="M207.75,144.93v-2.3h2v-3.34h2.83v3.34h2.88v2.3h-2.88v5.36a2.68,2.68,0,0,0,.28,1.27c.18.33.6.5,1.24.5a3.5,3.5,0,0,0,.62-.06,2.63,2.63,0,0,0,.6-.18l.1,2.26a5.6,5.6,0,0,1-.92.23,7.07,7.07,0,0,1-1,.08,4.74,4.74,0,0,1-1.88-.32,2.93,2.93,0,0,1-1.14-.89,3.25,3.25,0,0,1-.57-1.3,7.14,7.14,0,0,1-.16-1.57v-5.38Z"/><path class="cls-10" d="M220.56,142.63v1.61h.07a4.83,4.83,0,0,1,.57-.69,3.52,3.52,0,0,1,.85-.62,5.9,5.9,0,0,1,1.14-.46,5.23,5.23,0,0,1,1.43-.18,5.4,5.4,0,0,1,2.25.47,5.32,5.32,0,0,1,1.78,1.29A5.62,5.62,0,0,1,229.8,146a6.78,6.78,0,0,1,.41,2.37,6.93,6.93,0,0,1-.4,2.39,5.91,5.91,0,0,1-1.12,1.94,5.21,5.21,0,0,1-1.78,1.32,5.45,5.45,0,0,1-2.36.5,5,5,0,0,1-2.25-.51,3.76,3.76,0,0,1-1.57-1.37h0v7.3H217.8V142.63Zm6.72,5.71a4.66,4.66,0,0,0-.2-1.33,3.83,3.83,0,0,0-.61-1.19,3.21,3.21,0,0,0-1-.85,3.05,3.05,0,0,0-1.46-.32,3,3,0,0,0-1.42.33,3.58,3.58,0,0,0-1.06.87,3.74,3.74,0,0,0-.68,1.2,4.14,4.14,0,0,0-.22,1.34,4.08,4.08,0,0,0,.22,1.33,3.8,3.8,0,0,0,.68,1.19,3.37,3.37,0,0,0,1.06.85,3,3,0,0,0,1.42.32,3.06,3.06,0,0,0,1.46-.33,3.24,3.24,0,0,0,1-.86,4,4,0,0,0,.61-1.2A4.85,4.85,0,0,0,227.28,148.34Z"/><path class="cls-10" d="M239.64,142.29a4.37,4.37,0,0,1,1.93.4,3.7,3.7,0,0,1,1.32,1,4.21,4.21,0,0,1,.76,1.49,6.28,6.28,0,0,1,.24,1.73v7.2H241v-6.34a7.57,7.57,0,0,0-.07-1,3,3,0,0,0-.3-1,2,2,0,0,0-.65-.74,2,2,0,0,0-1.12-.28,2.53,2.53,0,0,0-1.2.26,2.61,2.61,0,0,0-.84.71,3.18,3.18,0,0,0-.5,1,4,4,0,0,0-.17,1.13v6.29h-2.88V136h2.88v8.23h.05a2.83,2.83,0,0,1,.49-.71,3.88,3.88,0,0,1,.76-.62,3.67,3.67,0,0,1,1-.45A4.19,4.19,0,0,1,239.64,142.29Z"/><path class="cls-10" d="M246.82,148.34a6,6,0,0,1,.49-2.48,5.69,5.69,0,0,1,3.32-3.13,7,7,0,0,1,4.9,0,5.69,5.69,0,0,1,3.32,3.13,6,6,0,0,1,.5,2.48,6.17,6.17,0,0,1-.5,2.5,5.84,5.84,0,0,1-1.33,1.93,5.93,5.93,0,0,1-2,1.26,6.75,6.75,0,0,1-4.9,0,5.87,5.87,0,0,1-3.32-3.19A6.16,6.16,0,0,1,246.82,148.34Zm2.93,0a4.51,4.51,0,0,0,.2,1.35,4,4,0,0,0,.61,1.2,3,3,0,0,0,2.52,1.19,3.15,3.15,0,0,0,1.49-.33,3.1,3.1,0,0,0,1-.86,3.78,3.78,0,0,0,.61-1.2,4.52,4.52,0,0,0,.21-1.35,4.35,4.35,0,0,0-.21-1.33,3.63,3.63,0,0,0-.61-1.19,3.07,3.07,0,0,0-1-.85,3.22,3.22,0,0,0-4,.85A3.83,3.83,0,0,0,250,147,4.34,4.34,0,0,0,249.75,148.34Z"/><path class="cls-10" d="M262.37,142.63h2.74v1.85h0a3.71,3.71,0,0,1,1.34-1.53,3.82,3.82,0,0,1,2.24-.66,4.37,4.37,0,0,1,1.93.4,3.7,3.7,0,0,1,1.32,1,4.21,4.21,0,0,1,.76,1.49A6.28,6.28,0,0,1,273,147v7.2H270.1v-6.38a9.92,9.92,0,0,0-.07-1.06,2.94,2.94,0,0,0-.32-1,2.1,2.1,0,0,0-.66-.73,1.94,1.94,0,0,0-1.11-.29,2.45,2.45,0,0,0-2,1,3.06,3.06,0,0,0-.49,1,4.09,4.09,0,0,0-.17,1.14v6.34h-2.88Z"/><path class="cls-10" d="M287.57,148.53v.39a2.43,2.43,0,0,1,0,.38h-8.75a2.69,2.69,0,0,0,.32,1.14,2.86,2.86,0,0,0,.73.89,3.89,3.89,0,0,0,1,.59,3.53,3.53,0,0,0,1.2.21,3.93,3.93,0,0,0,1.83-.39,3.55,3.55,0,0,0,1.22-1.09l1.92,1.53a5.76,5.76,0,0,1-4.94,2.31,7.33,7.33,0,0,1-2.48-.42,5.84,5.84,0,0,1-1.95-1.19,5.45,5.45,0,0,1-1.3-1.89,6.49,6.49,0,0,1-.46-2.53,6.63,6.63,0,0,1,.46-2.53,5.73,5.73,0,0,1,1.29-1.94,5.59,5.59,0,0,1,1.93-1.25,6.38,6.38,0,0,1,2.41-.45,6.17,6.17,0,0,1,2.22.4,4.83,4.83,0,0,1,1.77,1.18,5.48,5.48,0,0,1,1.16,1.94A8,8,0,0,1,287.57,148.53Zm-2.88-1.29a3.4,3.4,0,0,0-.16-1.06,2.36,2.36,0,0,0-.49-.89,2.44,2.44,0,0,0-.85-.61,3,3,0,0,0-1.21-.23,3.24,3.24,0,0,0-2.2.78,2.83,2.83,0,0,0-1,2Z"/><path class="cls-10" d="M308.54,154.15h-2.73v-1.73h-.05a4,4,0,0,1-1.67,1.54,5.1,5.1,0,0,1-2.29.53,5.42,5.42,0,0,1-2.36-.5,5.21,5.21,0,0,1-1.78-1.32,5.93,5.93,0,0,1-1.13-1.94,7.17,7.17,0,0,1-.39-2.39,6.78,6.78,0,0,1,.4-2.37,5.8,5.8,0,0,1,1.16-1.92,5.19,5.19,0,0,1,1.77-1.29,5.44,5.44,0,0,1,2.26-.47,4.93,4.93,0,0,1,2.51.63,4.2,4.2,0,0,1,.8.57,4.85,4.85,0,0,1,.55.6h.08V136h2.87Zm-9.48-5.81a4.52,4.52,0,0,0,.21,1.35,3.78,3.78,0,0,0,.61,1.2,3.2,3.2,0,0,0,1,.86,3.12,3.12,0,0,0,1.47.33,3,3,0,0,0,1.41-.32,3.41,3.41,0,0,0,1.07-.85,3.59,3.59,0,0,0,.67-1.19,3.84,3.84,0,0,0,.23-1.33,3.9,3.9,0,0,0-.23-1.34,3.54,3.54,0,0,0-.67-1.2,3.62,3.62,0,0,0-1.07-.87,3,3,0,0,0-1.41-.33,3.12,3.12,0,0,0-1.47.32,3.17,3.17,0,0,0-1,.85,3.63,3.63,0,0,0-.61,1.19A4.35,4.35,0,0,0,299.06,148.34Z"/><path class="cls-10" d="M311.93,138.72a1.65,1.65,0,0,1,.51-1.21,1.76,1.76,0,0,1,1.31-.52,1.89,1.89,0,0,1,1.33.49,1.61,1.61,0,0,1,.54,1.24,1.59,1.59,0,0,1-.54,1.23,1.89,1.89,0,0,1-1.33.5,1.8,1.8,0,0,1-1.31-.52A1.66,1.66,0,0,1,311.93,138.72Zm.41,3.91h2.88v11.52h-2.88Z"/><path class="cls-10" d="M326.83,145.82a2.45,2.45,0,0,0-1-.8,3,3,0,0,0-1.36-.33,2.87,2.87,0,0,0-1.4.33,2.91,2.91,0,0,0-1,.85,3.59,3.59,0,0,0-.59,1.19,4.63,4.63,0,0,0,0,2.66,3.83,3.83,0,0,0,.61,1.19,3.22,3.22,0,0,0,1,.85,3,3,0,0,0,1.43.32,3.6,3.6,0,0,0,1.35-.26,2.58,2.58,0,0,0,1.08-.77l1.8,1.83a4.85,4.85,0,0,1-1.84,1.19,7,7,0,0,1-2.41.42,7.13,7.13,0,0,1-2.41-.41,5.71,5.71,0,0,1-2-1.2,5.87,5.87,0,0,1-1.34-1.92,6.33,6.33,0,0,1-.49-2.57,6.19,6.19,0,0,1,.49-2.52,5.84,5.84,0,0,1,1.33-1.92,5.74,5.74,0,0,1,2-1.22,6.62,6.62,0,0,1,4.85,0,4.62,4.62,0,0,1,1.88,1.32Z"/><path class="cls-10" d="M337.32,142.29a4.37,4.37,0,0,1,1.93.4,3.7,3.7,0,0,1,1.32,1,4.21,4.21,0,0,1,.76,1.49,6.28,6.28,0,0,1,.24,1.73v7.2h-2.88v-6.34a9.56,9.56,0,0,0-.07-1,3,3,0,0,0-.3-1,2.1,2.1,0,0,0-.65-.74,2,2,0,0,0-1.12-.28,2.53,2.53,0,0,0-1.2.26,2.61,2.61,0,0,0-.84.71,3.18,3.18,0,0,0-.5,1,4,4,0,0,0-.17,1.13v6.29H331V136h2.88v8.23h.05a2.59,2.59,0,0,1,.49-.71,3.88,3.88,0,0,1,.76-.62,3.53,3.53,0,0,1,1-.45A4.19,4.19,0,0,1,337.32,142.29Z"/><path class="cls-10" d="M343.51,144.93v-2.3h2v-3.34h2.83v3.34h2.88v2.3h-2.88v5.36a2.57,2.57,0,0,0,.28,1.27c.18.33.59.5,1.23.5a3.7,3.7,0,0,0,.63-.06,2.63,2.63,0,0,0,.6-.18l.09,2.26a5.46,5.46,0,0,1-.91.23,7.21,7.21,0,0,1-1,.08,4.69,4.69,0,0,1-1.87-.32,2.93,2.93,0,0,1-1.14-.89,3.41,3.41,0,0,1-.58-1.3,7.82,7.82,0,0,1-.15-1.57v-5.38Z"/><path class="cls-10" d="M356.5,136v8.08h.07a4.85,4.85,0,0,1,.55-.6,4.2,4.2,0,0,1,.8-.57,5,5,0,0,1,2.51-.63,5.44,5.44,0,0,1,2.26.47,5.19,5.19,0,0,1,1.77,1.29,5.8,5.8,0,0,1,1.16,1.92,6.78,6.78,0,0,1,.4,2.37,7.17,7.17,0,0,1-.39,2.39,5.93,5.93,0,0,1-1.13,1.94,5.21,5.21,0,0,1-1.78,1.32,5.42,5.42,0,0,1-2.36.5,5.1,5.1,0,0,1-2.29-.53,4,4,0,0,1-1.67-1.54h0v1.73h-2.73V136Zm6.6,12.33a4.35,4.35,0,0,0-.21-1.33,3.63,3.63,0,0,0-.61-1.19,3.17,3.17,0,0,0-1-.85,3.12,3.12,0,0,0-1.47-.32,3,3,0,0,0-1.41.33,3.62,3.62,0,0,0-1.07.87,3.54,3.54,0,0,0-.67,1.2,4.15,4.15,0,0,0-.23,1.34,4.09,4.09,0,0,0,.23,1.33,3.59,3.59,0,0,0,.67,1.19,3.41,3.41,0,0,0,1.07.85,3,3,0,0,0,1.41.32,3.12,3.12,0,0,0,1.47-.33,3.2,3.2,0,0,0,1-.86,3.78,3.78,0,0,0,.61-1.2A4.52,4.52,0,0,0,363.1,148.34Z"/><path class="cls-10" d="M368.69,138.72a1.65,1.65,0,0,1,.51-1.21,1.76,1.76,0,0,1,1.31-.52,1.89,1.89,0,0,1,1.33.49,1.61,1.61,0,0,1,.54,1.24,1.59,1.59,0,0,1-.54,1.23,1.89,1.89,0,0,1-1.33.5,1.8,1.8,0,0,1-1.31-.52A1.66,1.66,0,0,1,368.69,138.72Zm.41,3.91H372v11.52H369.1Z"/><path class="cls-10" d="M378.65,142.63v12.22a11.06,11.06,0,0,1-.17,2,4,4,0,0,1-.64,1.61,3.23,3.23,0,0,1-1.27,1.09,4.64,4.64,0,0,1-2.1.41,5.81,5.81,0,0,1-.72,0l-.57-.09.24-2.45.4.07a2.82,2.82,0,0,0,.39,0,1.5,1.5,0,0,0,.81-.19,1.23,1.23,0,0,0,.48-.53,2,2,0,0,0,.22-.78,9.2,9.2,0,0,0,0-.94V142.63Zm-3.29-3.91a1.62,1.62,0,0,1,.52-1.21,1.74,1.74,0,0,1,1.3-.52,1.91,1.91,0,0,1,1.34.49,1.61,1.61,0,0,1,.54,1.24,1.59,1.59,0,0,1-.54,1.23,1.92,1.92,0,0,1-1.34.5,1.78,1.78,0,0,1-1.3-.52A1.64,1.64,0,0,1,375.36,138.72Z"/><path class="cls-10" d="M391.56,142.63v12.22a11.06,11.06,0,0,1-.17,2,4.12,4.12,0,0,1-.63,1.61,3.33,3.33,0,0,1-1.28,1.09,4.64,4.64,0,0,1-2.1.41,5.81,5.81,0,0,1-.72,0l-.57-.09.24-2.45.41.07a2.62,2.62,0,0,0,.38,0,1.53,1.53,0,0,0,.82-.19,1.37,1.37,0,0,0,.48-.53,2.23,2.23,0,0,0,.21-.78,9.2,9.2,0,0,0,.05-.94V142.63Zm-3.29-3.91a1.62,1.62,0,0,1,.52-1.21,1.75,1.75,0,0,1,1.31-.52,1.9,1.9,0,0,1,1.33.49,1.61,1.61,0,0,1,.54,1.24,1.59,1.59,0,0,1-.54,1.23,1.91,1.91,0,0,1-1.33.5,1.79,1.79,0,0,1-1.31-.52A1.64,1.64,0,0,1,388.27,138.72Z"/><path class="cls-10" d="M394.63,148.34a6,6,0,0,1,.49-2.48,5.82,5.82,0,0,1,1.34-1.91,5.68,5.68,0,0,1,2-1.22,7,7,0,0,1,4.89,0,5.75,5.75,0,0,1,3.33,3.13,6,6,0,0,1,.49,2.48,6.16,6.16,0,0,1-.49,2.5,5.87,5.87,0,0,1-1.34,1.93,5.93,5.93,0,0,1-2,1.26,6.73,6.73,0,0,1-4.89,0,5.93,5.93,0,0,1-2-1.26,6,6,0,0,1-1.34-1.93A6.16,6.16,0,0,1,394.63,148.34Zm2.93,0a4.85,4.85,0,0,0,.2,1.35,3.81,3.81,0,0,0,.62,1.2,3.33,3.33,0,0,0,4,.86,3.24,3.24,0,0,0,1-.86,4,4,0,0,0,.61-1.2,4.85,4.85,0,0,0,.2-1.35A4.66,4.66,0,0,0,404,147a3.83,3.83,0,0,0-.61-1.19,3.21,3.21,0,0,0-1-.85,3.61,3.61,0,0,0-3,0,3.07,3.07,0,0,0-1,.85,3.65,3.65,0,0,0-.62,1.19A4.66,4.66,0,0,0,397.56,148.34Z"/><path class="cls-10" d="M420.7,154.15H418V152.3h0a3.75,3.75,0,0,1-1.33,1.53,3.83,3.83,0,0,1-2.25.66,4.4,4.4,0,0,1-1.93-.4,3.89,3.89,0,0,1-1.32-1,4.36,4.36,0,0,1-.75-1.49,6.28,6.28,0,0,1-.24-1.73v-7.2H413V149a7.86,7.86,0,0,0,.07,1.06,2.93,2.93,0,0,0,.31,1,2.1,2.1,0,0,0,.66.73,2,2,0,0,0,1.12.28,2.5,2.5,0,0,0,1.18-.27,2.47,2.47,0,0,0,.85-.71,3.27,3.27,0,0,0,.49-1,4.08,4.08,0,0,0,.16-1.14v-6.34h2.89Z"/><path class="cls-10" d="M430.27,138.72a1.62,1.62,0,0,1,.52-1.21,1.74,1.74,0,0,1,1.3-.52,1.91,1.91,0,0,1,1.34.49,1.61,1.61,0,0,1,.54,1.24,1.59,1.59,0,0,1-.54,1.23,1.92,1.92,0,0,1-1.34.5,1.78,1.78,0,0,1-1.3-.52A1.64,1.64,0,0,1,430.27,138.72Zm.41,3.91h2.88v11.52h-2.88Z"/><path class="cls-10" d="M437.3,142.63H440v1.85h0a3.68,3.68,0,0,1,1.33-1.53,3.82,3.82,0,0,1,2.24-.66,4.37,4.37,0,0,1,1.93.4,3.7,3.7,0,0,1,1.32,1,4.21,4.21,0,0,1,.76,1.49,6.28,6.28,0,0,1,.24,1.73v7.2H445v-6.38a7.86,7.86,0,0,0-.07-1.06,2.93,2.93,0,0,0-.31-1A2.1,2.1,0,0,0,444,145a2,2,0,0,0-1.12-.29,2.53,2.53,0,0,0-1.2.28,2.49,2.49,0,0,0-.83.71,3.27,3.27,0,0,0-.49,1,4.09,4.09,0,0,0-.17,1.14v6.34H437.3Z"/><path class="cls-10" d="M469.46,154.15h-2.73v-1.73h-.05A4,4,0,0,1,465,154a5.13,5.13,0,0,1-2.29.53,5.49,5.49,0,0,1-2.37-.5,5.27,5.27,0,0,1-1.77-1.32,5.76,5.76,0,0,1-1.13-1.94,7.18,7.18,0,0,1-.4-2.39,6.78,6.78,0,0,1,.41-2.37,5.78,5.78,0,0,1,1.15-1.92,5.32,5.32,0,0,1,1.78-1.29,5.44,5.44,0,0,1,2.26-.47,5.08,5.08,0,0,1,1.41.18,4.76,4.76,0,0,1,1.09.45,4.29,4.29,0,0,1,.81.57,4.85,4.85,0,0,1,.55.6h.07V136h2.88ZM460,148.34a4.52,4.52,0,0,0,.21,1.35,3.78,3.78,0,0,0,.61,1.2,3,3,0,0,0,2.49,1.19,3,3,0,0,0,1.42-.32,3.41,3.41,0,0,0,1.07-.85,3.77,3.77,0,0,0,.67-1.19,4.09,4.09,0,0,0,.23-1.33,4.15,4.15,0,0,0-.23-1.34,3.71,3.71,0,0,0-.67-1.2,3.62,3.62,0,0,0-1.07-.87,3,3,0,0,0-1.42-.33,3,3,0,0,0-2.49,1.17,3.63,3.63,0,0,0-.61,1.19A4.35,4.35,0,0,0,460,148.34Z"/><path class="cls-10" d="M484.2,148.53v.39a2.43,2.43,0,0,1,0,.38h-8.76a2.9,2.9,0,0,0,1.06,2,3.73,3.73,0,0,0,1,.59,3.53,3.53,0,0,0,1.2.21,3.93,3.93,0,0,0,1.83-.39,3.55,3.55,0,0,0,1.22-1.09l1.92,1.53a5.76,5.76,0,0,1-4.94,2.31,7.33,7.33,0,0,1-2.48-.42,5.84,5.84,0,0,1-1.95-1.19A5.32,5.32,0,0,1,473,151a6.48,6.48,0,0,1-.47-2.53,6.63,6.63,0,0,1,.47-2.53,5.59,5.59,0,0,1,1.29-1.94,5.5,5.5,0,0,1,1.93-1.25,6.38,6.38,0,0,1,2.41-.45,6.17,6.17,0,0,1,2.22.4,4.71,4.71,0,0,1,1.76,1.18,5.36,5.36,0,0,1,1.17,1.94A8,8,0,0,1,484.2,148.53Zm-2.88-1.29a3.4,3.4,0,0,0-.16-1.06,2.5,2.5,0,0,0-.49-.89,2.44,2.44,0,0,0-.85-.61,3,3,0,0,0-1.21-.23,3.24,3.24,0,0,0-2.2.78,2.88,2.88,0,0,0-1,2Z"/><path class="cls-10" d="M496.39,136v8.08h.07a5.79,5.79,0,0,1,.55-.6,4.64,4.64,0,0,1,.81-.57,4.76,4.76,0,0,1,1.09-.45,5.15,5.15,0,0,1,1.42-.18,5.43,5.43,0,0,1,2.25.47,5.32,5.32,0,0,1,1.78,1.29,5.78,5.78,0,0,1,1.15,1.92,6.78,6.78,0,0,1,.41,2.37,6.93,6.93,0,0,1-.4,2.39,5.76,5.76,0,0,1-1.13,1.94,5.17,5.17,0,0,1-1.77,1.32,5.49,5.49,0,0,1-2.37.5A5.13,5.13,0,0,1,498,154a4,4,0,0,1-1.67-1.54h0v1.73h-2.74V136Zm6.6,12.33a4.66,4.66,0,0,0-.2-1.33,3.65,3.65,0,0,0-.62-1.19,3,3,0,0,0-2.49-1.17,3,3,0,0,0-1.42.33,3.76,3.76,0,0,0-1.07.87,3.71,3.71,0,0,0-.67,1.2,4.15,4.15,0,0,0-.23,1.34,4.09,4.09,0,0,0,.23,1.33,3.77,3.77,0,0,0,.67,1.19,3.53,3.53,0,0,0,1.07.85,3,3,0,0,0,1.42.32,3.06,3.06,0,0,0,1.46-.33,3.1,3.1,0,0,0,1-.86,3.81,3.81,0,0,0,.62-1.2A4.85,4.85,0,0,0,503,148.34Z"/><path class="cls-10" d="M519.45,154.15h-2.73V152.3h-.05a3.75,3.75,0,0,1-1.33,1.53,3.83,3.83,0,0,1-2.25.66,4.4,4.4,0,0,1-1.93-.4,3.79,3.79,0,0,1-1.32-1,4.36,4.36,0,0,1-.75-1.49,6.28,6.28,0,0,1-.24-1.73v-7.2h2.88V149a7.86,7.86,0,0,0,.07,1.06,2.93,2.93,0,0,0,.31,1,2.1,2.1,0,0,0,.66.73,2,2,0,0,0,1.12.28,2.5,2.5,0,0,0,1.18-.27,2.34,2.34,0,0,0,.84-.71,3.29,3.29,0,0,0,.5-1,4.08,4.08,0,0,0,.16-1.14v-6.34h2.88Z"/><path class="cls-10" d="M533.66,154.15h-2.74V152.3h0a3.71,3.71,0,0,1-1.34,1.53,3.8,3.8,0,0,1-2.24.66,4.37,4.37,0,0,1-1.93-.4,3.7,3.7,0,0,1-1.32-1,4.21,4.21,0,0,1-.76-1.49,6.28,6.28,0,0,1-.24-1.73v-7.2h2.88V149a9.92,9.92,0,0,0,.07,1.06,2.94,2.94,0,0,0,.32,1,2.1,2.1,0,0,0,.66.73,1.94,1.94,0,0,0,1.11.28,2.45,2.45,0,0,0,2-1,3.06,3.06,0,0,0,.49-1,4.09,4.09,0,0,0,.17-1.14v-6.34h2.88Z"/><path class="cls-10" d="M537.36,142.63h2.76v1.92h0a4.15,4.15,0,0,1,1.35-1.63,3.32,3.32,0,0,1,2-.63l.36,0a.9.9,0,0,1,.34.06V145a4.75,4.75,0,0,0-.49-.1,2.75,2.75,0,0,0-.4,0,3.05,3.05,0,0,0-1.58.36,2.9,2.9,0,0,0-.94.86,3.21,3.21,0,0,0-.45,1,4,4,0,0,0-.12.84v6.17h-2.88Z"/><path class="cls-10" d="M544.39,144.93v-2.3h2v-3.34h2.84v3.34h2.88v2.3h-2.88v5.36a2.68,2.68,0,0,0,.27,1.27c.19.33.6.5,1.24.5a3.5,3.5,0,0,0,.62-.06,2.36,2.36,0,0,0,.6-.18l.1,2.26a5.73,5.73,0,0,1-.91.23,7.33,7.33,0,0,1-1,.08,4.69,4.69,0,0,1-1.87-.32,2.93,2.93,0,0,1-1.14-.89,3.27,3.27,0,0,1-.58-1.3,7.8,7.8,0,0,1-.16-1.57v-5.38Z"/><path class="cls-10" d="M560,148.34a6.2,6.2,0,0,1,.49-2.48,5.82,5.82,0,0,1,1.34-1.91,5.68,5.68,0,0,1,2-1.22,7,7,0,0,1,4.89,0,5.73,5.73,0,0,1,2,1.22,5.8,5.8,0,0,1,1.33,1.91,6,6,0,0,1,.49,2.48,6.16,6.16,0,0,1-.49,2.5,5.85,5.85,0,0,1-3.33,3.19,6.73,6.73,0,0,1-4.89,0,5.93,5.93,0,0,1-2-1.26,6,6,0,0,1-1.34-1.93A6.33,6.33,0,0,1,560,148.34Zm2.93,0a4.85,4.85,0,0,0,.2,1.35,3.81,3.81,0,0,0,.62,1.2,3.33,3.33,0,0,0,4,.86,3.24,3.24,0,0,0,1-.86,4,4,0,0,0,.61-1.2,4.85,4.85,0,0,0,.2-1.35,4.66,4.66,0,0,0-.2-1.33,3.83,3.83,0,0,0-.61-1.19,3.21,3.21,0,0,0-1-.85,3.61,3.61,0,0,0-3,0,3.07,3.07,0,0,0-1,.85,3.65,3.65,0,0,0-.62,1.19A4.66,4.66,0,0,0,562.94,148.34Z"/><path class="cls-10" d="M578.32,142.63v1.61h.08a4.14,4.14,0,0,1,.56-.69,3.73,3.73,0,0,1,.85-.62,5.9,5.9,0,0,1,1.14-.46,5.28,5.28,0,0,1,1.43-.18,5.44,5.44,0,0,1,2.26.47,5.29,5.29,0,0,1,1.77,1.29,5.62,5.62,0,0,1,1.15,1.92,6.56,6.56,0,0,1,.41,2.37,7.17,7.17,0,0,1-.39,2.39,5.93,5.93,0,0,1-1.13,1.94,5.21,5.21,0,0,1-1.78,1.32,5.42,5.42,0,0,1-2.36.5,5,5,0,0,1-2.25-.51,3.76,3.76,0,0,1-1.57-1.37h0v7.3h-2.88V142.63Zm6.72,5.71a4.34,4.34,0,0,0-.2-1.33,3.83,3.83,0,0,0-.61-1.19,3.17,3.17,0,0,0-1-.85,3.12,3.12,0,0,0-1.47-.32,2.94,2.94,0,0,0-1.41.33,3.5,3.5,0,0,0-1.07.87,3.54,3.54,0,0,0-.67,1.2,3.9,3.9,0,0,0-.23,1.34,3.84,3.84,0,0,0,.23,1.33,3.59,3.59,0,0,0,.67,1.19,3.3,3.3,0,0,0,1.07.85,2.93,2.93,0,0,0,1.41.32,3.12,3.12,0,0,0,1.47-.33,3.2,3.2,0,0,0,1-.86,4,4,0,0,0,.61-1.2A4.51,4.51,0,0,0,585,148.34Z"/><path class="cls-10" d="M608.23,148.53v.39a2.43,2.43,0,0,1,0,.38h-8.76a2.9,2.9,0,0,0,1.06,2,3.73,3.73,0,0,0,1,.59,3.53,3.53,0,0,0,1.2.21,3.93,3.93,0,0,0,1.83-.39,3.55,3.55,0,0,0,1.22-1.09l1.92,1.53a5.76,5.76,0,0,1-4.94,2.31,7.33,7.33,0,0,1-2.48-.42,5.84,5.84,0,0,1-1.95-1.19A5.32,5.32,0,0,1,597,151a6.48,6.48,0,0,1-.47-2.53,6.63,6.63,0,0,1,.47-2.53,5.59,5.59,0,0,1,1.29-1.94,5.5,5.5,0,0,1,1.93-1.25,6.38,6.38,0,0,1,2.41-.45,6.17,6.17,0,0,1,2.22.4,4.71,4.71,0,0,1,1.76,1.18,5.36,5.36,0,0,1,1.17,1.94A8,8,0,0,1,608.23,148.53Zm-2.88-1.29a3.4,3.4,0,0,0-.16-1.06,2.5,2.5,0,0,0-.49-.89,2.44,2.44,0,0,0-.85-.61,3,3,0,0,0-1.21-.23,3.24,3.24,0,0,0-2.2.78,2.88,2.88,0,0,0-1,2Z"/><path class="cls-10" d="M611.3,136h2.88v18.14H611.3Z"/><path class="cls-10" d="M618,136h2.88v11.47h.07l4.37-4.85H629l-5,5.21,5.3,6.31h-3.82l-4.56-5.9h-.07v5.9H618Z"/><path class="cls-10" d="M88.3,171.09a4.37,4.37,0,0,1,1.93.4,3.7,3.7,0,0,1,1.32,1,4.13,4.13,0,0,1,.76,1.49,6.28,6.28,0,0,1,.24,1.73V183H89.67v-6.38a9.92,9.92,0,0,0-.07-1.06,2.94,2.94,0,0,0-.32-1,2.1,2.1,0,0,0-.66-.73,1.94,1.94,0,0,0-1.11-.29,2.21,2.21,0,0,0-1.15.29,2.49,2.49,0,0,0-.8.75,3.18,3.18,0,0,0-.45,1,4.37,4.37,0,0,0-.15,1.12V183H82.08v-7a3,3,0,0,0-.51-1.79,1.89,1.89,0,0,0-1.62-.71,2.28,2.28,0,0,0-1.13.28,2.32,2.32,0,0,0-.78.71,3.46,3.46,0,0,0-.46,1,4.46,4.46,0,0,0-.15,1.14V183H74.55V171.43h2.73v1.85h0a3.43,3.43,0,0,1,.52-.82,3.68,3.68,0,0,1,.77-.69,3.47,3.47,0,0,1,1-.5,4.19,4.19,0,0,1,1.27-.18,3.9,3.9,0,0,1,2.23.6,4,4,0,0,1,1.37,1.59A4,4,0,0,1,86,171.66,4.36,4.36,0,0,1,88.3,171.09Z"/><path class="cls-10" d="M95.48,177.14a6,6,0,0,1,.49-2.48,5.8,5.8,0,0,1,1.33-1.91,5.68,5.68,0,0,1,2-1.22,7,7,0,0,1,4.9,0,5.68,5.68,0,0,1,2,1.22,5.8,5.8,0,0,1,1.33,1.91,6,6,0,0,1,.49,2.48,6.16,6.16,0,0,1-.49,2.5,6,6,0,0,1-1.33,1.93,5.93,5.93,0,0,1-2,1.26,6.75,6.75,0,0,1-4.9,0,5.93,5.93,0,0,1-2-1.26A6,6,0,0,1,96,179.64,6.16,6.16,0,0,1,95.48,177.14Zm2.92,0a4.52,4.52,0,0,0,.21,1.35,3.78,3.78,0,0,0,.61,1.2,3.2,3.2,0,0,0,1,.86,3.53,3.53,0,0,0,3,0,3.2,3.2,0,0,0,1-.86,3.78,3.78,0,0,0,.61-1.2,4.52,4.52,0,0,0,.21-1.35,4.35,4.35,0,0,0-.21-1.33,3.63,3.63,0,0,0-.61-1.19,3.22,3.22,0,0,0-5,0,3.63,3.63,0,0,0-.61,1.19A4.35,4.35,0,0,0,98.4,177.14Z"/><path class="cls-10" d="M124.78,171.09a4.37,4.37,0,0,1,1.93.4,3.7,3.7,0,0,1,1.32,1,4.13,4.13,0,0,1,.76,1.49,6.28,6.28,0,0,1,.24,1.73V183h-2.88v-6.38a9.92,9.92,0,0,0-.07-1.06,2.94,2.94,0,0,0-.32-1,2.1,2.1,0,0,0-.66-.73,1.94,1.94,0,0,0-1.11-.29,2.21,2.21,0,0,0-1.15.29,2.49,2.49,0,0,0-.8.75,3,3,0,0,0-.45,1,4.37,4.37,0,0,0-.15,1.12V183h-2.88v-7a3,3,0,0,0-.51-1.79,1.89,1.89,0,0,0-1.62-.71,2.28,2.28,0,0,0-1.13.28,2.32,2.32,0,0,0-.78.71,3.46,3.46,0,0,0-.46,1,4.46,4.46,0,0,0-.15,1.14V183H111V171.43h2.73v1.85h0a3.43,3.43,0,0,1,.52-.82,3.68,3.68,0,0,1,.77-.69,3.47,3.47,0,0,1,1-.5,4.19,4.19,0,0,1,1.27-.18,3.9,3.9,0,0,1,2.23.6,4,4,0,0,1,1.37,1.59,4,4,0,0,1,1.53-1.62A4.36,4.36,0,0,1,124.78,171.09Z"/><path class="cls-10" d="M143.62,177.33v.39c0,.13,0,.25,0,.38h-8.76a2.85,2.85,0,0,0,1,2,3.89,3.89,0,0,0,1,.59,3.53,3.53,0,0,0,1.2.21,3.93,3.93,0,0,0,1.83-.39,3.55,3.55,0,0,0,1.22-1.09l1.92,1.53a5.75,5.75,0,0,1-4.94,2.31,7.23,7.23,0,0,1-2.47-.42,5.79,5.79,0,0,1-2-1.19,5.45,5.45,0,0,1-1.3-1.89,6.49,6.49,0,0,1-.46-2.53,6.63,6.63,0,0,1,.46-2.53,5.73,5.73,0,0,1,1.29-1.94,5.59,5.59,0,0,1,1.93-1.25,6.38,6.38,0,0,1,2.41-.45,6.17,6.17,0,0,1,2.22.4,4.83,4.83,0,0,1,1.77,1.18,5.48,5.48,0,0,1,1.16,1.94A8,8,0,0,1,143.62,177.33ZM140.74,176a3.4,3.4,0,0,0-.16-1.06,2.36,2.36,0,0,0-.49-.89,2.44,2.44,0,0,0-.85-.61,3,3,0,0,0-1.21-.23,3.24,3.24,0,0,0-2.2.78,2.83,2.83,0,0,0-1,2Z"/><path class="cls-10" d="M146.64,171.43h2.74v1.85h.05a3.68,3.68,0,0,1,1.33-1.53,3.82,3.82,0,0,1,2.24-.66,4.44,4.44,0,0,1,1.94.4,3.76,3.76,0,0,1,1.31,1A4.13,4.13,0,0,1,157,174a6.28,6.28,0,0,1,.24,1.73V183h-2.88v-6.38a7.86,7.86,0,0,0-.07-1.06,2.93,2.93,0,0,0-.31-1,2.1,2.1,0,0,0-.66-.73,2,2,0,0,0-1.12-.29,2.53,2.53,0,0,0-1.2.28,2.49,2.49,0,0,0-.83.71,3.27,3.27,0,0,0-.49,1,4.09,4.09,0,0,0-.17,1.14V183h-2.88Z"/><path class="cls-10" d="M159.19,173.73v-2.3h2v-3.34H164v3.34h2.88v2.3H164v5.35a2.58,2.58,0,0,0,.28,1.28c.18.33.6.5,1.24.5a3.59,3.59,0,0,0,.62-.06,2.63,2.63,0,0,0,.6-.18l.1,2.26a5.87,5.87,0,0,1-.92.23,7.19,7.19,0,0,1-1,.08,4.74,4.74,0,0,1-1.88-.32,2.93,2.93,0,0,1-1.14-.89,3.25,3.25,0,0,1-.57-1.3,7.14,7.14,0,0,1-.16-1.57v-5.38Z"/><path class="cls-10" d="M175.54,164.81h2.88v11.47h.07l4.37-4.85h3.69l-5,5.21,5.31,6.31h-3.82L178.49,177h-.07V183h-2.88Z"/><path class="cls-10" d="M195.77,181.49h-.07a3.24,3.24,0,0,1-1.39,1.26,4.83,4.83,0,0,1-2.19.49,6.25,6.25,0,0,1-1.45-.18,4.31,4.31,0,0,1-1.39-.6,3.42,3.42,0,0,1-1.06-1.11,3.16,3.16,0,0,1-.42-1.69,2.89,2.89,0,0,1,.73-2.06,4.65,4.65,0,0,1,1.89-1.18,10.85,10.85,0,0,1,2.55-.54c.94-.09,1.86-.13,2.75-.13v-.29a1.76,1.76,0,0,0-.78-1.59,3.25,3.25,0,0,0-1.86-.52,4.24,4.24,0,0,0-1.75.38,4.78,4.78,0,0,0-1.39.94l-1.49-1.75a6.42,6.42,0,0,1,2.27-1.37,7.79,7.79,0,0,1,2.6-.46,6.31,6.31,0,0,1,2.53.44,4.1,4.1,0,0,1,1.58,1.12,4.14,4.14,0,0,1,.8,1.56,6.92,6.92,0,0,1,.23,1.73v7h-2.69Zm-.05-3.8h-.65c-.46,0-.95,0-1.46.06a6.27,6.27,0,0,0-1.42.27,3.08,3.08,0,0,0-1.08.57,1.31,1.31,0,0,0-.43,1,1.24,1.24,0,0,0,.18.69,1.41,1.41,0,0,0,.47.44,2.19,2.19,0,0,0,.65.24,3.51,3.51,0,0,0,.72.07,3,3,0,0,0,2.25-.79,3,3,0,0,0,.77-2.16Z"/><path class="cls-10" d="M202.06,171.43h2.73v1.85h.05a3.75,3.75,0,0,1,1.33-1.53,3.85,3.85,0,0,1,2.25-.66,4.4,4.4,0,0,1,1.93.4,3.7,3.7,0,0,1,1.32,1,4.29,4.29,0,0,1,.76,1.49,6.28,6.28,0,0,1,.24,1.73V183h-2.88v-6.38a7.92,7.92,0,0,0-.08-1.06,2.72,2.72,0,0,0-.31-1,2.1,2.1,0,0,0-.66-.73,1.94,1.94,0,0,0-1.11-.29,2.47,2.47,0,0,0-1.2.28,2.4,2.4,0,0,0-.83.71,3.06,3.06,0,0,0-.49,1,3.75,3.75,0,0,0-.17,1.14V183h-2.88Z"/><path class="cls-10" d="M225.43,171.43v12.22a11.08,11.08,0,0,1-.16,1.95,4.29,4.29,0,0,1-.64,1.61,3.3,3.3,0,0,1-1.27,1.09,4.7,4.7,0,0,1-2.1.41,5.81,5.81,0,0,1-.72-.05l-.58-.09.24-2.45.41.07a2.62,2.62,0,0,0,.38,0,1.53,1.53,0,0,0,.82-.19,1.23,1.23,0,0,0,.48-.53,2.47,2.47,0,0,0,.22-.78,9.31,9.31,0,0,0,0-.94V171.43Zm-3.28-3.91a1.65,1.65,0,0,1,.51-1.21,1.76,1.76,0,0,1,1.31-.52,1.89,1.89,0,0,1,1.33.49,1.61,1.61,0,0,1,.54,1.24,1.59,1.59,0,0,1-.54,1.23,1.89,1.89,0,0,1-1.33.5,1.8,1.8,0,0,1-1.31-.52A1.66,1.66,0,0,1,222.15,167.52Z"/><path class="cls-10" d="M240.17,177.33v.39c0,.13,0,.25,0,.38h-8.76a2.85,2.85,0,0,0,1.05,2,3.89,3.89,0,0,0,1,.59,3.53,3.53,0,0,0,1.2.21,3.93,3.93,0,0,0,1.83-.39,3.55,3.55,0,0,0,1.22-1.09l1.92,1.53a5.75,5.75,0,0,1-4.94,2.31,7.23,7.23,0,0,1-2.47-.42,5.79,5.79,0,0,1-2-1.19,5.45,5.45,0,0,1-1.3-1.89,6.49,6.49,0,0,1-.46-2.53,6.63,6.63,0,0,1,.46-2.53,5.73,5.73,0,0,1,1.29-1.94,5.59,5.59,0,0,1,1.93-1.25,6.38,6.38,0,0,1,2.41-.45,6.17,6.17,0,0,1,2.22.4,4.83,4.83,0,0,1,1.77,1.18,5.48,5.48,0,0,1,1.16,1.94A8,8,0,0,1,240.17,177.33ZM237.29,176a3.4,3.4,0,0,0-.16-1.06,2.36,2.36,0,0,0-.49-.89,2.44,2.44,0,0,0-.85-.61,3,3,0,0,0-1.21-.23,3.24,3.24,0,0,0-2.2.78,2.83,2.83,0,0,0-1,2Z"/><path class="cls-10" d="M260.43,177.33v.39a2.43,2.43,0,0,1,0,.38h-8.76a2.9,2.9,0,0,0,1.06,2,3.73,3.73,0,0,0,1,.59,3.44,3.44,0,0,0,1.2.21,3.86,3.86,0,0,0,1.82-.39,3.49,3.49,0,0,0,1.23-1.09L259.9,181a5.78,5.78,0,0,1-4.95,2.31,7.27,7.27,0,0,1-2.47-.42,5.84,5.84,0,0,1-1.95-1.19,5.19,5.19,0,0,1-1.3-1.89,6.48,6.48,0,0,1-.47-2.53,6.63,6.63,0,0,1,.47-2.53,5.71,5.71,0,0,1,1.28-1.94,5.63,5.63,0,0,1,1.94-1.25,6.34,6.34,0,0,1,2.41-.45,6.17,6.17,0,0,1,2.22.4,4.71,4.71,0,0,1,1.76,1.18,5.36,5.36,0,0,1,1.17,1.94A8,8,0,0,1,260.43,177.33ZM257.55,176a3.73,3.73,0,0,0-.16-1.06,2.5,2.5,0,0,0-.49-.89,2.54,2.54,0,0,0-.85-.61,3.05,3.05,0,0,0-1.22-.23,3.23,3.23,0,0,0-2.19.78,2.88,2.88,0,0,0-1,2Z"/><path class="cls-10" d="M274.44,177.33v.39c0,.13,0,.25,0,.38h-8.76a2.84,2.84,0,0,0,.32,1.14,3,3,0,0,0,.73.89,3.79,3.79,0,0,0,1,.59,3.44,3.44,0,0,0,1.2.21,3.89,3.89,0,0,0,1.82-.39,3.46,3.46,0,0,0,1.22-1.09l1.92,1.53a5.75,5.75,0,0,1-4.94,2.31,7.23,7.23,0,0,1-2.47-.42,5.89,5.89,0,0,1-2-1.19,5.29,5.29,0,0,1-1.29-1.89,6.31,6.31,0,0,1-.47-2.53,6.44,6.44,0,0,1,.47-2.53,5.71,5.71,0,0,1,1.28-1.94,5.59,5.59,0,0,1,1.93-1.25,6.42,6.42,0,0,1,2.41-.45,6.17,6.17,0,0,1,2.22.4,4.83,4.83,0,0,1,1.77,1.18,5.48,5.48,0,0,1,1.16,1.94A8,8,0,0,1,274.44,177.33ZM271.56,176a3.72,3.72,0,0,0-.15-1.06,2.53,2.53,0,0,0-.5-.89,2.35,2.35,0,0,0-.85-.61,3,3,0,0,0-1.21-.23,3.25,3.25,0,0,0-2.2.78,2.83,2.83,0,0,0-1,2Z"/><path class="cls-10" d="M277.47,171.43h2.73v1.85h.05a3.68,3.68,0,0,1,1.33-1.53,3.83,3.83,0,0,1,2.25-.66,4.4,4.4,0,0,1,1.93.4,3.89,3.89,0,0,1,1.32,1,4.27,4.27,0,0,1,.75,1.49,6.28,6.28,0,0,1,.24,1.73V183h-2.88v-6.38a7.86,7.86,0,0,0-.07-1.06,2.93,2.93,0,0,0-.31-1,2.1,2.1,0,0,0-.66-.73,2,2,0,0,0-1.12-.29,2.53,2.53,0,0,0-1.2.28,2.46,2.46,0,0,0-.82.71,3.08,3.08,0,0,0-.5,1,4.08,4.08,0,0,0-.16,1.14V183h-2.88Z"/><path class="cls-10" d="M311.67,171.09a4.4,4.4,0,0,1,1.93.4,3.89,3.89,0,0,1,1.32,1,4.27,4.27,0,0,1,.75,1.49,6.28,6.28,0,0,1,.24,1.73V183H313v-6.38a7.86,7.86,0,0,0-.07-1.06,2.93,2.93,0,0,0-.31-1,2.1,2.1,0,0,0-.66-.73,2,2,0,0,0-1.12-.29,2.21,2.21,0,0,0-1.15.29,2.46,2.46,0,0,0-.79.75,3.2,3.2,0,0,0-.46,1,4.84,4.84,0,0,0-.14,1.12V183h-2.88v-7a2.92,2.92,0,0,0-.52-1.79,1.87,1.87,0,0,0-1.62-.71,2.21,2.21,0,0,0-1.12.28,2.14,2.14,0,0,0-.78.71,3,3,0,0,0-.46,1,4.08,4.08,0,0,0-.16,1.14V183h-2.88V171.43h2.74v1.85h.05a3.39,3.39,0,0,1,.51-.82,4,4,0,0,1,.77-.69,3.73,3.73,0,0,1,1-.5,4.28,4.28,0,0,1,1.27-.18,3.75,3.75,0,0,1,3.6,2.19,4.08,4.08,0,0,1,1.54-1.62A4.34,4.34,0,0,1,311.67,171.09Z"/><path class="cls-10" d="M330.5,177.33v.39a2.42,2.42,0,0,1,0,.38h-8.76a2.84,2.84,0,0,0,.32,1.14,2.89,2.89,0,0,0,.74.89,3.59,3.59,0,0,0,1,.59,3.44,3.44,0,0,0,1.2.21,3.86,3.86,0,0,0,1.82-.39,3.49,3.49,0,0,0,1.23-1.09L330,181a5.78,5.78,0,0,1-5,2.31,7.27,7.27,0,0,1-2.47-.42,6,6,0,0,1-2-1.19,5.29,5.29,0,0,1-1.29-1.89,6.48,6.48,0,0,1-.47-2.53,6.63,6.63,0,0,1,.47-2.53,5.64,5.64,0,0,1,3.21-3.19,6.43,6.43,0,0,1,2.42-.45,6.17,6.17,0,0,1,2.22.4,4.79,4.79,0,0,1,1.76,1.18,5.34,5.34,0,0,1,1.16,1.94A8,8,0,0,1,330.5,177.33ZM327.62,176a3.72,3.72,0,0,0-.15-1.06,2.67,2.67,0,0,0-.49-.89,2.48,2.48,0,0,0-.86-.61,3,3,0,0,0-1.21-.23,3.23,3.23,0,0,0-2.19.78,2.84,2.84,0,0,0-1,2Z"/><path class="cls-10" d="M333.58,164.81h2.88V183h-2.88Z"/><path class="cls-10" d="M351.91,183h-2.73v-1.73h-.05a4,4,0,0,1-1.67,1.54,5.13,5.13,0,0,1-2.29.53,5.49,5.49,0,0,1-2.37-.5,5.27,5.27,0,0,1-1.77-1.32,5.76,5.76,0,0,1-1.13-1.94,7.18,7.18,0,0,1-.4-2.39,6.78,6.78,0,0,1,.41-2.37,5.78,5.78,0,0,1,1.15-1.92,5.32,5.32,0,0,1,1.78-1.29,5.44,5.44,0,0,1,2.26-.47,5.08,5.08,0,0,1,1.41.18,4.76,4.76,0,0,1,1.09.45,4.29,4.29,0,0,1,.81.57,4.85,4.85,0,0,1,.55.6H349v-8.08h2.88Zm-9.48-5.81a4.52,4.52,0,0,0,.21,1.35,3.78,3.78,0,0,0,.61,1.2,3,3,0,0,0,2.49,1.19,3,3,0,0,0,1.42-.32,3.41,3.41,0,0,0,1.07-.85,3.77,3.77,0,0,0,.67-1.19,4.09,4.09,0,0,0,.23-1.33,4.15,4.15,0,0,0-.23-1.34,3.71,3.71,0,0,0-.67-1.2,3.62,3.62,0,0,0-1.07-.87,3,3,0,0,0-1.42-.33,3,3,0,0,0-2.49,1.17,3.63,3.63,0,0,0-.61,1.19A4.35,4.35,0,0,0,342.43,177.14Z"/><path class="cls-10" d="M355.3,167.52a1.65,1.65,0,0,1,.51-1.21,1.76,1.76,0,0,1,1.31-.52,1.89,1.89,0,0,1,1.33.49,1.61,1.61,0,0,1,.54,1.24,1.59,1.59,0,0,1-.54,1.23,1.89,1.89,0,0,1-1.33.5,1.8,1.8,0,0,1-1.31-.52A1.66,1.66,0,0,1,355.3,167.52Zm.4,3.91h2.88V183H355.7Z"/><path class="cls-10" d="M362.33,171.43h2.73v1.85h.05a3.75,3.75,0,0,1,1.33-1.53,3.85,3.85,0,0,1,2.25-.66,4.4,4.4,0,0,1,1.93.4,3.7,3.7,0,0,1,1.32,1,4.29,4.29,0,0,1,.76,1.49,6.28,6.28,0,0,1,.24,1.73V183h-2.88v-6.38a7.92,7.92,0,0,0-.08-1.06,2.72,2.72,0,0,0-.31-1,2.1,2.1,0,0,0-.66-.73,1.94,1.94,0,0,0-1.11-.29,2.47,2.47,0,0,0-1.2.28,2.4,2.4,0,0,0-.83.71,3.06,3.06,0,0,0-.49,1,3.75,3.75,0,0,0-.17,1.14V183h-2.88Z"/><path class="cls-10" d="M388.25,171.43v10.49a9.52,9.52,0,0,1-.39,2.82,5.19,5.19,0,0,1-3.21,3.49,8,8,0,0,1-2.91.48,9.69,9.69,0,0,1-1.47-.12,10.41,10.41,0,0,1-1.54-.36,9.22,9.22,0,0,1-1.45-.6,6.92,6.92,0,0,1-1.25-.82l1.66-2.23a5.92,5.92,0,0,0,1.89,1.21,5.78,5.78,0,0,0,2.14.42,4.45,4.45,0,0,0,1.74-.3,2.85,2.85,0,0,0,1.13-.83,3.23,3.23,0,0,0,.6-1.25,6.55,6.55,0,0,0,.18-1.59v-.84h-.05a4.13,4.13,0,0,1-1.6,1.29,5.07,5.07,0,0,1-2.17.45,5.61,5.61,0,0,1-2.35-.48,5.44,5.44,0,0,1-1.79-1.29,5.92,5.92,0,0,1-1.14-1.91,6.62,6.62,0,0,1-.41-2.32,7,7,0,0,1,.4-2.35,5.58,5.58,0,0,1,1.13-1.92,5.49,5.49,0,0,1,1.77-1.3,5.56,5.56,0,0,1,2.34-.48,5.15,5.15,0,0,1,2.28.51,3.72,3.72,0,0,1,1.68,1.56h.05v-1.73Zm-6.15,2a3.3,3.3,0,0,0-1.4.28,3,3,0,0,0-1,.78,3.46,3.46,0,0,0-.65,1.16,4.53,4.53,0,0,0-.23,1.44,4,4,0,0,0,.23,1.33,3.66,3.66,0,0,0,.65,1.16,3.1,3.1,0,0,0,1,.83,3,3,0,0,0,1.38.31,3.28,3.28,0,0,0,2.51-1.1,3.62,3.62,0,0,0,.68-1.16,4,4,0,0,0,.24-1.37,4.19,4.19,0,0,0-.24-1.42,3.78,3.78,0,0,0-.68-1.17,3.24,3.24,0,0,0-1.07-.79A3.4,3.4,0,0,0,382.1,173.45Z"/><path class="cls-10" d="M398.23,164.81h2.88v11.47h.07l4.37-4.85h3.7l-5,5.21,5.31,6.31h-3.82L401.18,177h-.07V183h-2.88Z"/><path class="cls-10" d="M411.46,171.43h2.75v1.92h.05a4.15,4.15,0,0,1,1.35-1.63,3.3,3.3,0,0,1,2-.63l.36,0a.9.9,0,0,1,.34.06v2.64a4.75,4.75,0,0,0-.49-.1,2.75,2.75,0,0,0-.4,0,3.13,3.13,0,0,0-1.58.35,2.93,2.93,0,0,0-.94.87,3.21,3.21,0,0,0-.45,1,4.12,4.12,0,0,0-.13.84V183h-2.87Z"/><path class="cls-10" d="M420.07,167.52a1.62,1.62,0,0,1,.52-1.21,1.75,1.75,0,0,1,1.31-.52,1.9,1.9,0,0,1,1.33.49,1.61,1.61,0,0,1,.54,1.24,1.59,1.59,0,0,1-.54,1.23,1.91,1.91,0,0,1-1.33.5,1.79,1.79,0,0,1-1.31-.52A1.64,1.64,0,0,1,420.07,167.52Zm.41,3.91h2.88V183h-2.88Z"/><path class="cls-10" d="M430,171.43v12.22a11.06,11.06,0,0,1-.17,1.95,4.12,4.12,0,0,1-.63,1.61A3.3,3.3,0,0,1,428,188.3a4.72,4.72,0,0,1-2.11.41,6.09,6.09,0,0,1-.72-.05l-.57-.09.24-2.45.41.07a2.62,2.62,0,0,0,.38,0,1.53,1.53,0,0,0,.82-.19,1.37,1.37,0,0,0,.48-.53,2.23,2.23,0,0,0,.21-.78,9.2,9.2,0,0,0,0-.94V171.43Zm-3.29-3.91a1.62,1.62,0,0,1,.52-1.21,1.75,1.75,0,0,1,1.31-.52,1.89,1.89,0,0,1,1.33.49,1.61,1.61,0,0,1,.54,1.24,1.59,1.59,0,0,1-.54,1.23,1.89,1.89,0,0,1-1.33.5,1.79,1.79,0,0,1-1.31-.52A1.64,1.64,0,0,1,426.74,167.52Z"/><path class="cls-10" d="M445.49,171.43v10.49a9.52,9.52,0,0,1-.39,2.82,5.19,5.19,0,0,1-3.21,3.49,8,8,0,0,1-2.91.48,9.69,9.69,0,0,1-1.47-.12,10.41,10.41,0,0,1-1.54-.36,9.22,9.22,0,0,1-1.45-.6,6.59,6.59,0,0,1-1.25-.82l1.66-2.23a5.92,5.92,0,0,0,1.89,1.21,5.78,5.78,0,0,0,2.14.42,4.45,4.45,0,0,0,1.74-.3,2.85,2.85,0,0,0,1.13-.83,3.23,3.23,0,0,0,.6-1.25,6.55,6.55,0,0,0,.18-1.59v-.84h-.05a4.13,4.13,0,0,1-1.6,1.29,5.11,5.11,0,0,1-2.17.45,5.61,5.61,0,0,1-2.35-.48,5.34,5.34,0,0,1-1.79-1.29,5.92,5.92,0,0,1-1.14-1.91,6.62,6.62,0,0,1-.41-2.32,6.79,6.79,0,0,1,.4-2.35,5.58,5.58,0,0,1,1.13-1.92,5.39,5.39,0,0,1,1.77-1.3,5.56,5.56,0,0,1,2.34-.48,5.15,5.15,0,0,1,2.28.51,3.72,3.72,0,0,1,1.68,1.56h.05v-1.73Zm-6.15,2a3.27,3.27,0,0,0-1.4.28,3,3,0,0,0-1,.78,3.46,3.46,0,0,0-.65,1.16,4.53,4.53,0,0,0-.23,1.44,4,4,0,0,0,.23,1.33,3.66,3.66,0,0,0,.65,1.16,3.1,3.1,0,0,0,1,.83,3,3,0,0,0,1.38.31,3.28,3.28,0,0,0,2.51-1.1,3.62,3.62,0,0,0,.68-1.16,4,4,0,0,0,.24-1.37,4.19,4.19,0,0,0-.24-1.42,3.78,3.78,0,0,0-.68-1.17,3.35,3.35,0,0,0-1.07-.79A3.4,3.4,0,0,0,439.34,173.45Z"/><path class="cls-10" d="M460.17,177.33v.39a2.42,2.42,0,0,1,0,.38h-8.76a2.84,2.84,0,0,0,.32,1.14,2.89,2.89,0,0,0,.74.89,3.59,3.59,0,0,0,1,.59,3.44,3.44,0,0,0,1.2.21,3.86,3.86,0,0,0,1.82-.39,3.49,3.49,0,0,0,1.23-1.09l1.92,1.53a5.78,5.78,0,0,1-4.95,2.31,7.27,7.27,0,0,1-2.47-.42,6,6,0,0,1-2-1.19,5.29,5.29,0,0,1-1.29-1.89,6.48,6.48,0,0,1-.47-2.53,6.63,6.63,0,0,1,.47-2.53,5.64,5.64,0,0,1,3.21-3.19,6.43,6.43,0,0,1,2.42-.45,6.17,6.17,0,0,1,2.22.4,4.79,4.79,0,0,1,1.76,1.18,5.34,5.34,0,0,1,1.16,1.94A8,8,0,0,1,460.17,177.33ZM457.29,176a3.72,3.72,0,0,0-.15-1.06,2.67,2.67,0,0,0-.49-.89,2.48,2.48,0,0,0-.86-.61,3,3,0,0,0-1.21-.23,3.23,3.23,0,0,0-2.19.78,2.84,2.84,0,0,0-1,2Z"/><path class="cls-10" d="M463.2,171.43h2.73v1.85H466a3.75,3.75,0,0,1,1.33-1.53,3.85,3.85,0,0,1,2.25-.66,4.4,4.4,0,0,1,1.93.4,3.7,3.7,0,0,1,1.32,1,4.29,4.29,0,0,1,.76,1.49,6.28,6.28,0,0,1,.24,1.73V183h-2.88v-6.38a7.92,7.92,0,0,0-.08-1.06,2.72,2.72,0,0,0-.31-1,2.1,2.1,0,0,0-.66-.73,1.94,1.94,0,0,0-1.11-.29,2.47,2.47,0,0,0-1.2.28,2.4,2.4,0,0,0-.83.71,3.06,3.06,0,0,0-.49,1,3.75,3.75,0,0,0-.17,1.14V183H463.2Z"/><path class="cls-10" d="M481.92,171.43h3.14l3,8.4h0l3.05-8.4h3.05L489.65,183h-3.08Z"/><path class="cls-10" d="M495.53,177.14a6,6,0,0,1,.49-2.48,5.8,5.8,0,0,1,1.33-1.91,5.68,5.68,0,0,1,2-1.22,7,7,0,0,1,4.9,0,5.68,5.68,0,0,1,2,1.22,5.8,5.8,0,0,1,1.33,1.91,6,6,0,0,1,.49,2.48,6.16,6.16,0,0,1-.49,2.5,6,6,0,0,1-1.33,1.93,5.93,5.93,0,0,1-2,1.26,6.75,6.75,0,0,1-4.9,0,5.93,5.93,0,0,1-2-1.26,6,6,0,0,1-1.33-1.93A6.16,6.16,0,0,1,495.53,177.14Zm2.92,0a4.52,4.52,0,0,0,.21,1.35,3.78,3.78,0,0,0,.61,1.2,3.1,3.1,0,0,0,1,.86,3.53,3.53,0,0,0,3,0,3.2,3.2,0,0,0,1-.86,3.78,3.78,0,0,0,.61-1.2,4.51,4.51,0,0,0,.2-1.35,4.34,4.34,0,0,0-.2-1.33,3.63,3.63,0,0,0-.61-1.19,3.4,3.4,0,0,0-4-.85,3.07,3.07,0,0,0-1,.85,3.63,3.63,0,0,0-.61,1.19A4.35,4.35,0,0,0,498.45,177.14Z"/><path class="cls-10" d="M510.41,177.14a6,6,0,0,1,.49-2.48,5.8,5.8,0,0,1,1.33-1.91,5.68,5.68,0,0,1,2-1.22,7,7,0,0,1,4.9,0,5.68,5.68,0,0,1,2,1.22,5.8,5.8,0,0,1,1.33,1.91,6,6,0,0,1,.49,2.48,6.16,6.16,0,0,1-.49,2.5,6,6,0,0,1-1.33,1.93,5.93,5.93,0,0,1-2,1.26,6.75,6.75,0,0,1-4.9,0,5.93,5.93,0,0,1-2-1.26,6,6,0,0,1-1.33-1.93A6.16,6.16,0,0,1,510.41,177.14Zm2.92,0a4.52,4.52,0,0,0,.21,1.35,3.78,3.78,0,0,0,.61,1.2,3.1,3.1,0,0,0,1,.86,3.53,3.53,0,0,0,3,0,3.2,3.2,0,0,0,1-.86,3.78,3.78,0,0,0,.61-1.2,4.51,4.51,0,0,0,.2-1.35,4.34,4.34,0,0,0-.2-1.33,3.63,3.63,0,0,0-.61-1.19,3.4,3.4,0,0,0-4-.85,3.07,3.07,0,0,0-1,.85,3.63,3.63,0,0,0-.61,1.19A4.35,4.35,0,0,0,513.33,177.14Z"/><path class="cls-10" d="M526,171.43h2.76v1.92h0a4.15,4.15,0,0,1,1.35-1.63,3.32,3.32,0,0,1,2-.63l.36,0a.9.9,0,0,1,.34.06v2.64a4.75,4.75,0,0,0-.49-.1,2.75,2.75,0,0,0-.4,0,3.16,3.16,0,0,0-1.58.35,3,3,0,0,0-.94.87,3.21,3.21,0,0,0-.45,1,4,4,0,0,0-.12.84V183H526Z"/><path class="cls-10" d="M552.17,177.33v.39a2.43,2.43,0,0,1,0,.38h-8.76a2.84,2.84,0,0,0,.32,1.14,2.89,2.89,0,0,0,.74.89,3.59,3.59,0,0,0,1,.59,3.44,3.44,0,0,0,1.2.21,3.86,3.86,0,0,0,1.82-.39,3.49,3.49,0,0,0,1.23-1.09l1.92,1.53a5.78,5.78,0,0,1-4.95,2.31,7.27,7.27,0,0,1-2.47-.42,6,6,0,0,1-2-1.19,5.29,5.29,0,0,1-1.29-1.89,6.48,6.48,0,0,1-.47-2.53,6.63,6.63,0,0,1,.47-2.53,5.71,5.71,0,0,1,1.28-1.94,5.63,5.63,0,0,1,1.94-1.25,6.34,6.34,0,0,1,2.41-.45,6.17,6.17,0,0,1,2.22.4,4.79,4.79,0,0,1,1.76,1.18,5.34,5.34,0,0,1,1.16,1.94A8,8,0,0,1,552.17,177.33ZM549.28,176a3.72,3.72,0,0,0-.15-1.06,2.67,2.67,0,0,0-.49-.89,2.48,2.48,0,0,0-.86-.61,3,3,0,0,0-1.21-.23,3.23,3.23,0,0,0-2.19.78,2.84,2.84,0,0,0-1,2Z"/><path class="cls-10" d="M566.18,177.33v.39c0,.13,0,.25,0,.38H557.4a2.85,2.85,0,0,0,1.05,2,3.89,3.89,0,0,0,1,.59,3.53,3.53,0,0,0,1.2.21,3.93,3.93,0,0,0,1.83-.39,3.55,3.55,0,0,0,1.22-1.09l1.92,1.53a5.75,5.75,0,0,1-4.94,2.31,7.23,7.23,0,0,1-2.47-.42,5.79,5.79,0,0,1-2-1.19,5.45,5.45,0,0,1-1.3-1.89,6.49,6.49,0,0,1-.46-2.53,6.63,6.63,0,0,1,.46-2.53,5.73,5.73,0,0,1,1.29-1.94,5.59,5.59,0,0,1,1.93-1.25,6.38,6.38,0,0,1,2.41-.45,6.17,6.17,0,0,1,2.22.4,4.83,4.83,0,0,1,1.77,1.18,5.48,5.48,0,0,1,1.16,1.94A8,8,0,0,1,566.18,177.33ZM563.3,176a3.4,3.4,0,0,0-.16-1.06,2.36,2.36,0,0,0-.49-.89,2.44,2.44,0,0,0-.85-.61,3,3,0,0,0-1.21-.23,3.24,3.24,0,0,0-2.2.78,2.83,2.83,0,0,0-1,2Z"/><path class="cls-10" d="M569.2,171.43h2.74v1.85h0a3.68,3.68,0,0,1,1.33-1.53,3.82,3.82,0,0,1,2.24-.66,4.41,4.41,0,0,1,1.94.4,3.89,3.89,0,0,1,1.32,1,4.27,4.27,0,0,1,.75,1.49,6.28,6.28,0,0,1,.24,1.73V183h-2.88v-6.38a7.86,7.86,0,0,0-.07-1.06,2.93,2.93,0,0,0-.31-1,2.1,2.1,0,0,0-.66-.73,2,2,0,0,0-1.12-.29,2.53,2.53,0,0,0-1.2.28,2.59,2.59,0,0,0-.83.71,3.27,3.27,0,0,0-.49,1,4.09,4.09,0,0,0-.17,1.14V183H569.2Z"/><path class="cls-10" d="M589.65,171.43h2.76v1.92h.05a4.21,4.21,0,0,1,1.34-1.63,3.35,3.35,0,0,1,2-.63l.36,0a.9.9,0,0,1,.34.06v2.64a4.87,4.87,0,0,0-.5-.1,2.55,2.55,0,0,0-.39,0A3.18,3.18,0,0,0,594,174a2.9,2.9,0,0,0-.93.87,3,3,0,0,0-.46,1,4,4,0,0,0-.12.84V183h-2.88Z"/><path class="cls-10" d="M598.27,167.52a1.65,1.65,0,0,1,.51-1.21,1.76,1.76,0,0,1,1.31-.52,1.89,1.89,0,0,1,1.33.49,1.61,1.61,0,0,1,.54,1.24,1.59,1.59,0,0,1-.54,1.23,1.89,1.89,0,0,1-1.33.5,1.8,1.8,0,0,1-1.31-.52A1.66,1.66,0,0,1,598.27,167.52Zm.41,3.91h2.88V183h-2.88Z"/><path class="cls-10" d="M603.64,173.73v-2.3h2v-3.34h2.83v3.34h2.88v2.3h-2.88v5.35a2.58,2.58,0,0,0,.28,1.28c.18.33.59.5,1.23.5a3.61,3.61,0,0,0,.63-.06,2.63,2.63,0,0,0,.6-.18l.09,2.26a5.46,5.46,0,0,1-.91.23,7.21,7.21,0,0,1-1,.08,4.73,4.73,0,0,1-1.87-.32,2.93,2.93,0,0,1-1.14-.89,3.25,3.25,0,0,1-.57-1.3,7.14,7.14,0,0,1-.16-1.57v-5.38Z"/><rect class="cls-12" x="337" y="1227" width="75" height="7" rx="3.5"/><rect class="cls-8" x="275" y="1227" width="50" height="7" rx="3.5"/><rect class="cls-8" x="425" y="1227" width="50" height="7" rx="3.5"/></svg>