<svg xmlns="http://www.w3.org/2000/svg" viewBox="0 0 504 638.83"><defs><style>.cls-1{fill:#f1eefc;}.cls-2{fill:#a9a9ff;}.cls-3{fill:#8980ff;}.cls-4{fill:#7966ff;}</style></defs><title>MenuBGAsset 6</title><g id="Layer_2" data-name="Layer 2"><g id="Layer_3" data-name="Layer 3"><path class="cls-1" d="M0,282H504V638.83l-54.88-19.35a591.28,591.28,0,0,0-394.24,0L0,638.83Z"/><path class="cls-2" d="M0,318.29H504V597.17l-54.88-19.35a591.28,591.28,0,0,0-394.24,0L0,597.17Z"/><path class="cls-3" d="M0,282H504V554.83l-54.88-19.35a591.28,591.28,0,0,0-394.24,0L0,554.83Z"/><path class="cls-4" d="M0,0H504V507.79l-54.88-19.35a591.28,591.28,0,0,0-394.24,0L0,507.79Z"/></g></g></svg>