<svg xmlns="http://www.w3.org/2000/svg" viewBox="0 0 26 25.99"><defs><style>.cls-1{fill:#15171a;}</style></defs><title>IconUitloggenAsset 12</title><g id="Layer_2" data-name="Layer 2"><g id="Layer_3" data-name="Layer 3"><path id="path" class="cls-1" d="M11.71,11.82l4.48-4.48a1.18,1.18,0,1,0-1.67-1.68h0L8,12.16a1.17,1.17,0,0,0,0,1.67H8l6.49,6.5a1.2,1.2,0,0,0,1.68,0,1.18,1.18,0,0,0,0-1.67l-4.49-4.48H24.82a1.19,1.19,0,0,0,0-2.37Zm2.47-9.46a1.18,1.18,0,0,0,0-2.36H3A3,3,0,0,0,0,3H0V23A3,3,0,0,0,3,26H14.18a1.18,1.18,0,0,0,0-2.36H3a.59.59,0,0,1-.6-.59h0V3a.6.6,0,0,1,.6-.6H14.18Z"/></g></g></svg>