<svg xmlns="http://www.w3.org/2000/svg" viewBox="0 0 494.1 471.14"><defs><style>.cls-1{fill:#8980ff;}.cls-2,.cls-3{fill:#a9a9ff;}.cls-2{opacity:0.47;}.cls-4{fill:#7966ff;}.cls-5,.cls-6{fill:#f1eefc;}.cls-6{font-size:80.48px;font-family:AvenirNext-Bold, Avenir Next;font-weight:700;}.cls-7{fill:#b5b3bd;}</style></defs><title>ErkebFamGiftAsset 35</title><g id="Layer_2" data-name="Layer 2"><g id="Layer_3" data-name="Layer 3"><rect class="cls-1" x="61.6" y="143.6" width="23.72" height="7.17" rx="1" transform="translate(178.1 20.26) rotate(66.03)"/><path class="cls-2" d="M266.59,469.74,94.84,429.1l137.28-44.84L421,419.72,297.34,467.63A52,52,0,0,1,266.59,469.74Z"/><polygon class="cls-1" points="136.74 276.76 250.44 253.86 376.33 272.63 277.18 297.33 136.74 276.76"/><polygon class="cls-3" points="250.44 253.86 253.66 401.03 363.15 419.72 376.33 272.63 250.44 253.86"/><polygon class="cls-4" points="277.18 452.14 153.21 423.33 136.74 276.76 277.18 297.33 277.18 452.14"/><polygon class="cls-1" points="277.18 297.33 376.33 272.63 363.15 419.72 277.18 452.14 277.18 297.33"/><polygon class="cls-5" points="311.69 439.13 332.81 431.16 349.57 279.17 327.79 284.73 311.69 439.13"/><polygon class="cls-5" points="192.1 432.37 176.15 282.51 203.09 286.48 214.19 437.5 192.1 432.37"/><text class="cls-6" transform="translate(144.97 244.41)">YEAH</text><polygon class="cls-1" points="375.1 93.04 282.31 128.49 284.13 161.89 373.63 124.39 375.1 93.04"/><polygon class="cls-3" points="375.1 93.04 277.86 86.59 245.32 84.43 122.35 123.09 282.31 128.49 375.1 93.04"/><polygon class="cls-4" points="129.5 152.72 284.13 161.89 282.31 128.49 122.35 123.09 129.5 152.72"/><polygon class="cls-5" points="160.81 124.33 193.1 125.78 200.01 156.9 171.42 155.21 160.81 124.33"/><polygon class="cls-5" points="160.81 124.33 277.86 86.59 304.97 88.39 193.1 125.78 160.81 124.33"/><polygon class="cls-5" points="327.91 111.46 326.04 144.33 346.06 135.94 348.21 103.31 327.91 111.46"/><polygon class="cls-5" points="348.21 103.31 205.42 96.98 182.34 104.23 327.91 111.46 348.21 103.31"/><path class="cls-7" d="M157.88,59.61s36.25,42,80.05,43.54c10.16-1.08,14.78-4.07,14.78-4.07l-63.2-41h0A73.64,73.64,0,0,1,209.39,22.2h0a5.36,5.36,0,0,0-5.76-8.79l-18.1,7.17L167,38.69Z"/><path class="cls-5" d="M248.09,102.07,212.51,38.12A4.8,4.8,0,0,0,209,35.69a53.82,53.82,0,0,0-27.21,3.6,49.1,49.1,0,0,0-23.89,20.32L167,38.69a48,48,0,0,1,11-15.76h0A61.38,61.38,0,0,1,209.53,7.05l10.65-1.89a9,9,0,0,1,10.14,6.1l27.31,84.63Z"/><path class="cls-7" d="M337,40.58S310.41,89.3,267.91,100c-10.17,1.08-15.31-.87-15.31-.87l53.17-53.36h0a73.52,73.52,0,0,0-27-30.9h0A5.37,5.37,0,0,1,282.58,5l19.21,3.21,22,13.8Z"/><path class="cls-5" d="M257.74,101l21.35-70a4.85,4.85,0,0,1,3-3.12,53.78,53.78,0,0,1,27.35-2.18A49.07,49.07,0,0,1,337,40.58L323.75,22a48,48,0,0,0-14.1-13.09h0A61.48,61.48,0,0,0,275.48,0l-10.81.4A9,9,0,0,0,256,8.53L247.12,97Z"/><rect class="cls-1" x="381.05" y="197.32" width="20.86" height="6.31" rx="1" transform="translate(827.19 140.44) rotate(145.04)"/><rect class="cls-1" x="419.96" y="200.52" width="20.86" height="6.31" rx="1" transform="matrix(-0.82, 0.57, -0.57, -0.82, 899.82, 123.96)"/><rect class="cls-4" x="415.34" y="152.91" width="20.86" height="6.31" rx="1" transform="translate(736.59 -174.13) rotate(113.14)"/><rect class="cls-3" x="375.73" y="154.11" width="20.86" height="6.31" rx="1" transform="translate(628.04 -182.37) rotate(103.3)"/><rect class="cls-1" x="386.51" y="238.04" width="20.86" height="6.31" rx="1" transform="translate(821.46 429.66) rotate(172.65)"/><rect class="cls-4" x="473.18" y="194.93" width="20.86" height="6.31" rx="1" transform="translate(1005.91 179.99) rotate(155.74)"/><rect class="cls-4" x="292.33" y="274.67" width="20.86" height="6.31" rx="1" transform="translate(712.01 240.85) rotate(132.3)"/><rect class="cls-3" x="451.11" y="159.11" width="20.86" height="6.31" rx="1" transform="translate(919.37 -10.22) rotate(139.99)"/><rect class="cls-4" x="328.35" y="260.57" width="20.86" height="6.31" rx="1" transform="translate(764.83 210.65) rotate(135)"/><rect class="cls-1" x="447.8" y="266.01" width="20.86" height="6.31" rx="1" transform="matrix(-1, 0.09, -0.09, -1, 939.03, 495.59)"/><rect class="cls-3" x="446.34" y="230.08" width="20.86" height="6.31" rx="1" transform="matrix(-0.99, 0.17, -0.17, -0.99, 945.93, 387.36)"/><rect class="cls-4" x="174.49" y="263.98" width="20.86" height="6.31" rx="1" transform="translate(158.4 590.94) rotate(-140.62)"/><rect class="cls-1" x="394.7" y="269.44" width="20.86" height="6.31" rx="1" transform="translate(882.82 373.81) rotate(158.03)"/><rect class="cls-4" x="262.14" y="275.86" width="20.86" height="6.31" rx="1" transform="translate(-56.48 488.46) rotate(-78.15)"/><rect class="cls-4" x="226.43" y="269.49" width="20.86" height="6.31" rx="1" transform="translate(37.99 574.11) rotate(-105.61)"/><rect class="cls-3" x="93.17" y="223.63" width="20.86" height="6.31" rx="1" transform="translate(148.65 -18.44) rotate(34.96)"/><rect class="cls-4" x="60.75" y="233.23" width="20.86" height="6.31" rx="1" transform="translate(74.74 -10.46) rotate(17.58)"/><rect class="cls-1" x="77.65" y="188.8" width="20.86" height="6.31" rx="1" transform="translate(172.79 -1.51) rotate(48.29)"/><rect class="cls-1" x="111.8" y="182.27" width="20.86" height="6.31" rx="1" transform="translate(221.7 -13.15) rotate(60)"/><rect class="cls-1" x="110.72" y="263.41" width="20.86" height="6.31" rx="1" transform="translate(-55.82 33.3) rotate(-12.75)"/><rect class="cls-3" x="77.58" y="292.68" width="20.86" height="6.31" rx="1" transform="translate(-63.09 26.7) rotate(-12.74)"/><rect class="cls-1" x="0.24" y="227.81" width="20.86" height="6.31" rx="1" transform="translate(53.2 3.7) rotate(13.24)"/><rect class="cls-4" x="36.13" y="171.46" width="20.86" height="6.31" rx="1" transform="translate(137.11 18.22) rotate(45)"/><rect class="cls-1" x="33.42" y="204.59" width="20.86" height="6.31" rx="1" transform="translate(99.2 2.76) rotate(27.03)"/><rect class="cls-4" x="44.83" y="262.84" width="20.86" height="6.31" rx="1" transform="translate(65.71 -5.48) rotate(13.94)"/></g></g></svg>