<svg xmlns="http://www.w3.org/2000/svg" viewBox="0 0 26 25.99"><defs><style>.cls-1{fill:#15171a;}</style></defs><title>IconInloggenAsset 13</title><g id="Layer_2" data-name="Layer 2"><g id="Layer_3" data-name="Layer 3"><path id="path" class="cls-1" d="M1.18,11.81a1.19,1.19,0,0,0,0,2.37H14.29L9.8,18.66a1.18,1.18,0,0,0,0,1.67,1.2,1.2,0,0,0,1.68,0L18,13.83h0a1.17,1.17,0,0,0,0-1.67l-6.49-6.5h0A1.18,1.18,0,1,0,9.81,7.34l4.48,4.48ZM23,2.36h0a.6.6,0,0,1,.6.6V23h0a.59.59,0,0,1-.6.59H11.82a1.18,1.18,0,1,0,0,2.36H23A3,3,0,0,0,26,23V3h0a3,3,0,0,0-3-3H11.82a1.18,1.18,0,1,0,0,2.36Z"/></g></g></svg>