<svg xmlns="http://www.w3.org/2000/svg" viewBox="0 0 750 774"><defs><style>.cls-1{fill:#f1eefc;}.cls-2{fill:#a9a9ff;}.cls-3{fill:#8980ff;}.cls-4{fill:#7966ff;}</style></defs><title>SubMenuBGAsset 30</title><g id="Layer_2" data-name="Layer 2"><g id="Layer_3" data-name="Layer 3"><path class="cls-1" d="M750,524H0V0L81.67,28.8a879.91,879.91,0,0,0,586.66,0L750,0Z"/><path class="cls-2" d="M750,477H0V62L81.67,90.8a879.91,879.91,0,0,0,586.66,0L750,62Z"/><path class="cls-3" d="M750,524H0V125l81.67,28.8a879.91,879.91,0,0,0,586.66,0L750,125Z"/><path class="cls-4" d="M750,774H0V191l81.67,28.8a879.91,879.91,0,0,0,586.66,0L750,191Z"/></g></g></svg>