<svg xmlns="http://www.w3.org/2000/svg" xmlns:xlink="http://www.w3.org/1999/xlink" viewBox="0 0 41.56 50"><defs><style>.cls-1{fill:url(#linear-gradient);}.cls-2{fill:url(#linear-gradient-2);}.cls-3{fill:#fff;}.cls-4{fill:#f1eefc;}.cls-5{fill:#363e44;}.cls-6{fill:url(#linear-gradient-3);}</style><linearGradient id="linear-gradient" x1="11.86" y1="1.66" x2="33.58" y2="39.27" gradientUnits="userSpaceOnUse"><stop offset="0" stop-color="#a9a9ff"/><stop offset="0.18" stop-color="#a19fff"/><stop offset="0.68" stop-color="#9088ff"/><stop offset="1" stop-color="#8980ff"/></linearGradient><linearGradient id="linear-gradient-2" x1="14.67" y1="5.54" x2="33.73" y2="38.55" gradientUnits="userSpaceOnUse"><stop offset="0" stop-color="#8980ff"/><stop offset="0.39" stop-color="#867cff"/><stop offset="0.81" stop-color="#7e6eff"/><stop offset="1" stop-color="#7966ff"/></linearGradient><linearGradient id="linear-gradient-3" x1="9.25" y1="21.17" x2="24.89" y2="48.27" gradientUnits="userSpaceOnUse"><stop offset="0" stop-color="#8980ff"/><stop offset="0.41" stop-color="#877dff"/><stop offset="0.76" stop-color="#8072ff"/><stop offset="1" stop-color="#7966ff"/></linearGradient></defs><title>DriverAnnotationAsset 23</title><g id="Layer_2" data-name="Layer 2"><g id="Layer_3" data-name="Layer 3"><path class="cls-1" d="M36.59,37.53s12.32-17.9-1.83-31.76A19.89,19.89,0,0,0,22.54.09C15.79-.48,5.81,1.33.4,14.91a5.65,5.65,0,0,0,1.22,6C5.44,24.84,14.92,31.92,36.59,37.53Z"/><path class="cls-2" d="M36.19,37.13s12.26-17.74-.64-28.49C32.49,6.09,28.2,5.12,24.32,4.56,18.49,3.72,9,5.3,4.41,16.81c-.7,1.76-.79,6.08.76,7.15C9.26,26.77,17.82,32.37,36.19,37.13Z"/><path class="cls-3" d="M38.74,31.1s-11.46-1.75-17.36-5.19c-4.85-2.83.51-12,.51-12a58.46,58.46,0,0,0,18.82,4.47S42.69,21.78,38.74,31.1Z"/><path class="cls-4" d="M24.24,27.3a8.87,8.87,0,0,0,7.22-6.92l9.66,2.11s-.58,7.59-1.8,8.61S24.24,27.3,24.24,27.3Z"/><circle class="cls-5" cx="20.74" cy="17.58" r="4.59"/><path class="cls-3" d="M20.43,1c.66,0,1.35,0,2,.09a18.86,18.86,0,0,1,11.6,5.39c5.59,5.48,7.6,12.24,6,20.1a32.68,32.68,0,0,1-3.88,9.8C15.05,30.81,5.91,23.9,2.33,20.25a4.65,4.65,0,0,1-1-5C6,3.48,14.31,1,20.43,1m0-1C13.84,0,5.27,2.68.4,14.91a5.65,5.65,0,0,0,1.22,6c3.82,3.89,13.3,11,35,16.58,0,0,12.32-17.9-1.83-31.76A19.89,19.89,0,0,0,22.54.09C21.87,0,21.16,0,20.43,0Z"/><path class="cls-6" d="M.6,26.16S12.32,36.69,33.78,41.43A32.84,32.84,0,0,1,21,50S6.39,45.12.6,26.16Z"/><path class="cls-3" d="M2.66,29.06A83.6,83.6,0,0,0,31.85,42,33.79,33.79,0,0,1,21,48.93c-2-.79-12.78-5.64-18.36-19.87M.6,26.16C6.39,45.12,21,50,21,50a32.84,32.84,0,0,0,12.75-8.57C12.32,36.69.6,26.16.6,26.16Z"/></g></g></svg>